{"glyphs":{"0":{"ha":915,"x_min":61,"x_max":853,"o":"m 457 804 q 737 699 621 804 q 853 397 853 594 q 735 92 853 204 q 456 -19 618 -19 q 181 89 300 -19 q 61 394 61 197 q 178 696 61 588 q 457 804 296 804 m 457 169 q 575 229 525 169 q 625 393 625 289 q 576 559 625 501 q 456 617 526 617 q 340 560 389 617 q 290 399 290 503 q 339 230 290 290 q 457 169 388 169 z "},"1":{"ha":663,"x_min":56,"x_max":618,"o":"m 78 172 l 253 172 l 253 508 q 205 484 229 496 q 157 461 181 472 l 56 644 l 329 786 l 482 786 l 482 172 l 597 172 q 608 86 603 129 q 618 0 613 43 l 97 0 q 88 86 93 43 q 78 172 83 129 z "},"2":{"ha":719,"x_min":46,"x_max":663,"o":"m 628 563 q 585 399 628 475 q 446 240 543 324 l 372 178 l 639 178 l 663 0 l 56 0 l 56 151 l 303 369 q 397 471 371 429 q 425 546 424 513 q 399 599 425 578 q 331 619 374 619 q 225 588 281 619 q 143 539 169 557 l 46 690 q 165 765 89 726 q 339 804 240 804 q 566 727 504 804 q 628 563 628 650 z "},"3":{"ha":771,"x_min":22,"x_max":706,"o":"m 690 560 q 656 451 690 506 q 583 378 622 397 q 667 297 629 356 q 706 168 706 238 q 608 -30 706 47 q 349 -107 510 -107 q 185 -81 272 -107 q 22 -8 97 -54 l 143 144 q 249 92 201 108 q 350 76 297 76 q 440 102 403 76 q 476 172 476 128 q 442 247 476 219 q 343 275 407 275 l 229 275 l 207 454 l 313 454 q 421 478 381 454 q 461 544 461 503 q 433 597 461 575 q 349 619 404 619 q 253 600 301 619 q 160 550 204 581 l 51 703 q 203 781 122 757 q 367 804 283 804 q 603 735 517 804 q 690 560 690 665 z "},"4":{"ha":854,"x_min":33,"x_max":815,"o":"m 801 78 l 675 78 l 675 -90 l 446 -90 l 446 78 l 60 78 l 33 250 l 504 793 l 675 793 l 675 258 l 815 258 l 801 78 m 296 258 l 446 258 l 446 443 l 296 258 z "},"5":{"ha":746,"x_min":29,"x_max":699,"o":"m 96 263 l 122 786 l 656 786 l 633 606 l 317 606 l 311 490 q 352 506 329 500 q 403 511 375 511 q 624 422 549 511 q 699 211 699 332 q 605 -19 699 71 q 350 -108 511 -108 q 185 -81 274 -108 q 29 -10 96 -53 l 143 151 q 251 101 203 118 q 354 85 299 85 q 453 119 414 85 q 493 211 493 153 q 463 293 493 263 q 388 324 433 324 q 324 303 349 324 q 290 263 300 283 l 96 263 z "},"6":{"ha":829,"x_min":61,"x_max":788,"o":"m 622 726 q 469 657 549 708 q 339 532 389 606 q 403 560 369 550 q 464 571 438 571 q 696 490 604 571 q 788 292 788 408 q 697 76 788 171 q 458 -18 607 -18 q 176 78 290 -18 q 61 368 61 175 q 190 683 61 529 q 517 882 318 836 l 622 726 m 438 411 q 353 384 392 411 q 293 326 314 357 q 345 208 304 250 q 449 167 386 167 q 531 204 501 167 q 560 285 560 242 q 528 374 560 336 q 438 411 497 411 z "},"7":{"ha":721,"x_min":44,"x_max":701,"o":"m 46 -43 l 406 606 l 68 606 l 44 786 l 653 786 l 701 696 l 269 -103 l 46 -43 z "},"8":{"ha":829,"x_min":61,"x_max":768,"o":"m 417 -18 q 158 60 254 -18 q 61 268 61 139 q 100 388 61 332 q 190 474 139 444 q 122 544 150 500 q 93 640 93 589 q 185 822 93 751 q 417 893 278 893 q 644 822 551 893 q 736 640 736 751 q 708 544 736 589 q 640 472 681 499 q 729 388 690 443 q 768 268 768 332 q 675 63 768 143 q 417 -18 582 -18 m 322 629 q 347 571 322 596 q 417 539 371 546 q 484 572 461 546 q 507 631 507 597 q 483 682 507 657 q 414 707 460 707 q 347 681 371 707 q 322 629 322 656 m 415 167 q 502 198 463 167 q 542 275 542 229 q 509 349 542 313 q 417 396 476 386 q 321 349 353 386 q 289 275 289 313 q 328 198 289 229 q 415 167 367 167 z "},"9":{"ha":829,"x_min":42,"x_max":768,"o":"m 207 60 q 359 128 279 76 q 489 251 439 179 q 426 225 458 235 q 367 215 393 215 q 134 297 226 215 q 42 494 42 378 q 133 710 42 615 q 374 804 224 804 q 654 707 540 804 q 768 418 768 610 q 640 103 768 257 q 313 -96 511 -50 l 207 60 m 392 375 q 476 402 438 375 q 536 460 514 429 q 483 578 525 536 q 381 619 442 619 q 299 582 328 619 q 269 501 269 544 q 301 413 269 450 q 392 375 332 375 z "},"\u0000":{"ha":0,"x_min":0,"x_max":0,"o":""},"\r":{"ha":0,"x_min":0,"x_max":0,"o":""}," ":{"ha":313,"x_min":0,"x_max":0,"o":""}," ":{"ha":313,"x_min":0,"x_max":0,"o":""},"‌":{"ha":0,"x_min":-42,"x_max":42,"o":"m -42 1718 l 42 1718 l 42 -94 l -42 -94 l -42 1718 z "},"‍":{"ha":0,"x_min":-157,"x_max":158,"o":"m 103 1833 l 158 1778 l 56 1675 l 158 1572 l 104 1518 l 42 1579 l 42 -94 l -42 -94 l -42 1578 l -103 1518 l -157 1572 l -54 1675 l -157 1778 l -101 1833 l 0 1731 l 103 1833 z "},"◌":{"ha":933,"x_min":69,"x_max":864,"o":"m 421 753 q 433 785 421 772 q 465 799 446 799 q 498 785 485 799 q 511 753 511 772 q 498 721 511 733 q 465 708 485 708 q 433 721 446 708 q 421 753 421 733 m 560 729 q 572 762 560 749 q 604 775 585 775 q 637 762 624 775 q 650 729 650 749 q 637 697 650 710 q 604 685 624 685 q 572 697 585 685 q 560 729 560 710 m 374 729 q 361 697 374 710 q 329 685 349 685 q 297 697 310 685 q 283 729 283 710 q 297 762 283 749 q 329 775 310 775 q 361 762 349 775 q 374 729 374 749 m 678 651 q 690 684 678 671 q 722 697 703 697 q 755 684 742 697 q 768 651 768 671 q 755 619 768 632 q 722 607 742 607 q 690 619 703 607 q 678 651 678 632 m 256 651 q 243 619 256 632 q 211 607 231 607 q 178 619 192 607 q 165 651 165 632 q 178 684 165 671 q 211 697 192 697 q 243 684 231 697 q 256 651 256 671 m 751 529 q 764 562 751 549 q 796 575 776 575 q 828 562 815 575 q 842 529 842 549 q 828 497 842 510 q 796 485 815 485 q 764 497 776 485 q 751 529 751 510 m 182 529 q 169 497 182 510 q 138 485 157 485 q 105 497 118 485 q 92 529 92 510 q 105 562 92 549 q 138 575 118 575 q 169 562 157 575 q 182 529 182 549 m 774 397 q 786 430 774 417 q 818 443 799 443 q 851 430 838 443 q 864 397 864 417 q 851 365 864 378 q 818 353 838 353 q 786 365 799 353 q 774 397 774 378 m 160 397 q 147 365 160 378 q 115 353 135 353 q 83 365 96 353 q 69 397 69 378 q 83 430 69 417 q 115 443 96 443 q 147 430 135 443 q 160 397 160 417 m 751 268 q 764 301 751 288 q 796 314 776 314 q 828 301 815 314 q 842 268 842 288 q 828 236 842 249 q 796 224 815 224 q 764 236 776 224 q 751 268 751 249 m 182 268 q 169 236 182 249 q 138 224 157 224 q 105 236 118 224 q 92 268 92 249 q 105 301 92 288 q 138 314 118 314 q 169 301 157 314 q 182 268 182 288 m 679 144 q 692 177 679 164 q 724 190 704 190 q 756 177 743 190 q 769 144 769 164 q 756 113 769 125 q 724 100 743 100 q 692 113 704 100 q 679 144 679 125 m 254 144 q 242 113 254 125 q 210 100 229 100 q 177 113 190 100 q 164 144 164 125 q 177 177 164 164 q 210 190 190 190 q 242 177 229 190 q 254 144 254 164 m 374 68 q 361 36 374 49 q 329 24 349 24 q 297 36 310 24 q 283 68 283 49 q 297 101 283 88 q 329 114 310 114 q 361 101 349 114 q 374 68 374 88 m 560 68 q 572 101 560 88 q 604 114 585 114 q 637 101 624 114 q 650 68 650 88 q 637 36 650 49 q 604 24 624 24 q 572 36 585 24 q 560 68 560 49 m 421 44 q 433 77 421 64 q 465 90 446 90 q 498 77 485 90 q 511 44 511 64 q 498 13 511 25 q 465 0 485 0 q 433 13 446 0 q 421 44 421 25 z "},"A":{"ha":960,"x_min":13,"x_max":947,"o":"m 476 661 l 375 379 l 582 379 l 476 661 m 590 944 l 947 25 l 722 0 l 649 199 l 311 199 l 239 0 l 13 0 l 371 944 l 590 944 z "},"B":{"ha":899,"x_min":103,"x_max":847,"o":"m 793 669 q 771 577 792 618 q 715 504 750 536 q 810 410 774 467 q 847 279 847 354 q 735 64 847 128 q 471 0 624 0 l 103 0 l 103 944 l 431 944 q 688 881 583 944 q 793 669 793 817 m 417 761 l 331 761 l 331 576 l 399 576 q 513 596 469 576 q 556 665 556 615 q 519 739 556 717 q 417 761 482 761 m 472 396 l 331 396 l 331 181 l 469 181 q 572 206 533 181 q 611 283 611 232 q 574 367 611 338 q 472 396 536 396 z "},"C":{"ha":836,"x_min":64,"x_max":788,"o":"m 511 775 q 358 692 417 775 q 300 469 300 608 q 356 253 300 336 q 513 169 413 169 q 615 183 568 169 q 701 218 663 197 l 788 49 q 657 -1 733 17 q 513 -18 581 -18 q 175 119 286 -18 q 64 468 64 257 q 183 824 64 686 q 511 963 301 963 q 647 944 571 963 q 779 890 722 926 l 711 735 q 601 766 640 757 q 511 775 563 775 z "},"D":{"ha":992,"x_min":103,"x_max":936,"o":"m 490 0 l 103 0 l 103 944 l 490 944 q 824 813 711 944 q 936 478 936 682 q 814 129 936 258 q 490 0 692 0 m 488 761 l 331 761 l 331 182 l 478 182 q 638 253 575 182 q 700 478 700 325 q 647 683 700 604 q 488 761 593 761 z "},"E":{"ha":813,"x_min":103,"x_max":785,"o":"m 785 0 l 103 0 l 103 944 l 708 944 l 733 764 l 331 764 l 331 564 l 608 564 l 633 385 l 331 385 l 331 178 l 758 178 q 772 89 765 133 q 785 0 778 44 z "},"F":{"ha":729,"x_min":103,"x_max":714,"o":"m 629 371 l 331 371 l 331 0 l 103 0 l 103 944 l 689 944 q 702 854 696 900 q 714 764 708 808 l 331 764 l 331 550 l 604 550 l 629 371 z "},"G":{"ha":929,"x_min":64,"x_max":842,"o":"m 842 51 q 696 1 786 19 q 528 -18 606 -18 q 183 115 301 -18 q 64 468 64 247 q 197 828 64 694 q 542 963 329 963 q 688 944 601 963 q 831 890 774 926 l 763 735 q 644 766 692 757 q 544 775 596 775 q 372 699 444 775 q 300 469 300 622 q 365 243 300 317 q 532 169 431 169 q 586 172 560 169 q 636 181 613 175 l 636 365 l 463 365 l 453 535 l 842 535 l 842 51 z "},"H":{"ha":1017,"x_min":103,"x_max":913,"o":"m 331 951 l 331 560 l 685 560 l 685 944 l 913 944 l 913 0 l 685 0 l 685 379 l 331 379 l 331 0 l 103 0 l 103 951 l 331 951 z "},"I":{"ha":435,"x_min":103,"x_max":331,"o":"m 331 944 l 331 0 l 103 0 l 103 944 l 331 944 z "},"J":{"ha":444,"x_min":7,"x_max":349,"o":"m 349 944 l 349 219 q 294 63 349 117 q 99 -33 239 10 q 53 54 76 10 q 7 143 29 99 q 101 203 82 172 q 119 278 119 233 l 119 944 l 349 944 z "},"K":{"ha":950,"x_min":97,"x_max":950,"o":"m 325 944 l 325 593 l 696 965 l 871 836 l 564 528 l 950 0 l 661 0 l 404 368 l 325 288 l 325 0 l 97 0 l 97 944 l 325 944 z "},"L":{"ha":776,"x_min":104,"x_max":763,"o":"m 763 0 l 104 0 l 104 944 l 332 944 l 332 179 l 738 179 l 763 0 z "},"M":{"ha":1076,"x_min":103,"x_max":972,"o":"m 508 275 l 331 497 l 331 0 l 103 0 l 103 944 l 257 944 l 553 558 q 688 751 621 654 q 824 944 756 849 l 972 944 l 972 0 l 743 0 l 743 486 q 672 387 708 436 q 599 288 635 338 q 553 282 576 286 q 508 275 531 278 z "},"N":{"ha":1040,"x_min":103,"x_max":936,"o":"m 936 944 l 936 0 l 719 0 q 524 275 622 135 q 331 550 426 415 l 331 0 l 103 0 l 103 944 l 319 944 l 708 383 l 708 944 l 936 944 z "},"O":{"ha":1031,"x_min":64,"x_max":968,"o":"m 515 965 q 855 823 742 965 q 968 478 968 681 q 849 119 968 258 q 515 -19 729 -19 q 177 123 290 -19 q 64 468 64 265 q 185 825 64 686 q 515 965 306 964 m 514 171 q 674 247 617 171 q 732 478 732 324 q 681 690 732 607 q 518 774 631 774 q 358 690 418 774 q 299 469 299 607 q 349 256 299 340 q 514 171 400 171 z "},"P":{"ha":897,"x_min":104,"x_max":850,"o":"m 104 0 l 104 944 l 467 944 q 737 865 624 944 q 850 617 850 785 q 729 372 850 451 q 456 293 608 293 l 332 293 l 332 0 l 104 0 m 460 763 l 332 763 l 332 475 l 463 475 q 571 512 528 475 q 614 613 614 549 q 573 724 614 685 q 460 763 532 763 z "},"Q":{"ha":1031,"x_min":64,"x_max":968,"o":"m 515 965 q 855 823 742 965 q 968 478 968 681 q 943 295 968 379 q 871 147 918 211 l 958 56 l 819 -65 l 728 28 q 628 -7 682 6 q 515 -19 575 -19 q 177 123 290 -19 q 64 468 64 265 q 185 825 64 686 q 515 965 306 964 m 514 171 q 545 173 529 171 q 575 181 561 175 l 460 299 l 611 424 l 708 319 q 726 390 719 350 q 732 478 732 431 q 681 690 732 607 q 518 774 631 774 q 358 690 418 774 q 299 469 299 607 q 349 256 299 340 q 514 171 400 171 z "},"R":{"ha":942,"x_min":103,"x_max":926,"o":"m 458 761 l 331 761 l 331 499 l 461 499 q 570 533 528 499 q 613 629 613 567 q 572 729 613 697 q 458 761 531 761 m 668 0 q 583 159 625 79 q 500 318 542 239 q 477 317 489 317 q 454 317 465 317 l 331 317 l 331 0 l 103 0 l 103 944 l 465 944 q 736 870 622 944 q 850 632 850 796 q 810 483 850 546 q 711 383 771 419 q 819 191 765 288 q 926 0 872 94 l 668 0 z "},"S":{"ha":778,"x_min":57,"x_max":732,"o":"m 57 699 q 149 888 57 811 q 400 964 240 964 q 544 943 471 964 q 674 889 618 922 l 604 726 q 497 762 540 750 q 403 774 454 774 q 323 753 353 774 q 293 697 293 732 q 339 632 293 658 q 449 572 385 606 q 640 446 549 521 q 732 254 732 371 q 635 60 732 138 q 365 -18 539 -18 q 205 6 297 -18 q 65 60 113 29 l 135 235 q 240 192 174 213 q 360 172 306 172 q 463 197 428 172 q 497 257 497 222 q 448 320 497 289 q 340 381 399 351 q 151 503 244 431 q 57 699 57 576 z "},"T":{"ha":842,"x_min":11,"x_max":831,"o":"m 11 944 l 804 944 q 817 854 811 899 q 831 764 824 810 l 521 764 l 521 0 l 293 0 l 293 764 l 11 764 l 11 944 z "},"U":{"ha":1006,"x_min":92,"x_max":913,"o":"m 319 944 l 319 367 q 371 219 319 268 q 501 171 422 171 q 633 220 582 171 q 685 367 685 269 l 685 944 l 913 944 l 913 354 q 800 82 913 181 q 501 -17 688 -17 q 204 81 317 -17 q 92 354 92 179 l 92 944 l 319 944 z "},"V":{"ha":960,"x_min":13,"x_max":947,"o":"m 369 0 l 13 919 l 236 944 l 482 282 l 719 944 l 947 944 l 589 0 l 369 0 z "},"W":{"ha":1536,"x_min":13,"x_max":1525,"o":"m 975 0 l 764 610 l 560 0 l 339 0 l 13 919 l 236 944 l 451 290 l 656 944 l 878 944 l 1092 292 l 1297 944 l 1525 944 l 1197 0 l 975 0 z "},"X":{"ha":997,"x_min":13,"x_max":985,"o":"m 13 17 q 180 244 96 131 q 347 472 264 358 l 18 913 q 147 930 82 921 q 275 946 211 939 l 489 658 q 601 801 544 729 q 714 944 657 874 l 985 944 l 625 475 l 979 0 l 701 0 q 592 144 646 71 q 483 290 539 218 q 369 137 426 214 q 254 -15 311 60 l 13 17 z "},"Y":{"ha":899,"x_min":13,"x_max":888,"o":"m 332 0 l 332 371 l 13 919 l 249 944 l 444 586 l 651 944 l 888 944 l 560 367 l 560 0 l 332 0 z "},"Z":{"ha":826,"x_min":25,"x_max":797,"o":"m 797 778 q 564 496 681 640 q 297 178 447 351 l 775 178 q 786 89 781 133 q 797 0 792 44 l 50 0 l 25 164 l 513 764 l 88 764 q 76 854 82 810 q 65 944 71 899 l 772 944 l 797 778 z "},"a":{"ha":713,"x_min":50,"x_max":639,"o":"m 301 167 q 356 179 328 167 q 411 214 385 192 l 411 282 l 313 282 q 261 263 281 282 q 242 218 242 244 q 259 182 242 197 q 301 167 276 167 m 356 696 q 563 621 486 696 q 639 425 639 546 l 639 0 l 533 0 l 488 53 q 404 4 454 24 q 300 -15 354 -15 q 112 47 174 -15 q 50 211 50 110 q 122 372 50 319 q 311 424 194 424 l 410 424 q 380 482 406 461 q 315 503 354 503 q 226 490 276 503 q 138 461 175 478 l 76 632 q 205 676 125 657 q 356 696 285 696 z "},"b":{"ha":835,"x_min":88,"x_max":786,"o":"m 315 981 l 315 657 q 388 686 346 675 q 468 697 429 697 q 706 597 626 697 q 786 344 786 496 q 706 89 786 193 q 460 -15 626 -15 q 348 6 406 -15 q 244 61 290 28 l 203 0 l 88 0 l 88 965 l 315 981 m 551 342 q 518 459 551 408 q 410 510 485 510 q 363 502 390 510 q 315 483 336 494 l 315 213 q 367 183 338 194 q 424 172 397 172 q 522 228 493 172 q 551 342 551 285 z "},"c":{"ha":676,"x_min":47,"x_max":638,"o":"m 425 507 q 324 460 365 507 q 283 336 283 413 q 324 216 283 260 q 425 172 365 172 q 497 181 464 172 q 572 211 529 190 l 638 53 q 516 -3 582 10 q 408 -15 450 -15 q 146 78 244 -15 q 47 336 47 171 q 146 599 47 503 q 408 696 244 696 q 516 683 450 696 q 638 626 582 669 l 572 468 q 497 498 529 489 q 425 507 465 507 z "},"d":{"ha":840,"x_min":47,"x_max":753,"o":"m 424 172 q 473 181 444 172 q 524 201 501 189 l 524 465 q 468 497 500 485 q 410 510 436 510 q 312 453 340 510 q 283 340 283 397 q 316 223 283 274 q 424 172 349 172 m 753 981 l 753 0 l 636 0 l 590 68 q 498 10 556 36 q 365 -15 440 -15 q 128 85 208 -15 q 47 338 47 186 q 128 594 47 489 q 376 699 210 699 q 450 688 411 699 q 524 660 489 678 l 524 965 l 753 981 z "},"e":{"ha":764,"x_min":47,"x_max":719,"o":"m 401 696 q 641 591 563 696 q 719 344 719 486 l 719 268 l 294 268 q 348 195 308 219 q 446 171 388 171 q 533 180 490 171 q 619 210 576 189 l 683 53 q 549 -1 629 13 q 428 -15 469 -15 q 153 72 260 -15 q 47 336 47 160 q 148 599 47 503 q 401 696 249 696 m 396 510 q 327 483 354 510 q 290 410 300 457 l 501 410 q 471 479 496 449 q 396 510 446 510 z "},"f":{"ha":607,"x_min":21,"x_max":604,"o":"m 436 975 q 530 959 479 975 q 604 921 581 943 l 539 763 q 492 781 517 775 q 450 786 467 786 q 381 759 404 786 q 357 686 357 732 l 357 638 l 524 638 l 558 458 l 357 458 l 357 0 l 129 0 l 129 458 l 21 458 l 21 638 l 129 638 l 129 713 q 219 908 129 842 q 436 975 308 975 z "},"g":{"ha":840,"x_min":47,"x_max":751,"o":"m 282 340 q 315 222 282 272 q 422 172 347 172 q 473 181 444 172 q 524 201 501 189 l 524 464 q 468 497 500 483 q 410 510 436 510 q 310 453 339 510 q 282 340 282 397 m 751 672 l 751 -3 q 660 -219 751 -142 q 390 -297 568 -297 q 263 -279 347 -297 q 117 -219 178 -261 q 151 -140 133 -181 q 185 -60 168 -100 q 296 -102 251 -92 q 386 -112 340 -112 q 489 -85 454 -112 q 524 -6 524 -58 l 524 21 q 449 -5 489 6 q 364 -15 408 -15 q 127 85 207 -15 q 47 336 47 186 q 128 593 47 489 q 376 697 208 697 q 490 674 431 697 q 593 617 549 651 l 636 672 l 751 672 z "},"h":{"ha":849,"x_min":88,"x_max":775,"o":"m 514 697 q 715 617 654 697 q 775 418 775 538 l 775 0 l 547 0 l 547 411 q 521 484 547 458 q 451 510 494 510 q 384 494 422 510 q 315 461 346 479 l 315 0 l 88 0 l 88 965 l 315 981 l 315 644 q 413 683 358 668 q 514 697 467 697 z "},"i":{"ha":397,"x_min":74,"x_max":324,"o":"m 324 890 q 286 803 324 839 q 197 767 249 767 q 110 803 146 767 q 74 890 74 839 q 110 979 74 942 q 197 1017 146 1017 q 286 979 249 1017 q 324 890 324 942 m 313 674 l 313 0 l 83 0 l 83 674 l 313 674 z "},"j":{"ha":408,"x_min":-40,"x_max":332,"o":"m 82 892 q 118 980 82 943 q 206 1017 154 1017 q 295 980 258 1017 q 332 892 332 943 q 295 803 332 840 q 206 767 258 767 q 118 803 154 767 q 82 892 82 840 m 321 674 l 321 -3 q 256 -165 321 -107 q 50 -269 192 -224 l -40 -103 q 63 -44 33 -76 q 93 36 93 -11 l 93 674 l 321 674 z "},"k":{"ha":768,"x_min":88,"x_max":765,"o":"m 315 981 l 315 463 q 447 577 381 519 q 579 693 514 635 q 647 613 613 653 q 713 535 681 574 l 526 386 l 765 0 l 515 0 l 367 260 q 341 239 354 250 q 315 218 328 228 l 315 0 l 88 0 l 88 965 l 315 981 z "},"l":{"ha":403,"x_min":88,"x_max":315,"o":"m 315 981 l 315 0 l 88 0 l 88 965 l 315 981 z "},"m":{"ha":1261,"x_min":85,"x_max":1189,"o":"m 936 699 q 1129 618 1069 699 q 1189 418 1189 538 l 1189 0 l 960 0 l 960 413 q 937 485 960 460 q 875 510 914 510 q 810 494 846 510 q 744 460 775 479 q 747 439 746 450 q 747 418 747 428 l 747 0 l 518 0 l 518 413 q 495 485 518 460 q 433 510 472 510 q 375 497 407 510 q 313 467 343 483 l 313 0 l 85 0 l 85 672 l 200 672 l 250 614 q 358 672 293 644 q 496 699 422 699 q 614 675 565 699 q 693 613 663 651 q 800 672 735 644 q 936 699 865 699 z "},"n":{"ha":846,"x_min":85,"x_max":772,"o":"m 511 699 q 712 618 651 699 q 772 418 772 538 l 772 0 l 544 0 l 544 413 q 519 485 544 460 q 450 510 493 510 q 382 494 421 510 q 313 461 343 479 l 313 0 l 85 0 l 85 672 l 200 672 l 253 610 q 367 670 297 642 q 511 699 438 699 z "},"o":{"ha":838,"x_min":47,"x_max":790,"o":"m 418 696 q 688 601 586 696 q 790 333 790 507 q 682 76 790 167 q 411 -15 574 -15 q 149 75 250 -15 q 47 340 47 165 q 153 601 47 507 q 418 696 258 696 m 414 172 q 517 212 479 172 q 554 333 554 251 q 520 458 554 410 q 422 507 486 507 q 319 464 356 507 q 283 340 283 421 q 317 217 283 261 q 414 172 350 172 z "},"p":{"ha":835,"x_min":88,"x_max":786,"o":"m 551 342 q 518 459 551 408 q 410 510 485 510 q 359 501 383 510 q 315 482 335 493 l 315 213 q 367 183 338 194 q 424 172 397 172 q 522 228 493 172 q 551 342 551 285 m 88 672 l 201 672 l 243 617 q 351 676 293 656 q 468 697 410 697 q 706 597 626 697 q 786 344 786 496 q 706 89 786 193 q 460 -15 626 -15 q 388 -5 425 -15 q 315 21 350 6 l 315 -290 l 88 -304 l 88 672 z "},"q":{"ha":840,"x_min":47,"x_max":753,"o":"m 753 672 l 753 -289 l 524 -304 l 524 22 q 449 -5 490 6 q 365 -15 408 -15 q 128 85 208 -15 q 47 338 47 186 q 128 594 47 489 q 376 699 210 699 q 491 675 432 699 q 594 617 550 651 l 638 672 l 753 672 m 424 172 q 473 181 444 172 q 524 201 501 189 l 524 465 q 468 497 500 485 q 410 510 436 510 q 312 453 340 510 q 283 340 283 397 q 316 223 283 274 q 424 172 349 172 z "},"r":{"ha":531,"x_min":83,"x_max":519,"o":"m 474 674 l 519 490 q 415 472 471 490 q 313 414 360 453 l 313 0 l 83 0 l 83 672 l 199 672 l 260 593 q 360 649 301 624 q 474 674 418 674 z "},"s":{"ha":638,"x_min":47,"x_max":597,"o":"m 364 429 q 522 348 447 400 q 597 204 597 296 q 527 42 597 100 q 317 -15 457 -15 q 188 6 274 -15 q 47 69 103 26 l 113 228 q 209 190 156 207 q 299 172 263 172 q 347 183 331 172 q 364 206 364 193 q 347 233 364 221 q 292 258 331 246 q 133 336 208 286 q 57 476 57 386 q 133 638 57 579 q 343 696 210 696 q 459 676 385 696 q 589 614 533 657 l 524 456 q 437 492 481 478 q 354 507 393 507 q 308 497 322 507 q 293 475 293 488 q 308 453 293 463 q 364 429 322 443 z "},"t":{"ha":603,"x_min":13,"x_max":589,"o":"m 419 -19 q 202 46 293 -19 q 111 240 111 111 l 111 476 l 13 476 l 13 654 l 111 654 l 111 829 l 339 863 l 339 654 l 488 654 l 522 476 l 339 476 l 339 269 q 363 196 339 224 q 435 168 388 168 q 477 174 453 168 q 524 192 501 181 l 589 35 q 514 -3 565 13 q 419 -19 463 -19 z "},"u":{"ha":835,"x_min":72,"x_max":750,"o":"m 329 -26 q 131 54 189 -26 q 72 254 72 135 l 72 672 l 301 672 l 301 260 q 325 188 301 213 q 392 163 349 163 q 454 176 418 163 q 521 208 490 190 l 521 672 l 750 672 l 750 0 l 635 0 l 582 60 q 472 1 539 29 q 329 -26 404 -26 z "},"v":{"ha":758,"x_min":13,"x_max":746,"o":"m 271 0 l 13 649 l 239 674 l 381 283 l 515 674 l 746 674 l 481 0 l 271 0 z "},"w":{"ha":1144,"x_min":13,"x_max":1133,"o":"m 694 0 l 568 371 l 444 0 l 240 0 l 13 649 l 239 674 l 350 289 l 458 674 l 683 674 l 799 289 l 903 674 l 1133 674 l 899 0 l 694 0 z "},"x":{"ha":803,"x_min":11,"x_max":790,"o":"m 11 0 l 261 336 l 19 643 q 136 659 78 650 q 254 675 194 668 l 396 492 l 539 674 l 790 674 l 532 318 q 658 159 596 239 q 783 0 719 79 l 528 0 l 397 163 q 333 81 365 122 q 267 0 300 40 l 11 0 z "},"y":{"ha":758,"x_min":11,"x_max":746,"o":"m 246 -12 l 260 24 l 11 649 l 238 674 q 308 478 272 576 q 379 283 344 379 q 447 478 414 379 q 515 674 481 576 l 746 674 l 447 -82 q 330 -224 414 -164 q 150 -306 246 -283 l 72 -125 q 176 -76 121 -104 q 246 -12 232 -47 z "},"z":{"ha":654,"x_min":25,"x_max":622,"o":"m 600 546 q 460 363 531 454 q 319 181 390 271 l 601 181 l 622 0 l 53 0 q 40 59 47 29 q 25 118 32 89 l 307 492 l 78 492 l 51 674 l 589 674 q 590 668 589 671 q 590 663 590 665 q 596 604 593 633 q 600 546 599 575 z "},"ﬁ":{"ha":1006,"x_min":21,"x_max":931,"o":"m 436 975 q 530 959 479 975 q 604 921 581 943 l 539 763 q 492 781 517 775 q 450 786 467 786 q 381 759 404 786 q 357 686 357 732 l 357 638 l 524 638 l 558 458 l 357 458 l 357 0 l 129 0 l 129 458 l 21 458 l 21 638 l 129 638 l 129 713 q 219 908 129 842 q 436 975 308 975 m 931 890 q 893 803 931 839 q 804 767 856 767 q 717 803 753 767 q 681 890 681 839 q 717 979 681 942 q 804 1017 753 1017 q 893 979 856 1017 q 931 890 931 942 m 919 674 l 919 0 l 690 0 l 690 674 l 919 674 z "},"ﬂ":{"ha":1010,"x_min":21,"x_max":922,"o":"m 436 975 q 530 959 479 975 q 604 921 581 943 l 539 763 q 492 781 517 775 q 450 786 467 786 q 381 759 404 786 q 357 686 357 732 l 357 638 l 524 638 l 558 458 l 357 458 l 357 0 l 129 0 l 129 458 l 21 458 l 21 638 l 129 638 l 129 713 q 219 908 129 842 q 436 975 308 975 m 922 981 l 922 0 l 694 0 l 694 965 l 922 981 z "},"`":{"ha":357,"x_min":17,"x_max":342,"o":"m 17 1076 l 244 1076 l 342 817 l 167 817 l 17 1076 z "},"¨":{"ha":532,"x_min":17,"x_max":515,"o":"m 231 944 q 200 868 231 899 q 124 838 169 838 q 49 868 81 838 q 17 944 17 899 q 49 1019 17 988 q 124 1050 81 1050 q 200 1019 169 1050 q 231 944 231 988 m 515 944 q 484 868 515 899 q 407 838 453 838 q 332 868 364 838 q 300 944 300 899 q 332 1019 300 988 q 407 1050 364 1050 q 484 1019 453 1050 q 515 944 515 988 z "},"¯":{"ha":422,"x_min":17,"x_max":407,"o":"m 17 1031 l 407 1031 l 407 851 l 17 851 l 17 1031 z "},"´":{"ha":357,"x_min":17,"x_max":342,"o":"m 113 1076 l 342 1076 l 192 817 l 17 817 l 113 1076 z "},"ˆ":{"ha":628,"x_min":17,"x_max":611,"o":"m 238 817 l 17 817 l 249 1076 l 379 1076 l 611 817 l 396 817 l 317 904 l 238 817 z "},"ˇ":{"ha":628,"x_min":17,"x_max":611,"o":"m 17 1076 l 238 1076 l 317 989 l 396 1076 l 611 1076 l 379 817 l 249 817 l 17 1076 z "},"˘":{"ha":503,"x_min":17,"x_max":486,"o":"m 251 817 q 78 889 140 818 q 17 1068 17 960 l 176 1068 q 195 1008 176 1033 q 251 983 214 983 q 308 1008 289 983 q 326 1068 326 1033 l 486 1068 q 424 889 486 960 q 251 817 363 818 z "},"˙":{"ha":269,"x_min":17,"x_max":253,"o":"m 253 944 q 220 859 253 893 q 136 825 188 825 q 51 859 86 825 q 17 944 17 893 q 51 1028 17 993 q 136 1063 86 1063 q 220 1028 188 1063 q 253 944 253 993 z "},"˚":{"ha":342,"x_min":7,"x_max":335,"o":"m 335 976 q 285 867 335 910 q 171 825 235 825 q 56 867 104 825 q 7 976 7 910 q 56 1087 7 1042 q 171 1132 104 1132 q 285 1087 235 1132 q 335 976 335 1042 m 217 976 q 203 1008 217 994 q 172 1021 190 1021 q 140 1008 154 1021 q 126 976 126 994 q 140 944 126 958 q 172 931 154 931 q 203 944 190 931 q 217 976 217 958 z "},"˜":{"ha":528,"x_min":17,"x_max":511,"o":"m 174 833 l 17 833 q 69 992 17 947 q 185 1036 122 1036 q 263 1013 229 1036 q 329 989 296 989 q 351 1003 342 989 q 361 1031 361 1017 l 511 1031 q 460 871 511 915 q 349 826 410 826 q 271 851 303 826 q 207 875 239 875 q 183 860 193 875 q 174 833 174 846 z "},"˝":{"ha":632,"x_min":17,"x_max":617,"o":"m 401 1076 l 617 1076 l 467 817 l 306 817 l 401 1076 m 113 1076 l 326 1076 l 178 817 l 17 817 l 113 1076 z "},"˛":{"ha":385,"x_min":17,"x_max":368,"o":"m 57 7 l 244 7 q 211 -48 228 -11 q 194 -111 194 -85 q 205 -141 194 -128 q 235 -154 215 -154 q 261 -149 246 -154 q 294 -128 276 -143 l 368 -260 q 299 -302 342 -286 q 207 -318 257 -318 q 66 -260 115 -318 q 17 -129 17 -203 q 29 -60 17 -103 q 57 7 42 -18 z "},"¸":{"ha":374,"x_min":17,"x_max":357,"o":"m 129 18 l 288 18 l 261 -50 q 333 -108 310 -67 q 357 -186 357 -150 q 299 -304 357 -264 q 168 -344 240 -344 q 90 -331 132 -344 q 17 -293 47 -317 l 65 -179 q 105 -194 81 -186 q 147 -203 129 -203 q 178 -197 165 -203 q 192 -178 192 -192 q 160 -143 192 -158 q 72 -122 129 -128 l 129 18 z "},"":{"ha":278,"x_min":15,"x_max":261,"o":"m 261 -169 q 203 -323 261 -250 q 63 -429 146 -396 l 15 -328 q 58 -297 35 -318 q 88 -254 81 -276 q 42 -215 63 -244 q 22 -149 22 -185 q 56 -67 22 -106 q 142 -29 90 -29 q 226 -68 190 -29 q 261 -169 261 -107 z "},"Þ":{"ha":897,"x_min":103,"x_max":850,"o":"m 331 944 l 331 800 l 465 800 q 736 721 622 800 q 850 474 850 642 q 727 228 850 307 q 454 149 604 149 l 331 149 l 331 0 l 103 0 l 103 944 l 331 944 m 458 619 l 331 619 l 331 331 l 461 331 q 570 368 528 331 q 613 469 613 406 q 572 580 613 540 q 458 619 531 619 z "},"Ð":{"ha":1001,"x_min":8,"x_max":946,"o":"m 500 0 l 114 0 l 114 385 l 29 385 q 19 474 24 429 q 8 563 14 518 l 114 563 l 114 944 l 500 944 q 834 813 722 944 q 946 478 946 682 q 824 129 946 258 q 500 0 703 0 m 493 385 l 342 385 l 342 182 l 489 182 q 648 253 585 182 q 711 478 711 325 q 657 683 711 604 q 497 761 603 761 l 342 761 l 342 563 l 472 563 l 493 385 z "},"Æ":{"ha":1360,"x_min":8,"x_max":1331,"o":"m 489 372 l 649 372 l 649 603 q 569 488 610 544 q 489 372 529 431 m 8 29 l 643 944 l 1256 944 l 1281 764 l 878 764 l 878 564 l 1156 564 l 1181 385 l 878 385 l 878 178 l 1306 178 l 1331 0 l 649 0 l 649 192 l 364 192 l 228 -1 q 118 13 174 6 q 8 29 63 21 z "},"Đ":{"ha":1001,"x_min":8,"x_max":946,"o":"m 500 0 l 114 0 l 114 385 l 29 385 q 19 474 24 429 q 8 563 14 518 l 114 563 l 114 944 l 500 944 q 834 813 722 944 q 946 478 946 682 q 824 129 946 258 q 500 0 703 0 m 493 385 l 342 385 l 342 182 l 489 182 q 648 253 585 182 q 711 478 711 325 q 657 683 711 604 q 497 761 603 761 l 342 761 l 342 563 l 472 563 l 493 385 z "},"Ł":{"ha":822,"x_min":3,"x_max":807,"o":"m 807 0 l 149 0 l 149 283 q 119 264 135 274 q 90 246 104 254 l 3 410 q 75 458 39 433 q 149 506 111 482 l 149 944 l 376 944 l 376 654 l 513 743 l 603 579 q 490 505 547 542 q 376 432 432 468 l 376 178 l 783 178 l 807 0 z "},"Œ":{"ha":1424,"x_min":63,"x_max":1394,"o":"m 531 774 q 369 694 439 774 q 299 469 299 614 q 359 252 299 335 q 519 169 419 169 q 622 183 572 169 q 714 219 671 196 l 714 733 q 628 762 667 750 q 531 774 590 774 m 1394 0 l 714 0 l 714 13 q 615 -10 667 -1 q 518 -18 564 -18 q 177 119 292 -18 q 63 468 63 257 q 185 824 63 686 q 518 963 308 963 q 613 953 561 963 q 714 925 664 943 l 714 944 l 1319 944 l 1344 764 l 942 764 l 942 564 l 1219 564 l 1244 385 l 942 385 l 942 178 l 1369 178 l 1394 0 z "},"Ø":{"ha":1031,"x_min":64,"x_max":968,"o":"m 515 965 q 855 823 742 965 q 968 478 968 681 q 849 119 968 258 q 515 -19 729 -19 q 177 123 290 -19 q 64 468 64 265 q 185 825 64 686 q 515 965 306 964 m 299 469 q 309 358 299 410 q 342 269 319 307 l 550 771 q 534 773 542 772 q 518 774 526 774 q 358 690 418 774 q 299 469 299 607 m 514 171 q 674 247 617 171 q 732 478 732 324 q 724 577 732 531 q 697 660 715 624 l 492 172 q 502 172 494 172 q 514 171 510 171 z "},"ß":{"ha":904,"x_min":88,"x_max":861,"o":"m 440 975 q 691 906 585 975 q 797 701 797 836 q 774 596 797 651 q 707 510 750 540 q 815 421 768 488 q 861 275 861 354 q 768 74 861 149 q 525 0 675 0 l 392 0 l 392 188 l 506 188 q 590 215 554 188 q 626 290 626 243 q 593 373 626 343 q 517 403 560 403 l 400 403 l 400 572 l 440 572 q 533 606 499 572 q 567 681 567 640 q 535 753 567 724 q 449 782 504 782 q 357 746 399 782 q 315 642 315 710 l 315 0 l 88 0 l 88 656 q 182 886 88 797 q 440 975 276 975 z "},"ð":{"ha":829,"x_min":42,"x_max":768,"o":"m 603 849 l 553 810 q 708 606 649 722 q 768 369 768 489 q 654 79 768 176 q 374 -18 540 -18 q 133 76 224 -18 q 42 292 42 171 q 134 490 42 408 q 367 572 226 572 q 431 559 396 572 q 501 528 467 546 q 450 608 481 569 q 383 679 419 647 l 265 588 l 158 710 l 242 775 q 190 798 215 789 q 143 813 165 807 l 250 969 q 333 944 292 960 q 414 907 375 929 l 501 975 l 603 849 m 381 167 q 483 208 442 167 q 536 326 525 250 q 476 385 514 358 q 392 411 438 411 q 301 374 332 411 q 269 286 269 336 q 299 205 269 243 q 381 167 328 167 z "},"þ":{"ha":835,"x_min":88,"x_max":786,"o":"m 551 342 q 518 459 551 408 q 410 510 485 510 q 359 501 383 510 q 315 482 335 493 l 315 213 q 367 183 338 194 q 424 172 397 172 q 522 228 493 172 q 551 342 551 285 m 315 961 l 315 660 q 390 688 351 678 q 468 697 429 697 q 706 597 626 697 q 786 344 786 496 q 706 89 786 193 q 460 -15 626 -15 q 388 -5 425 -15 q 315 21 350 6 l 315 -290 l 88 -304 l 88 951 l 315 961 z "},"ƒ":{"ha":607,"x_min":-118,"x_max":606,"o":"m 51 -171 q -43 -155 8 -171 q -118 -117 -94 -139 l -53 40 q -6 23 -31 29 q 38 17 19 17 q 107 44 83 17 q 131 117 131 72 l 131 458 l 21 458 l 21 638 l 131 638 l 131 714 q 220 910 131 843 q 436 976 310 976 q 531 960 479 976 q 606 922 582 943 l 540 764 q 493 781 518 775 q 450 788 468 788 q 381 760 404 788 q 358 686 358 732 l 358 638 l 525 638 l 560 458 l 358 458 l 358 90 q 269 -104 358 -37 q 51 -171 179 -171 z "},"æ":{"ha":1135,"x_min":50,"x_max":1089,"o":"m 50 208 q 122 368 50 317 q 311 419 194 419 l 410 419 q 384 476 403 449 q 314 503 365 503 q 225 490 275 503 q 136 461 175 478 l 76 632 q 204 676 124 657 q 354 694 285 694 q 467 676 415 694 q 553 628 518 658 q 651 677 596 660 q 771 694 707 694 q 1010 590 932 694 q 1089 343 1089 486 l 1089 267 l 664 267 q 717 194 678 218 q 815 169 756 169 q 903 179 861 169 q 989 210 946 189 q 1021 131 1004 171 q 1054 53 1038 92 q 919 -1 999 14 q 797 -15 839 -15 q 638 8 710 -15 q 515 78 565 31 q 427 14 483 43 q 299 -15 371 -15 q 112 47 174 -15 q 50 208 50 108 m 765 508 q 697 482 725 508 q 658 408 668 456 l 871 408 q 840 478 865 447 q 765 508 815 508 m 301 167 q 373 185 342 167 q 429 229 404 203 q 424 252 426 240 q 419 278 421 264 l 313 278 q 260 260 279 278 q 242 215 242 242 q 259 181 242 194 q 301 167 276 167 z "},"đ":{"ha":840,"x_min":47,"x_max":839,"o":"m 282 340 q 315 222 282 272 q 422 172 347 172 q 473 181 444 172 q 524 201 501 189 l 524 464 q 468 497 500 483 q 410 510 436 510 q 310 453 339 510 q 282 340 282 397 m 839 743 l 751 743 l 751 0 l 635 0 l 589 67 q 497 10 554 36 q 364 -15 439 -15 q 127 85 207 -15 q 47 336 47 186 q 128 593 47 489 q 376 697 208 697 q 450 688 411 697 q 524 660 489 678 l 524 743 l 408 743 l 388 890 l 524 890 l 524 965 l 751 981 l 751 890 l 818 890 q 828 817 824 854 q 839 743 833 781 z "},"œ":{"ha":1244,"x_min":47,"x_max":1199,"o":"m 882 696 q 1120 591 1042 696 q 1199 344 1199 486 l 1199 268 l 774 268 q 828 195 789 219 q 925 171 867 171 q 1013 180 971 171 q 1099 210 1056 189 l 1164 53 q 1029 -1 1108 13 q 907 -15 950 -15 q 767 2 832 -15 q 654 54 703 19 q 546 2 606 19 q 418 -15 486 -15 q 149 78 250 -15 q 47 336 47 171 q 149 599 47 503 q 418 694 250 694 q 548 676 489 694 q 654 624 607 658 q 758 677 700 658 q 882 696 815 696 m 876 510 q 806 483 833 510 q 769 410 779 457 l 981 410 q 950 479 975 449 q 876 510 925 510 m 436 507 q 326 460 369 507 q 283 336 283 413 q 326 216 283 260 q 436 172 369 172 q 493 177 467 172 q 550 196 519 182 q 533 262 539 226 q 528 336 528 297 q 534 413 528 376 q 551 482 540 450 q 494 501 521 494 q 436 507 468 507 z "},"ĺ":{"ha":403,"x_min":88,"x_max":428,"o":"m 203 1249 l 428 1249 l 283 1013 l 113 1013 q 158 1131 135 1072 q 203 1249 181 1189 m 315 969 l 315 0 l 88 0 l 88 954 l 315 969 z "},"ł":{"ha":479,"x_min":-24,"x_max":503,"o":"m 503 572 l 350 463 l 350 0 l 122 0 l 122 300 l 36 240 q 7 335 22 288 q -24 429 -8 382 q 49 481 13 456 q 122 533 85 507 l 122 965 l 350 981 l 350 696 q 395 728 372 711 q 440 761 418 744 l 503 572 z "},"ı":{"ha":397,"x_min":83,"x_max":313,"o":"m 313 674 l 313 0 l 83 0 l 83 674 l 313 674 z "},"ø":{"ha":838,"x_min":47,"x_max":790,"o":"m 47 339 q 152 600 47 506 q 418 694 257 694 q 688 600 585 694 q 790 332 790 506 q 682 75 790 165 q 410 -15 574 -15 q 148 75 249 -15 q 47 339 47 165 m 421 513 q 315 466 356 513 q 275 340 275 419 q 278 299 275 318 q 286 264 281 281 q 356 388 321 326 q 426 513 392 450 l 421 513 m 561 332 q 558 371 561 351 q 550 407 556 390 l 411 167 q 519 209 476 167 q 561 332 561 251 z "},"ģ":{"ha":840,"x_min":47,"x_max":751,"o":"m 283 892 q 341 1044 283 971 q 482 1151 399 1117 l 528 1049 q 486 1018 510 1039 q 456 975 463 997 q 501 935 481 965 q 522 869 522 906 q 488 788 522 826 q 403 750 453 750 q 318 789 353 750 q 283 892 283 828 m 282 340 q 315 222 282 272 q 422 172 347 172 q 473 181 444 172 q 524 201 501 189 l 524 464 q 468 497 500 483 q 410 510 436 510 q 310 453 339 510 q 282 340 282 397 m 751 672 l 751 -3 q 660 -219 751 -142 q 390 -297 568 -297 q 263 -279 347 -297 q 117 -219 178 -261 q 151 -140 133 -181 q 185 -60 168 -100 q 296 -103 251 -92 q 386 -114 340 -114 q 489 -86 454 -114 q 524 -6 524 -58 l 524 21 q 449 -5 489 6 q 364 -15 408 -15 q 127 85 207 -15 q 47 336 47 186 q 128 593 47 489 q 376 697 208 697 q 490 674 431 697 q 593 617 549 651 l 636 672 l 751 672 z "},"À":{"ha":960,"x_min":13,"x_max":947,"o":"m 265 1281 l 489 1281 l 583 1025 l 411 1025 l 265 1281 m 476 661 l 375 379 l 582 379 l 476 661 m 590 944 l 947 25 l 722 0 l 649 199 l 311 199 l 239 0 l 13 0 l 371 944 l 590 944 z "},"Á":{"ha":960,"x_min":13,"x_max":947,"o":"m 463 1281 l 686 1281 l 540 1025 l 368 1025 l 463 1281 m 476 661 l 375 379 l 582 379 l 476 661 m 590 944 l 947 25 l 722 0 l 649 199 l 311 199 l 239 0 l 13 0 l 371 944 l 590 944 z "},"Â":{"ha":960,"x_min":13,"x_max":947,"o":"m 390 1026 l 169 1026 l 401 1286 l 532 1286 l 764 1026 l 549 1026 l 469 1114 l 390 1026 m 476 661 l 375 379 l 582 379 l 476 661 m 590 944 l 947 25 l 722 0 l 649 199 l 311 199 l 239 0 l 13 0 l 371 944 l 590 944 z "},"Ã":{"ha":960,"x_min":13,"x_max":947,"o":"m 381 1042 l 225 1042 q 278 1200 225 1156 q 392 1244 331 1244 q 470 1221 438 1244 q 536 1197 503 1197 q 560 1211 550 1197 q 569 1239 569 1225 l 719 1239 q 669 1079 719 1124 q 556 1035 618 1035 q 479 1059 511 1035 q 414 1083 447 1083 q 391 1069 401 1083 q 381 1042 381 1054 m 476 661 l 375 379 l 582 379 l 476 661 m 590 944 l 947 25 l 722 0 l 649 199 l 311 199 l 239 0 l 13 0 l 371 944 l 590 944 z "},"Ä":{"ha":960,"x_min":13,"x_max":947,"o":"m 439 1153 q 408 1076 439 1107 q 333 1046 378 1046 q 258 1076 290 1046 q 225 1153 225 1107 q 258 1227 225 1196 q 333 1258 290 1258 q 408 1227 378 1258 q 439 1153 439 1196 m 724 1153 q 693 1076 724 1107 q 615 1046 663 1046 q 541 1076 572 1046 q 510 1153 510 1107 q 541 1227 510 1196 q 615 1258 572 1258 q 693 1227 663 1258 q 724 1153 724 1196 m 476 661 l 375 379 l 582 379 l 476 661 m 590 944 l 947 25 l 722 0 l 649 199 l 311 199 l 239 0 l 13 0 l 371 944 l 590 944 z "},"Å":{"ha":960,"x_min":13,"x_max":947,"o":"m 639 1185 q 590 1076 639 1118 q 475 1033 540 1033 q 361 1076 410 1033 q 313 1185 313 1118 q 361 1295 313 1250 q 475 1340 410 1340 q 590 1295 540 1340 q 639 1185 639 1250 m 522 1185 q 509 1216 522 1203 q 478 1229 496 1229 q 445 1216 460 1229 q 431 1185 431 1203 q 445 1153 431 1167 q 478 1139 460 1139 q 509 1153 496 1139 q 522 1185 522 1167 m 476 661 l 375 379 l 582 379 l 476 661 m 590 944 l 947 25 l 722 0 l 649 199 l 311 199 l 239 0 l 13 0 l 371 944 l 590 944 z "},"Ă":{"ha":960,"x_min":13,"x_max":947,"o":"m 476 1026 q 303 1098 365 1028 q 242 1276 242 1168 l 401 1276 q 420 1217 401 1242 q 476 1192 439 1192 q 533 1217 514 1192 q 551 1276 551 1242 l 711 1276 q 649 1098 711 1168 q 476 1026 588 1028 m 476 661 l 375 379 l 582 379 l 476 661 m 590 944 l 947 25 l 722 0 l 649 199 l 311 199 l 239 0 l 13 0 l 371 944 l 590 944 z "},"Ą":{"ha":960,"x_min":11,"x_max":1026,"o":"m 719 1 l 647 197 l 310 197 l 239 0 l 11 0 l 371 944 l 589 944 l 946 24 q 887 -38 921 7 q 853 -111 853 -83 q 863 -141 853 -128 q 894 -154 874 -154 q 921 -148 906 -154 q 954 -128 936 -142 q 990 -192 972 -160 q 1026 -258 1008 -225 q 958 -301 1000 -285 q 867 -317 915 -317 q 725 -259 775 -317 q 675 -129 675 -201 q 686 -60 675 -99 q 719 1 697 -21 m 475 660 q 425 519 450 589 q 374 378 400 449 l 581 378 q 528 519 554 449 q 475 660 501 589 z "},"Ā":{"ha":960,"x_min":13,"x_max":947,"o":"m 279 1239 l 668 1239 l 668 1060 l 279 1060 l 279 1239 m 476 661 l 375 379 l 582 379 l 476 661 m 590 944 l 947 25 l 722 0 l 649 199 l 311 199 l 239 0 l 13 0 l 371 944 l 590 944 z "},"Ç":{"ha":836,"x_min":64,"x_max":788,"o":"m 511 775 q 358 692 417 775 q 300 469 300 608 q 356 253 300 336 q 513 169 413 169 q 615 183 568 169 q 701 218 663 197 l 788 49 q 693 9 747 25 q 586 -14 639 -7 l 572 -50 q 644 -108 621 -67 q 668 -186 668 -150 q 610 -304 668 -264 q 479 -344 551 -344 q 401 -331 443 -344 q 328 -293 358 -317 l 376 -179 q 416 -194 392 -186 q 458 -203 440 -203 q 490 -197 476 -203 q 503 -178 503 -192 q 472 -143 503 -158 q 383 -122 440 -128 l 426 -12 q 153 145 243 13 q 64 468 64 278 q 183 824 64 686 q 511 963 301 963 q 647 944 571 963 q 779 890 722 926 l 711 735 q 601 766 640 757 q 511 775 563 775 z "},"Ć":{"ha":836,"x_min":64,"x_max":788,"o":"m 454 1281 l 678 1281 l 531 1025 l 360 1025 l 454 1281 m 511 775 q 358 692 417 775 q 300 469 300 608 q 356 253 300 336 q 513 169 413 169 q 615 183 568 169 q 701 218 663 197 l 788 49 q 657 -1 733 17 q 513 -18 581 -18 q 175 119 286 -18 q 64 468 64 257 q 183 824 64 686 q 511 963 301 963 q 647 944 571 963 q 779 890 722 926 l 711 735 q 601 766 640 757 q 511 775 563 775 z "},"Č":{"ha":836,"x_min":64,"x_max":806,"o":"m 211 1286 l 432 1286 l 513 1199 l 590 1286 l 806 1286 l 574 1026 l 443 1026 l 211 1286 m 511 775 q 358 692 417 775 q 300 469 300 608 q 356 253 300 336 q 513 169 413 169 q 615 183 568 169 q 701 218 663 197 l 788 49 q 657 -1 733 17 q 513 -18 581 -18 q 175 119 286 -18 q 64 468 64 257 q 183 824 64 686 q 511 963 301 963 q 647 944 571 963 q 779 890 722 926 l 711 735 q 601 766 640 757 q 511 775 563 775 z "},"Ď":{"ha":992,"x_min":103,"x_max":936,"o":"m 157 1286 l 378 1286 q 417 1242 397 1264 q 458 1199 438 1221 q 497 1242 476 1221 q 538 1286 518 1264 l 751 1286 q 636 1156 694 1221 q 521 1026 578 1090 l 389 1026 l 157 1286 m 490 0 l 103 0 l 103 944 l 490 944 q 824 813 711 944 q 936 478 936 682 q 814 129 936 258 q 490 0 692 0 m 488 761 l 331 761 l 331 182 l 478 182 q 638 253 575 182 q 700 478 700 325 q 647 683 700 604 q 488 761 593 761 z "},"È":{"ha":813,"x_min":103,"x_max":785,"o":"m 236 1281 l 460 1281 q 508 1153 483 1217 q 554 1025 532 1089 l 383 1025 l 236 1281 m 785 0 l 103 0 l 103 944 l 708 944 l 733 764 l 331 764 l 331 564 l 608 564 l 633 385 l 331 385 l 331 178 l 758 178 q 772 89 765 133 q 785 0 778 44 z "},"É":{"ha":813,"x_min":103,"x_max":785,"o":"m 411 1281 l 635 1281 l 488 1025 l 317 1025 q 363 1153 339 1089 q 411 1281 388 1217 m 785 0 l 103 0 l 103 944 l 708 944 l 733 764 l 331 764 l 331 564 l 608 564 l 633 385 l 331 385 l 331 178 l 758 178 q 772 89 765 133 q 785 0 778 44 z "},"Ê":{"ha":813,"x_min":103,"x_max":785,"o":"m 335 1026 l 115 1026 q 231 1156 172 1090 q 346 1286 289 1221 l 478 1286 l 710 1026 l 494 1026 q 455 1070 475 1049 q 415 1114 435 1092 q 376 1070 396 1092 q 335 1026 356 1049 m 785 0 l 103 0 l 103 944 l 708 944 l 733 764 l 331 764 l 331 564 l 608 564 l 633 385 l 331 385 l 331 178 l 758 178 q 772 89 765 133 q 785 0 778 44 z "},"Ë":{"ha":813,"x_min":104,"x_max":785,"o":"m 383 1153 q 353 1076 383 1107 q 276 1046 322 1046 q 201 1076 233 1046 q 168 1153 168 1107 q 201 1227 168 1196 q 276 1258 233 1258 q 353 1227 322 1258 q 383 1153 383 1196 m 667 1153 q 636 1076 667 1107 q 560 1046 606 1046 q 485 1076 517 1046 q 453 1153 453 1107 q 485 1227 453 1196 q 560 1258 517 1258 q 636 1227 606 1258 q 667 1153 667 1196 m 785 0 l 104 0 l 104 944 l 708 944 l 733 765 l 332 765 l 332 565 l 610 565 l 635 385 l 332 385 l 332 179 l 760 179 l 785 0 z "},"Ē":{"ha":813,"x_min":104,"x_max":785,"o":"m 217 1239 l 606 1239 l 606 1060 l 217 1060 l 217 1239 m 785 0 l 104 0 l 104 944 l 708 944 l 733 765 l 332 765 l 332 565 l 610 565 l 635 385 l 332 385 l 332 179 l 760 179 l 785 0 z "},"Ė":{"ha":813,"x_min":103,"x_max":785,"o":"m 536 1151 q 503 1067 536 1100 q 419 1033 471 1033 q 335 1067 369 1033 q 300 1151 300 1100 q 335 1236 300 1201 q 419 1271 369 1271 q 503 1236 471 1271 q 536 1151 536 1201 m 785 0 l 103 0 l 103 944 l 708 944 l 733 764 l 331 764 l 331 564 l 608 564 l 633 385 l 331 385 l 331 178 l 758 178 q 772 89 765 133 q 785 0 778 44 z "},"Ę":{"ha":813,"x_min":103,"x_max":799,"o":"m 785 0 l 668 0 q 638 -52 653 -19 q 624 -111 624 -85 q 635 -141 624 -128 q 665 -154 646 -154 q 692 -148 676 -154 q 725 -128 707 -142 l 799 -258 q 730 -301 772 -285 q 638 -317 688 -317 q 497 -259 546 -317 q 447 -129 447 -201 q 458 -64 447 -103 q 483 0 469 -25 l 103 0 l 103 944 l 708 944 l 733 764 l 331 764 l 331 564 l 608 564 l 633 385 l 331 385 l 331 178 l 758 178 q 772 89 765 133 q 785 0 778 44 z "},"Ě":{"ha":813,"x_min":103,"x_max":785,"o":"m 111 1286 l 332 1286 q 372 1242 351 1264 q 411 1199 392 1221 q 451 1242 431 1221 q 490 1286 472 1264 l 706 1286 l 474 1026 l 343 1026 l 111 1286 m 785 0 l 103 0 l 103 944 l 708 944 l 733 764 l 331 764 l 331 564 l 608 564 l 633 385 l 331 385 l 331 178 l 758 178 q 772 89 765 133 q 785 0 778 44 z "},"Ğ":{"ha":929,"x_min":64,"x_max":842,"o":"m 551 1026 q 378 1098 440 1028 q 317 1276 317 1168 l 476 1276 q 495 1217 476 1242 q 551 1192 514 1192 q 607 1217 588 1192 q 626 1276 626 1242 l 785 1276 q 724 1098 785 1168 q 551 1026 663 1028 m 544 775 q 372 699 444 775 q 300 469 300 622 q 365 243 300 317 q 532 169 431 169 q 586 172 560 169 q 636 181 613 175 l 636 365 l 463 365 l 453 535 l 842 535 l 842 51 q 696 1 786 19 q 528 -18 606 -18 q 183 115 301 -18 q 64 468 64 247 q 197 828 64 694 q 542 963 329 963 q 688 944 601 963 q 831 890 774 926 l 763 735 q 644 766 692 757 q 544 775 596 775 z "},"Ì":{"ha":435,"x_min":18,"x_max":336,"o":"m 18 1281 l 243 1281 q 290 1153 265 1217 q 336 1025 314 1089 l 165 1025 l 18 1281 m 331 944 l 331 0 l 103 0 l 103 944 l 331 944 z "},"Í":{"ha":435,"x_min":99,"x_max":417,"o":"m 193 1281 l 417 1281 l 271 1025 l 99 1025 q 147 1153 122 1089 q 193 1281 171 1217 m 331 944 l 331 0 l 103 0 l 103 944 l 331 944 z "},"Î":{"ha":435,"x_min":-76,"x_max":515,"o":"m 142 1026 l -76 1026 l 153 1286 l 285 1286 l 515 1026 l 301 1026 q 262 1070 282 1049 q 222 1114 242 1092 q 183 1070 203 1092 q 142 1026 163 1049 m 331 944 l 331 0 l 103 0 l 103 944 l 331 944 z "},"Ï":{"ha":435,"x_min":-36,"x_max":461,"o":"m 176 1151 q 146 1076 176 1107 q 71 1046 115 1046 q -4 1076 28 1046 q -36 1151 -36 1107 q -4 1227 -36 1196 q 71 1258 28 1258 q 146 1227 115 1258 q 176 1151 176 1196 m 461 1151 q 431 1076 461 1107 q 353 1046 400 1046 q 278 1076 310 1046 q 247 1151 247 1107 q 278 1227 247 1196 q 353 1258 310 1258 q 431 1227 400 1258 q 461 1151 461 1196 m 331 944 l 331 0 l 103 0 l 103 944 l 331 944 z "},"Ī":{"ha":435,"x_min":21,"x_max":411,"o":"m 21 1239 l 411 1239 l 411 1060 l 21 1060 l 21 1239 m 331 944 l 331 0 l 103 0 l 103 944 l 331 944 z "},"Į":{"ha":435,"x_min":69,"x_max":421,"o":"m 331 944 l 331 0 q 274 -47 303 -15 q 246 -111 246 -79 q 256 -141 246 -128 q 288 -154 267 -154 q 314 -148 299 -154 q 347 -128 329 -142 l 421 -258 q 351 -301 393 -285 q 260 -317 310 -317 q 119 -259 168 -317 q 69 -129 69 -201 q 79 -62 69 -97 q 103 0 89 -28 l 103 944 l 331 944 z "},"İ":{"ha":435,"x_min":86,"x_max":331,"o":"m 322 1151 q 290 1067 322 1100 q 206 1033 257 1033 q 122 1067 157 1033 q 86 1151 86 1100 q 122 1236 86 1201 q 206 1271 157 1271 q 290 1236 257 1271 q 322 1151 322 1201 m 331 944 l 331 0 l 103 0 l 103 944 l 331 944 z "},"Ĺ":{"ha":776,"x_min":103,"x_max":763,"o":"m 219 1281 l 443 1281 l 296 1025 l 125 1025 q 172 1153 147 1089 q 219 1281 196 1217 m 763 0 l 103 0 l 103 944 l 331 944 l 331 178 l 738 178 l 763 0 z "},"Ľ":{"ha":776,"x_min":104,"x_max":763,"o":"m 719 892 q 660 732 719 811 q 514 614 601 653 l 468 717 q 517 758 493 735 q 547 807 540 781 q 501 847 522 817 q 481 913 481 876 q 515 994 481 956 q 600 1032 549 1032 q 685 993 650 1032 q 719 892 719 954 m 763 0 l 104 0 l 104 944 l 332 944 l 332 179 l 738 179 l 763 0 z "},"Ñ":{"ha":1040,"x_min":103,"x_max":936,"o":"m 425 1042 l 268 1042 q 321 1200 268 1156 q 436 1244 374 1244 q 514 1221 481 1244 q 581 1197 547 1197 q 603 1210 593 1197 q 613 1238 613 1224 l 763 1238 q 712 1078 763 1122 q 600 1035 661 1035 q 522 1058 554 1035 q 458 1082 490 1082 q 435 1068 444 1082 q 425 1042 425 1054 m 936 944 l 936 0 l 719 0 q 524 275 622 135 q 331 550 426 415 l 331 0 l 103 0 l 103 944 l 319 944 l 708 385 l 708 944 l 936 944 z "},"Ń":{"ha":1040,"x_min":103,"x_max":936,"o":"m 500 1281 l 724 1281 q 651 1153 688 1217 q 576 1025 614 1089 l 406 1025 l 500 1281 m 936 944 l 936 0 l 719 0 q 524 275 622 135 q 331 550 426 415 l 331 0 l 103 0 l 103 944 l 319 944 l 708 383 l 708 944 l 936 944 z "},"Ň":{"ha":1040,"x_min":103,"x_max":936,"o":"m 224 1286 l 443 1286 l 524 1199 q 563 1242 543 1221 q 603 1286 583 1264 l 818 1286 l 586 1026 l 454 1026 q 339 1156 397 1090 q 224 1286 281 1221 m 936 944 l 936 0 l 719 0 q 524 275 622 135 q 331 550 426 415 l 331 0 l 103 0 l 103 944 l 319 944 l 708 383 l 708 944 l 936 944 z "},"Ò":{"ha":1031,"x_min":64,"x_max":968,"o":"m 313 1281 l 536 1281 l 631 1025 l 458 1025 l 313 1281 m 515 965 q 855 823 742 965 q 968 478 968 681 q 849 119 968 258 q 515 -19 729 -19 q 177 123 290 -19 q 64 468 64 265 q 185 825 64 686 q 515 965 306 964 m 514 171 q 674 247 617 171 q 732 478 732 324 q 681 690 732 607 q 518 774 631 774 q 358 690 418 774 q 299 469 299 607 q 349 256 299 340 q 514 171 400 171 z "},"Ó":{"ha":1031,"x_min":64,"x_max":968,"o":"m 501 1281 l 725 1281 l 578 1025 l 407 1025 l 501 1281 m 515 965 q 855 823 742 965 q 968 478 968 681 q 849 119 968 258 q 515 -19 729 -19 q 177 123 290 -19 q 64 468 64 265 q 185 825 64 686 q 515 965 306 964 m 514 171 q 674 247 617 171 q 732 478 732 324 q 681 690 732 607 q 518 774 631 774 q 358 690 418 774 q 299 469 299 607 q 349 256 299 340 q 514 171 400 171 z "},"Ô":{"ha":1031,"x_min":64,"x_max":968,"o":"m 436 1026 l 215 1026 l 446 1286 l 578 1286 l 810 1026 l 594 1026 l 515 1114 l 436 1026 m 515 965 q 855 823 742 965 q 968 478 968 681 q 849 119 968 258 q 515 -19 729 -19 q 177 123 290 -19 q 64 468 64 265 q 185 825 64 686 q 515 965 306 964 m 514 171 q 674 247 617 171 q 732 478 732 324 q 681 690 732 607 q 518 774 631 774 q 358 690 418 774 q 299 469 299 607 q 349 256 299 340 q 514 171 400 171 z "},"Õ":{"ha":1031,"x_min":64,"x_max":968,"o":"m 422 1042 l 265 1042 q 318 1200 265 1156 q 433 1244 371 1244 q 511 1221 478 1244 q 578 1197 544 1197 q 600 1211 590 1197 q 610 1239 610 1225 l 760 1239 q 709 1079 760 1124 q 597 1035 658 1035 q 519 1059 551 1035 q 456 1083 488 1083 q 433 1069 443 1083 q 422 1042 422 1054 m 515 965 q 855 823 742 965 q 968 478 968 681 q 849 119 968 258 q 515 -19 729 -19 q 177 123 290 -19 q 64 468 64 265 q 185 825 64 686 q 515 965 306 964 m 514 171 q 674 247 617 171 q 732 478 732 324 q 681 690 732 607 q 518 774 631 774 q 358 690 418 774 q 299 469 299 607 q 349 256 299 340 q 514 171 400 171 z "},"Ö":{"ha":1031,"x_min":64,"x_max":968,"o":"m 479 1153 q 449 1076 479 1107 q 372 1046 418 1046 q 297 1076 329 1046 q 265 1153 265 1107 q 297 1227 265 1196 q 372 1258 329 1258 q 449 1227 418 1258 q 479 1153 479 1196 m 764 1153 q 733 1076 764 1107 q 656 1046 703 1046 q 581 1076 613 1046 q 549 1153 549 1107 q 581 1227 549 1196 q 656 1258 613 1258 q 733 1227 703 1258 q 764 1153 764 1196 m 515 965 q 855 823 742 965 q 968 478 968 681 q 849 119 968 258 q 515 -19 729 -19 q 177 123 290 -19 q 64 468 64 265 q 185 825 64 686 q 515 965 306 964 m 514 171 q 674 247 617 171 q 732 478 732 324 q 681 690 732 607 q 518 774 631 774 q 358 690 418 774 q 299 469 299 607 q 349 256 299 340 q 514 171 400 171 z "},"Ō":{"ha":1031,"x_min":64,"x_max":968,"o":"m 315 1239 l 704 1239 l 704 1060 l 315 1060 l 315 1239 m 515 965 q 855 823 742 965 q 968 478 968 681 q 849 119 968 258 q 515 -19 729 -19 q 177 123 290 -19 q 64 468 64 265 q 185 825 64 686 q 515 965 306 964 m 514 171 q 674 247 617 171 q 732 478 732 324 q 681 690 732 607 q 518 774 631 774 q 358 690 418 774 q 299 469 299 607 q 349 256 299 340 q 514 171 400 171 z "},"Ő":{"ha":1031,"x_min":64,"x_max":968,"o":"m 653 1281 l 863 1281 l 717 1025 l 558 1025 l 653 1281 m 371 1281 l 581 1281 l 433 1025 l 276 1025 l 371 1281 m 515 965 q 855 823 742 965 q 968 478 968 681 q 849 119 968 258 q 515 -19 729 -19 q 177 123 290 -19 q 64 468 64 265 q 185 825 64 686 q 515 965 306 964 m 514 171 q 674 247 617 171 q 732 478 732 324 q 681 690 732 607 q 518 774 631 774 q 358 690 418 774 q 299 469 299 607 q 349 256 299 340 q 514 171 400 171 z "},"Ŕ":{"ha":942,"x_min":103,"x_max":926,"o":"m 390 1281 l 615 1281 l 468 1025 l 297 1025 q 344 1153 319 1089 q 390 1281 368 1217 m 458 761 l 331 761 l 331 499 l 461 499 q 570 533 528 499 q 613 629 613 567 q 572 729 613 697 q 458 761 531 761 m 668 0 q 583 159 625 79 q 500 318 542 239 q 477 317 489 317 q 454 317 465 317 l 331 317 l 331 0 l 103 0 l 103 944 l 465 944 q 736 870 622 944 q 850 632 850 796 q 810 483 850 546 q 711 383 771 419 q 819 191 765 288 q 926 0 872 94 l 668 0 z "},"Ř":{"ha":942,"x_min":103,"x_max":926,"o":"m 138 1286 l 358 1286 q 398 1242 378 1264 q 438 1199 418 1221 q 477 1242 457 1221 q 517 1286 497 1264 l 732 1286 l 500 1026 l 368 1026 l 138 1286 m 458 761 l 331 761 l 331 499 l 461 499 q 570 533 528 499 q 613 629 613 567 q 572 729 613 697 q 458 761 531 761 m 668 0 q 583 159 625 79 q 500 318 542 239 q 477 317 489 317 q 454 317 465 317 l 331 317 l 331 0 l 103 0 l 103 944 l 465 944 q 736 870 622 944 q 850 632 850 796 q 810 483 850 546 q 711 383 771 419 q 819 191 765 288 q 926 0 872 94 l 668 0 z "},"Ś":{"ha":778,"x_min":57,"x_max":733,"o":"m 361 1281 l 585 1281 l 439 1025 l 267 1025 l 361 1281 m 57 699 q 149 888 58 811 q 400 964 240 964 q 544 943 471 964 q 674 889 618 922 l 604 726 q 497 762 540 750 q 403 774 454 774 q 323 753 353 774 q 293 697 293 732 q 331 637 293 663 q 424 583 368 611 l 447 571 q 640 444 547 518 q 733 254 733 371 q 636 60 733 138 q 365 -18 539 -18 q 205 6 297 -18 q 65 60 113 29 l 135 235 q 240 192 174 213 q 360 172 306 172 q 463 197 428 172 q 497 257 497 222 q 448 320 497 289 q 340 381 399 351 q 151 503 244 431 q 57 699 57 576 z "},"Š":{"ha":778,"x_min":57,"x_max":733,"o":"m 111 1286 l 331 1286 l 411 1199 l 490 1286 l 704 1286 l 474 1026 l 342 1026 l 111 1286 m 57 699 q 149 888 57 811 q 400 964 240 964 q 544 943 471 964 q 674 889 618 922 l 604 726 q 497 762 540 750 q 403 774 454 774 q 323 753 353 774 q 293 697 293 732 q 339 632 293 658 q 449 572 385 606 q 641 446 549 521 q 733 254 733 371 q 636 60 733 138 q 365 -18 539 -18 q 205 6 297 -18 q 65 60 113 29 l 135 235 q 240 192 174 213 q 360 172 306 172 q 463 197 428 172 q 497 257 497 222 q 448 320 497 289 q 340 381 399 351 q 151 503 244 431 q 57 699 57 576 z "},"Ť":{"ha":842,"x_min":11,"x_max":831,"o":"m 114 1286 l 333 1286 l 414 1199 q 453 1242 433 1221 q 493 1286 474 1264 l 708 1286 l 476 1026 l 344 1026 q 229 1156 288 1090 q 114 1286 171 1221 m 11 944 l 804 944 q 817 854 811 899 q 831 764 824 810 l 521 764 l 521 0 l 293 0 l 293 764 l 11 764 l 11 944 z "},"Ù":{"ha":1006,"x_min":92,"x_max":913,"o":"m 307 1281 l 531 1281 l 625 1025 l 453 1025 l 307 1281 m 319 944 l 319 367 q 371 219 319 268 q 501 171 422 171 q 633 220 582 171 q 685 367 685 269 l 685 944 l 913 944 l 913 354 q 800 82 913 181 q 501 -17 688 -17 q 204 81 317 -17 q 92 354 92 179 l 92 944 l 319 944 z "},"Ú":{"ha":1006,"x_min":92,"x_max":913,"o":"m 467 1281 l 690 1281 l 544 1025 l 372 1025 q 420 1153 396 1089 q 467 1281 444 1217 m 319 944 l 319 367 q 371 219 319 268 q 501 171 422 171 q 633 220 582 171 q 685 367 685 269 l 685 944 l 913 944 l 913 354 q 800 82 913 181 q 501 -17 688 -17 q 204 81 317 -17 q 92 354 92 179 l 92 944 l 319 944 z "},"Û":{"ha":1006,"x_min":92,"x_max":913,"o":"m 419 1026 l 199 1026 l 431 1286 l 563 1286 q 678 1156 619 1221 q 793 1026 736 1090 l 579 1026 q 540 1070 560 1049 q 500 1114 519 1092 l 419 1026 m 319 944 l 319 367 q 371 219 319 268 q 501 171 422 171 q 633 220 582 171 q 685 367 685 269 l 685 944 l 913 944 l 913 354 q 800 82 913 181 q 501 -17 688 -17 q 204 81 317 -17 q 92 354 92 179 l 92 944 l 319 944 z "},"Ü":{"ha":1006,"x_min":92,"x_max":913,"o":"m 467 1151 q 436 1076 467 1107 q 360 1046 406 1046 q 285 1076 317 1046 q 253 1151 253 1107 q 285 1227 253 1196 q 360 1258 317 1258 q 436 1227 406 1258 q 467 1151 467 1196 m 750 1151 q 719 1076 750 1107 q 643 1046 689 1046 q 568 1076 600 1046 q 536 1151 536 1107 q 568 1227 536 1196 q 643 1258 600 1258 q 719 1227 689 1258 q 750 1151 750 1196 m 319 944 l 319 367 q 371 219 319 268 q 501 171 422 171 q 633 220 582 171 q 685 367 685 269 l 685 944 l 913 944 l 913 354 q 800 82 913 181 q 501 -17 688 -17 q 204 81 317 -17 q 92 354 92 179 l 92 944 l 319 944 z "},"Ū":{"ha":1006,"x_min":92,"x_max":913,"o":"m 308 1239 l 697 1239 l 697 1060 l 308 1060 l 308 1239 m 319 944 l 319 367 q 371 219 319 268 q 501 171 422 171 q 633 220 582 171 q 685 367 685 269 l 685 944 l 913 944 l 913 354 q 800 82 913 181 q 501 -17 688 -17 q 204 81 317 -17 q 92 354 92 179 l 92 944 l 319 944 z "},"Ů":{"ha":1006,"x_min":92,"x_max":913,"o":"m 654 1185 q 604 1075 654 1117 q 490 1033 554 1033 q 376 1075 424 1033 q 328 1185 328 1117 q 376 1294 328 1250 q 490 1339 424 1339 q 604 1294 554 1339 q 654 1185 654 1250 m 536 1185 q 524 1215 536 1203 q 493 1228 511 1228 q 460 1215 474 1228 q 446 1185 446 1203 q 460 1152 446 1167 q 493 1138 474 1138 q 524 1152 511 1138 q 536 1185 536 1167 m 319 944 l 319 367 q 371 219 319 268 q 501 171 422 171 q 633 220 582 171 q 685 367 685 269 l 685 944 l 913 944 l 913 354 q 800 82 913 181 q 501 -17 688 -17 q 204 81 317 -17 q 92 354 92 179 l 92 944 l 319 944 z "},"Ű":{"ha":1006,"x_min":92,"x_max":913,"o":"m 633 1281 l 843 1281 q 769 1153 807 1217 q 696 1025 732 1089 l 539 1025 l 633 1281 m 350 1281 l 560 1281 q 487 1153 524 1217 q 413 1025 450 1089 l 256 1025 q 303 1153 279 1089 q 350 1281 328 1217 m 319 944 l 319 367 q 371 219 319 268 q 501 171 422 171 q 633 220 582 171 q 685 367 685 269 l 685 944 l 913 944 l 913 354 q 800 82 913 181 q 501 -17 688 -17 q 204 81 317 -17 q 92 354 92 179 l 92 944 l 319 944 z "},"Ų":{"ha":1006,"x_min":92,"x_max":913,"o":"m 319 944 l 319 367 q 371 219 319 268 q 501 171 422 171 q 633 220 582 171 q 685 367 685 269 l 685 944 l 913 944 l 913 354 q 844 130 913 221 q 658 3 775 39 q 627 -49 643 -14 q 611 -111 611 -85 q 622 -141 611 -128 q 653 -154 632 -154 q 679 -148 664 -154 q 713 -128 694 -142 q 749 -192 731 -160 q 785 -258 767 -225 q 716 -301 758 -285 q 625 -317 674 -317 q 485 -260 538 -317 q 433 -129 433 -203 q 442 -74 433 -107 q 461 -15 450 -42 q 193 92 294 -6 q 92 354 92 189 l 92 944 l 319 944 z "},"Ý":{"ha":899,"x_min":13,"x_max":888,"o":"m 401 1281 l 625 1281 l 479 1025 l 307 1025 l 401 1281 m 332 0 l 332 371 l 13 919 l 249 944 l 444 586 l 651 944 l 888 944 l 560 367 l 560 0 l 332 0 z "},"Ÿ":{"ha":899,"x_min":13,"x_max":888,"o":"m 693 1153 q 663 1076 693 1107 q 586 1046 632 1046 q 511 1076 543 1046 q 479 1153 479 1107 q 511 1227 479 1196 q 586 1258 543 1258 q 663 1227 632 1258 q 693 1153 693 1196 m 410 1153 q 379 1076 410 1107 q 303 1046 349 1046 q 228 1076 260 1046 q 196 1153 196 1107 q 228 1227 196 1196 q 303 1258 260 1258 q 379 1227 349 1258 q 410 1153 410 1196 m 332 0 l 332 371 l 13 919 l 249 944 l 444 586 l 651 944 l 888 944 l 560 367 l 560 0 l 332 0 z "},"Ź":{"ha":826,"x_min":25,"x_max":797,"o":"m 378 1281 l 601 1281 q 528 1153 565 1217 q 454 1025 492 1089 l 283 1025 l 378 1281 m 797 778 q 564 496 681 640 q 297 178 447 351 l 775 178 q 786 89 781 133 q 797 0 792 44 l 50 0 l 25 164 l 513 764 l 88 764 q 76 854 82 810 q 65 944 71 899 l 772 944 l 797 778 z "},"Ż":{"ha":826,"x_min":25,"x_max":797,"o":"m 538 1151 q 505 1067 538 1100 q 421 1033 472 1033 q 336 1067 371 1033 q 301 1151 301 1100 q 336 1236 301 1201 q 421 1271 371 1271 q 505 1236 472 1271 q 538 1151 538 1201 m 797 778 q 564 496 681 640 q 297 178 447 351 l 775 178 q 786 89 781 133 q 797 0 792 44 l 50 0 l 25 164 l 513 764 l 88 764 q 76 854 82 810 q 65 944 71 899 l 772 944 l 797 778 z "},"Ž":{"ha":826,"x_min":25,"x_max":797,"o":"m 133 1286 l 353 1286 l 433 1199 q 473 1242 453 1221 q 513 1286 493 1264 l 726 1286 q 611 1156 669 1221 q 496 1026 553 1090 l 364 1026 q 248 1156 306 1090 q 133 1286 190 1221 m 797 778 q 564 496 681 640 q 297 178 447 351 l 775 178 q 786 89 781 133 q 797 0 792 44 l 50 0 l 25 164 l 513 764 l 88 764 q 76 854 82 810 q 65 944 71 899 l 772 944 l 797 778 z "},"Ş":{"ha":778,"x_min":57,"x_max":733,"o":"m 57 699 q 149 888 58 811 q 400 964 240 964 q 544 943 471 964 q 674 889 618 922 l 604 726 q 497 762 540 750 q 403 774 454 774 q 323 753 353 774 q 293 697 293 732 q 331 637 293 663 q 424 583 368 611 l 447 571 q 640 444 547 518 q 733 254 733 371 q 660 81 733 154 q 456 -11 588 7 l 442 -50 q 513 -108 489 -67 q 536 -186 536 -150 q 478 -304 536 -264 q 347 -344 419 -344 q 269 -331 311 -344 q 196 -293 226 -317 l 244 -179 q 285 -194 260 -186 q 328 -203 310 -203 q 358 -197 344 -203 q 371 -178 371 -192 q 340 -143 371 -158 q 253 -122 308 -128 l 296 -12 q 167 15 232 -4 q 65 60 101 35 l 135 235 q 240 192 174 213 q 360 172 306 172 q 463 197 428 172 q 497 257 497 222 q 448 320 497 289 q 340 381 399 351 q 151 503 244 431 q 57 699 57 576 z "},"Ģ":{"ha":929,"x_min":64,"x_max":842,"o":"m 544 775 q 372 699 444 775 q 300 469 300 622 q 365 243 300 317 q 532 169 431 169 q 586 172 560 169 q 636 181 613 175 l 636 365 l 463 365 l 453 535 l 842 535 l 842 51 q 743 11 803 28 q 619 -11 683 -6 l 606 -50 q 676 -108 653 -67 q 700 -186 700 -150 q 642 -304 700 -264 q 513 -344 583 -344 q 433 -331 476 -344 q 360 -293 390 -317 l 410 -179 q 449 -194 424 -186 q 492 -203 474 -203 q 522 -197 508 -203 q 536 -178 536 -192 q 504 -143 536 -158 q 417 -122 472 -128 l 458 -14 q 165 135 265 4 q 64 468 64 265 q 197 828 64 694 q 542 963 329 963 q 688 944 601 963 q 831 890 774 926 l 763 735 q 644 766 692 757 q 544 775 596 775 z "},"Ķ":{"ha":950,"x_min":97,"x_max":950,"o":"m 325 944 l 325 593 l 696 965 l 871 836 l 564 528 l 950 0 l 661 0 l 404 368 l 325 288 l 325 0 l 97 0 l 97 944 l 325 944 m 597 -169 q 540 -322 597 -249 q 399 -429 482 -394 l 353 -326 q 394 -296 371 -317 q 425 -253 418 -275 q 380 -213 400 -243 q 360 -147 360 -183 q 394 -67 360 -104 q 479 -29 428 -29 q 563 -67 528 -29 q 597 -169 597 -106 z "},"Ļ":{"ha":776,"x_min":103,"x_max":763,"o":"m 763 0 l 103 0 l 103 944 l 331 944 l 331 178 l 738 178 l 763 0 m 565 -169 q 508 -322 565 -249 q 367 -429 450 -394 l 321 -326 q 363 -296 339 -317 q 393 -253 386 -275 q 347 -213 368 -243 q 326 -147 326 -183 q 360 -67 326 -104 q 446 -29 394 -29 q 531 -67 496 -29 q 565 -169 565 -106 z "},"Ņ":{"ha":1040,"x_min":103,"x_max":936,"o":"m 936 944 l 936 0 l 719 0 q 524 275 622 135 q 331 550 426 415 l 331 0 l 103 0 l 103 944 l 319 944 l 708 383 l 708 944 l 936 944 m 644 -169 q 587 -322 644 -249 q 446 -429 529 -394 l 399 -326 q 441 -296 418 -317 q 471 -253 464 -275 q 426 -213 447 -243 q 406 -147 406 -183 q 440 -67 406 -104 q 524 -29 474 -29 q 610 -67 575 -29 q 644 -169 644 -106 z "},"Ŗ":{"ha":942,"x_min":103,"x_max":926,"o":"m 458 761 l 331 761 l 331 499 l 461 499 q 570 533 528 499 q 613 629 613 567 q 572 729 613 697 q 458 761 531 761 m 668 0 q 583 159 625 79 q 500 318 542 239 q 477 317 489 317 q 454 317 465 317 l 331 317 l 331 0 l 103 0 l 103 944 l 465 944 q 736 870 622 944 q 850 632 850 796 q 810 483 850 546 q 711 383 771 419 q 819 191 765 288 q 926 0 872 94 l 668 0 m 607 -169 q 549 -322 607 -249 q 407 -429 490 -394 l 361 -326 q 403 -296 381 -317 q 435 -253 426 -275 q 388 -213 408 -243 q 368 -147 368 -183 q 402 -67 368 -104 q 486 -29 436 -29 q 572 -67 536 -29 q 607 -169 607 -106 z "},"Ţ":{"ha":842,"x_min":11,"x_max":831,"o":"m 11 944 l 804 944 q 817 854 811 899 q 831 764 824 810 l 521 764 l 521 0 l 486 0 q 476 -24 481 -11 q 467 -49 472 -36 q 538 -107 514 -65 q 561 -185 561 -149 q 503 -303 561 -262 q 372 -344 444 -344 q 294 -330 338 -344 q 221 -293 251 -315 l 271 -178 q 310 -193 285 -185 q 353 -201 335 -201 q 383 -196 369 -201 q 396 -176 396 -190 q 365 -142 396 -157 q 278 -121 333 -128 q 302 -60 290 -90 q 326 0 314 -29 l 293 0 l 293 764 l 11 764 l 11 944 z "},"Ș":{"ha":778,"x_min":57,"x_max":733,"o":"m 57 699 q 149 888 58 811 q 400 964 240 964 q 544 943 471 964 q 674 889 618 922 l 604 726 q 497 762 540 750 q 403 774 454 774 q 323 753 353 774 q 293 697 293 732 q 331 637 293 663 q 424 583 368 611 l 447 571 q 640 444 547 518 q 733 254 733 371 q 636 60 733 138 q 365 -18 539 -18 q 205 6 297 -18 q 65 60 113 29 l 135 235 q 240 192 174 213 q 360 172 306 172 q 463 197 428 172 q 497 257 497 222 q 448 320 497 289 q 340 381 399 351 q 151 503 244 431 q 57 699 57 576 m 493 -169 q 435 -323 493 -250 q 294 -429 378 -396 l 249 -328 q 290 -297 267 -318 q 321 -254 314 -276 q 276 -215 296 -244 q 256 -149 256 -185 q 290 -67 256 -106 q 374 -29 324 -29 q 458 -68 424 -29 q 493 -169 493 -107 z "},"Ț":{"ha":842,"x_min":11,"x_max":831,"o":"m 11 944 l 804 944 q 817 854 811 899 q 831 764 824 810 l 521 764 l 521 0 l 293 0 l 293 764 l 11 764 l 11 944 m 525 -169 q 467 -322 525 -249 q 326 -429 410 -394 l 281 -326 q 322 -296 299 -317 q 353 -253 346 -275 q 307 -213 328 -243 q 286 -147 286 -183 q 320 -67 286 -104 q 406 -29 354 -29 q 490 -67 456 -29 q 525 -169 525 -106 z "},"à":{"ha":713,"x_min":50,"x_max":639,"o":"m 154 1076 l 383 1076 l 479 817 l 304 817 l 154 1076 m 301 167 q 356 179 328 167 q 411 214 385 192 l 411 282 l 313 282 q 261 263 281 282 q 242 218 242 244 q 259 182 242 197 q 301 167 276 167 m 356 696 q 563 621 486 696 q 639 425 639 546 l 639 0 l 533 0 l 488 53 q 404 4 454 24 q 300 -15 354 -15 q 112 47 174 -15 q 50 211 50 110 q 122 372 50 319 q 311 424 194 424 l 410 424 q 380 482 406 461 q 315 503 354 503 q 226 490 276 503 q 138 461 175 478 l 76 632 q 205 676 125 657 q 356 696 285 696 z "},"á":{"ha":713,"x_min":50,"x_max":639,"o":"m 328 1076 l 556 1076 l 406 817 l 231 817 l 328 1076 m 301 167 q 356 179 328 167 q 411 214 385 192 l 411 282 l 313 282 q 261 263 281 282 q 242 218 242 244 q 259 182 242 197 q 301 167 276 167 m 356 696 q 563 621 486 696 q 639 425 639 546 l 639 0 l 533 0 l 488 53 q 404 4 454 24 q 300 -15 354 -15 q 112 47 174 -15 q 50 211 50 110 q 122 372 50 319 q 311 424 194 424 l 410 424 q 380 482 406 461 q 315 503 354 503 q 226 490 276 503 q 138 461 175 478 l 76 632 q 205 676 125 657 q 356 696 285 696 z "},"â":{"ha":713,"x_min":50,"x_max":658,"o":"m 285 817 l 64 817 l 296 1076 l 426 1076 l 658 817 l 443 817 l 365 904 l 285 817 m 301 167 q 356 179 328 167 q 411 214 385 192 l 411 282 l 313 282 q 261 263 281 282 q 242 218 242 244 q 259 182 242 197 q 301 167 276 167 m 356 696 q 563 621 486 696 q 639 425 639 546 l 639 0 l 533 0 l 488 53 q 404 4 454 24 q 300 -15 354 -15 q 112 47 174 -15 q 50 211 50 110 q 122 372 50 319 q 311 424 194 424 l 410 424 q 380 482 406 461 q 315 503 354 503 q 226 490 276 503 q 138 461 175 478 l 76 632 q 205 676 125 657 q 356 696 285 696 z "},"ã":{"ha":713,"x_min":50,"x_max":639,"o":"m 263 833 l 106 833 q 158 992 106 947 q 274 1036 211 1036 q 352 1013 319 1036 q 418 989 385 989 q 441 1003 431 989 q 451 1031 451 1017 l 601 1031 q 551 871 601 915 q 438 826 500 826 q 360 851 392 826 q 296 875 329 875 q 273 860 283 875 q 263 833 263 846 m 301 167 q 356 179 328 167 q 411 214 385 192 l 411 282 l 313 282 q 261 263 281 282 q 242 218 242 244 q 259 182 242 197 q 301 167 276 167 m 356 696 q 563 621 486 696 q 639 425 639 546 l 639 0 l 533 0 l 488 53 q 404 4 454 24 q 300 -15 354 -15 q 112 47 174 -15 q 50 211 50 110 q 122 372 50 319 q 311 424 194 424 l 410 424 q 380 482 406 461 q 315 503 354 503 q 226 490 276 503 q 138 461 175 478 l 76 632 q 205 676 125 657 q 356 696 285 696 z "},"ä":{"ha":713,"x_min":50,"x_max":639,"o":"m 326 944 q 296 868 326 899 q 219 838 265 838 q 144 868 176 838 q 113 944 113 899 q 144 1019 113 988 q 219 1050 176 1050 q 296 1019 265 1050 q 326 944 326 988 m 610 944 q 579 868 610 899 q 503 838 549 838 q 428 868 460 838 q 396 944 396 899 q 428 1019 396 988 q 503 1050 460 1050 q 579 1019 549 1050 q 610 944 610 988 m 301 167 q 356 179 328 167 q 411 214 385 192 l 411 282 l 313 282 q 261 263 281 282 q 242 218 242 244 q 259 182 242 197 q 301 167 276 167 m 356 696 q 563 621 486 696 q 639 425 639 546 l 639 0 l 533 0 l 488 53 q 404 4 454 24 q 300 -15 354 -15 q 112 47 174 -15 q 50 211 50 110 q 122 372 50 319 q 311 424 194 424 l 410 424 q 380 482 406 461 q 315 503 354 503 q 226 490 276 503 q 138 461 175 478 l 76 632 q 205 676 125 657 q 356 696 285 696 z "},"å":{"ha":713,"x_min":50,"x_max":639,"o":"m 521 976 q 472 867 521 910 q 357 825 422 825 q 243 867 292 825 q 194 976 194 910 q 243 1087 194 1042 q 357 1132 292 1132 q 472 1087 422 1132 q 521 976 521 1042 m 403 976 q 390 1008 403 994 q 360 1021 378 1021 q 328 1008 342 1021 q 314 976 314 994 q 328 944 314 958 q 360 931 342 931 q 390 944 378 931 q 403 976 403 958 m 301 167 q 356 179 328 167 q 411 214 385 192 l 411 282 l 313 282 q 261 263 281 282 q 242 218 242 244 q 259 182 242 197 q 301 167 276 167 m 356 696 q 563 621 486 696 q 639 425 639 546 l 639 0 l 533 0 l 488 53 q 404 4 454 24 q 300 -15 354 -15 q 112 47 174 -15 q 50 211 50 110 q 122 372 50 319 q 311 424 194 424 l 410 424 q 380 482 406 461 q 315 503 354 503 q 226 490 276 503 q 138 461 175 478 l 76 632 q 205 676 125 657 q 356 696 285 696 z "},"ā":{"ha":713,"x_min":50,"x_max":639,"o":"m 165 1031 l 556 1031 l 556 851 l 165 851 l 165 1031 m 301 167 q 356 179 328 167 q 411 214 385 192 l 411 282 l 313 282 q 261 263 281 282 q 242 218 242 244 q 259 182 242 197 q 301 167 276 167 m 356 696 q 563 621 486 696 q 639 425 639 546 l 639 0 l 533 0 l 488 53 q 404 4 454 24 q 300 -15 354 -15 q 112 47 174 -15 q 50 211 50 110 q 122 372 50 319 q 311 424 194 424 l 410 424 q 380 482 406 461 q 315 503 354 503 q 226 490 276 503 q 138 461 175 478 l 76 632 q 205 676 125 657 q 356 696 285 696 z "},"ă":{"ha":713,"x_min":50,"x_max":639,"o":"m 358 817 q 185 889 247 818 q 124 1068 124 960 l 283 1068 q 302 1008 283 1033 q 358 983 321 983 q 413 1008 394 983 q 432 1068 432 1033 l 593 1068 q 531 889 593 960 q 358 817 469 818 m 301 167 q 356 179 328 167 q 411 214 385 192 l 411 282 l 313 282 q 261 263 281 282 q 242 218 242 244 q 259 182 242 197 q 301 167 276 167 m 356 696 q 563 621 486 696 q 639 425 639 546 l 639 0 l 533 0 l 488 53 q 404 4 454 24 q 300 -15 354 -15 q 112 47 174 -15 q 50 211 50 110 q 122 372 50 319 q 311 424 194 424 l 410 424 q 380 482 406 461 q 315 503 354 503 q 226 490 276 503 q 138 461 175 478 l 76 632 q 205 676 125 657 q 356 696 285 696 z "},"ą":{"ha":713,"x_min":50,"x_max":769,"o":"m 356 696 q 563 621 486 696 q 639 425 639 546 l 639 0 q 609 -53 624 -21 q 594 -111 594 -85 q 605 -141 594 -128 q 636 -154 615 -154 q 663 -149 647 -154 q 696 -128 678 -143 l 769 -260 q 700 -302 743 -286 q 608 -318 657 -318 q 467 -260 517 -318 q 417 -129 417 -203 q 440 -30 417 -74 q 494 44 464 14 l 488 53 q 404 4 454 24 q 300 -15 354 -15 q 112 47 174 -15 q 50 211 50 110 q 122 372 50 319 q 311 424 194 424 l 410 424 q 380 482 406 461 q 315 503 354 503 q 226 490 276 503 q 138 461 175 478 l 76 632 q 205 676 125 657 q 356 696 285 696 m 301 167 q 356 179 328 167 q 411 214 385 192 l 411 282 l 313 282 q 261 263 281 282 q 242 218 242 244 q 259 182 242 197 q 301 167 276 167 z "},"ç":{"ha":676,"x_min":47,"x_max":638,"o":"m 425 507 q 324 460 365 507 q 283 336 283 413 q 324 216 283 260 q 425 172 365 172 q 497 181 464 172 q 572 211 529 190 l 638 53 q 557 10 600 24 q 475 -10 514 -4 l 460 -50 q 531 -108 508 -67 q 554 -186 554 -150 q 497 -304 554 -264 q 367 -344 439 -344 q 288 -331 331 -344 q 215 -293 246 -317 l 264 -179 q 303 -194 279 -186 q 347 -203 328 -203 q 377 -197 364 -203 q 390 -178 390 -192 q 359 -143 390 -158 q 272 -122 328 -128 l 317 -7 q 119 105 192 15 q 47 336 47 194 q 146 599 47 503 q 408 696 244 696 q 516 683 450 696 q 638 626 582 669 l 572 468 q 497 498 529 489 q 425 507 465 507 z "},"ć":{"ha":676,"x_min":47,"x_max":638,"o":"m 372 1076 l 600 1076 l 450 817 l 275 817 l 372 1076 m 425 507 q 324 460 365 507 q 283 336 283 413 q 324 216 283 260 q 425 172 365 172 q 497 181 464 172 q 572 211 529 190 l 638 53 q 516 -3 582 10 q 408 -15 450 -15 q 146 78 244 -15 q 47 336 47 171 q 146 599 47 503 q 408 696 244 696 q 516 683 450 696 q 638 626 582 669 l 572 468 q 497 498 529 489 q 425 507 465 507 z "},"č":{"ha":676,"x_min":47,"x_max":657,"o":"m 64 1076 l 283 1076 l 364 989 l 443 1076 l 657 1076 l 426 817 l 294 817 l 64 1076 m 425 507 q 324 460 365 507 q 283 336 283 413 q 324 216 283 260 q 425 172 365 172 q 497 181 464 172 q 572 211 529 190 l 638 53 q 516 -3 582 10 q 408 -15 450 -15 q 146 78 244 -15 q 47 336 47 171 q 146 599 47 503 q 408 696 244 696 q 516 683 450 696 q 638 626 582 669 l 572 468 q 497 498 529 489 q 425 507 465 507 z "},"ď":{"ha":1118,"x_min":47,"x_max":1104,"o":"m 1104 890 q 1044 731 1104 810 q 897 614 985 651 l 851 715 q 900 756 876 733 q 931 806 924 779 q 885 845 906 815 q 865 911 865 875 q 899 992 865 954 q 983 1031 933 1031 q 1069 992 1033 1031 q 1104 890 1104 953 m 424 172 q 473 181 444 172 q 524 201 501 189 l 524 465 q 468 497 500 485 q 410 510 436 510 q 312 453 340 510 q 283 340 283 397 q 316 223 283 274 q 424 172 349 172 m 753 981 l 753 0 l 636 0 l 590 68 q 498 10 556 36 q 365 -15 440 -15 q 128 85 208 -15 q 47 338 47 186 q 128 594 47 489 q 376 699 210 699 q 450 688 411 699 q 524 660 489 678 l 524 965 l 753 981 z "},"è":{"ha":764,"x_min":47,"x_max":719,"o":"m 192 1076 l 419 1076 l 515 817 l 342 817 l 192 1076 m 401 696 q 641 591 563 696 q 719 344 719 486 l 719 268 l 294 268 q 348 195 308 219 q 446 171 388 171 q 533 180 490 171 q 619 210 576 189 l 683 53 q 549 -1 629 13 q 428 -15 469 -15 q 153 72 260 -15 q 47 336 47 160 q 148 599 47 503 q 401 696 249 696 m 396 510 q 327 483 354 510 q 290 410 300 457 l 501 410 q 471 479 496 449 q 396 510 446 510 z "},"é":{"ha":764,"x_min":47,"x_max":719,"o":"m 375 1076 l 603 1076 l 453 817 l 279 817 l 375 1076 m 401 696 q 641 591 563 696 q 719 344 719 486 l 719 268 l 294 268 q 348 195 308 219 q 446 171 388 171 q 533 180 490 171 q 619 210 576 189 l 683 53 q 549 -1 629 13 q 428 -15 469 -15 q 153 72 260 -15 q 47 336 47 160 q 148 599 47 503 q 401 696 249 696 m 396 510 q 327 483 354 510 q 290 410 300 457 l 501 410 q 471 479 496 449 q 396 510 446 510 z "},"ê":{"ha":764,"x_min":47,"x_max":719,"o":"m 328 817 l 107 817 l 339 1076 l 469 1076 l 701 817 l 486 817 l 407 904 l 328 817 m 401 696 q 641 591 563 696 q 719 344 719 486 l 719 268 l 294 268 q 348 195 308 219 q 446 171 388 171 q 533 180 490 171 q 619 210 576 189 l 683 53 q 549 -1 629 13 q 428 -15 469 -15 q 153 72 260 -15 q 47 336 47 160 q 148 599 47 503 q 401 696 249 696 m 396 510 q 327 483 354 510 q 290 410 300 457 l 501 410 q 471 479 496 449 q 396 510 446 510 z "},"ë":{"ha":764,"x_min":47,"x_max":719,"o":"m 649 944 q 618 868 649 899 q 542 838 588 838 q 467 868 499 838 q 435 944 435 899 q 467 1019 435 988 q 542 1050 499 1050 q 618 1019 588 1050 q 649 944 649 988 m 365 944 q 334 868 365 899 q 257 838 303 838 q 182 868 214 838 q 150 944 150 899 q 182 1019 150 988 q 257 1050 214 1050 q 334 1019 303 1050 q 365 944 365 988 m 401 696 q 641 591 563 696 q 719 344 719 486 l 719 268 l 294 268 q 348 195 308 219 q 446 171 388 171 q 533 180 490 171 q 619 210 576 189 l 683 53 q 549 -1 629 13 q 428 -15 469 -15 q 153 72 260 -15 q 47 336 47 160 q 148 599 47 503 q 401 696 249 696 m 396 510 q 327 483 354 510 q 290 410 300 457 l 501 410 q 471 479 496 449 q 396 510 446 510 z "},"ē":{"ha":764,"x_min":47,"x_max":719,"o":"m 196 1031 l 586 1031 l 586 851 l 196 851 l 196 1031 m 401 696 q 641 591 563 696 q 719 344 719 486 l 719 268 l 294 268 q 348 195 308 219 q 446 171 388 171 q 533 180 490 171 q 619 210 576 189 l 683 53 q 549 -1 629 13 q 428 -15 469 -15 q 153 72 260 -15 q 47 336 47 160 q 148 599 47 503 q 401 696 249 696 m 396 510 q 327 483 354 510 q 290 410 300 457 l 501 410 q 471 479 496 449 q 396 510 446 510 z "},"ė":{"ha":764,"x_min":47,"x_max":719,"o":"m 513 944 q 480 859 513 893 q 397 825 447 825 q 312 859 347 825 q 276 944 276 893 q 312 1028 276 993 q 397 1063 347 1063 q 480 1028 447 1063 q 513 944 513 993 m 401 696 q 641 591 563 696 q 719 344 719 486 l 719 268 l 294 268 q 348 195 308 219 q 446 171 388 171 q 533 180 490 171 q 619 210 576 189 l 683 53 q 549 -1 629 13 q 428 -15 469 -15 q 153 72 260 -15 q 47 336 47 160 q 148 599 47 503 q 401 696 249 696 m 396 510 q 327 483 354 510 q 290 410 300 457 l 501 410 q 471 479 496 449 q 396 510 446 510 z "},"ę":{"ha":764,"x_min":47,"x_max":719,"o":"m 401 696 q 641 591 563 696 q 719 344 719 486 l 719 268 l 294 268 q 348 195 308 219 q 446 171 388 171 q 533 180 490 171 q 619 210 576 189 l 683 53 q 633 23 661 35 q 574 4 604 11 q 542 -50 557 -15 q 526 -111 526 -85 q 537 -141 526 -128 q 567 -154 547 -154 q 594 -149 579 -154 q 626 -128 608 -143 l 700 -260 q 631 -302 674 -286 q 539 -318 589 -318 q 399 -260 447 -318 q 350 -129 350 -203 q 358 -73 350 -107 q 378 -12 367 -39 q 139 86 231 -1 q 47 336 47 174 q 148 599 47 503 q 401 696 249 696 m 396 510 q 327 483 354 510 q 290 410 300 457 l 501 410 q 471 479 496 449 q 396 510 446 510 z "},"ě":{"ha":764,"x_min":47,"x_max":719,"o":"m 96 1076 l 317 1076 l 397 989 l 475 1076 l 690 1076 l 458 817 l 328 817 l 96 1076 m 401 696 q 641 591 563 696 q 719 344 719 486 l 719 268 l 294 268 q 348 195 308 219 q 446 171 388 171 q 533 180 490 171 q 619 210 576 189 l 683 53 q 549 -1 629 13 q 428 -15 469 -15 q 153 72 260 -15 q 47 336 47 160 q 148 599 47 503 q 401 696 249 696 m 396 510 q 327 483 354 510 q 290 410 300 457 l 501 410 q 471 479 496 449 q 396 510 446 510 z "},"ğ":{"ha":840,"x_min":47,"x_max":751,"o":"m 410 817 q 237 888 299 818 q 175 1067 175 958 l 335 1067 q 353 1007 335 1032 q 410 982 372 982 q 464 1008 443 982 q 485 1067 485 1035 l 644 1067 q 583 888 644 958 q 410 817 521 818 m 282 340 q 315 222 282 272 q 422 172 347 172 q 473 181 444 172 q 524 201 501 189 l 524 464 q 468 497 500 483 q 410 510 436 510 q 310 453 339 510 q 282 340 282 397 m 751 672 l 751 -3 q 660 -219 751 -142 q 390 -297 568 -297 q 263 -279 347 -297 q 117 -219 178 -261 q 151 -140 133 -181 q 185 -60 168 -100 q 296 -103 251 -92 q 386 -114 340 -114 q 489 -86 454 -114 q 524 -6 524 -58 l 524 21 q 449 -5 489 6 q 364 -15 408 -15 q 127 85 207 -15 q 47 336 47 186 q 128 593 47 489 q 376 697 208 697 q 490 674 431 697 q 593 617 549 651 l 636 672 l 751 672 z "},"ì":{"ha":397,"x_min":-1,"x_max":321,"o":"m -1 1076 l 226 1076 l 321 817 l 146 817 q 72 947 108 881 q -1 1076 35 1013 m 313 674 l 313 0 l 83 0 l 83 674 l 313 674 z "},"í":{"ha":397,"x_min":75,"x_max":400,"o":"m 171 1076 l 400 1076 l 250 817 l 75 817 l 171 1076 m 313 674 l 313 0 l 83 0 l 83 674 l 313 674 z "},"î":{"ha":397,"x_min":-97,"x_max":496,"o":"m 122 817 l -97 817 q 18 947 -39 881 q 133 1076 75 1013 l 264 1076 l 496 817 l 281 817 l 203 904 l 122 817 m 313 674 l 313 0 l 83 0 l 83 674 l 313 674 z "},"ï":{"ha":397,"x_min":-49,"x_max":447,"o":"m 164 943 q 133 868 164 899 q 56 838 101 838 q -17 868 14 838 q -49 943 -49 899 q -17 1019 -49 988 q 56 1050 14 1050 q 133 1019 101 1050 q 164 943 164 988 m 447 943 q 417 868 447 899 q 340 838 386 838 q 265 868 297 838 q 233 943 233 899 q 265 1019 233 988 q 340 1050 297 1050 q 417 1019 386 1050 q 447 943 447 988 m 313 674 l 313 0 l 83 0 l 83 674 l 313 674 z "},"ī":{"ha":397,"x_min":3,"x_max":393,"o":"m 3 1031 l 393 1031 l 393 851 l 3 851 l 3 1031 m 313 674 l 313 0 l 83 0 l 83 674 l 313 674 z "},"į":{"ha":397,"x_min":68,"x_max":421,"o":"m 324 890 q 286 803 324 839 q 197 767 249 767 q 110 803 146 767 q 74 890 74 839 q 110 979 74 942 q 197 1017 146 1017 q 286 979 249 1017 q 324 890 324 942 m 313 674 l 313 0 l 290 0 q 260 -52 275 -19 q 246 -111 246 -85 q 256 -141 246 -128 q 288 -154 267 -154 q 314 -148 299 -154 q 347 -128 329 -142 l 421 -258 q 351 -301 394 -285 q 260 -317 308 -317 q 118 -259 168 -317 q 68 -129 68 -201 q 79 -64 68 -103 q 104 0 90 -25 l 83 0 l 83 674 l 313 674 z "},"ľ":{"ha":681,"x_min":88,"x_max":667,"o":"m 667 890 q 607 731 667 810 q 460 613 547 651 l 414 715 q 463 756 439 733 q 493 806 486 779 q 448 845 468 815 q 428 911 428 875 q 462 992 428 954 q 546 1031 496 1031 q 631 992 596 1031 q 667 890 667 953 m 315 981 l 315 0 l 88 0 l 88 965 l 315 981 z "},"ñ":{"ha":846,"x_min":85,"x_max":772,"o":"m 331 833 l 172 833 q 226 992 172 947 q 340 1036 279 1036 q 419 1013 386 1036 q 485 989 451 989 q 508 1003 497 989 q 518 1031 518 1017 l 668 1031 q 617 871 668 915 q 504 826 567 826 q 428 851 460 826 q 364 875 396 875 q 340 860 350 875 q 331 833 331 846 m 511 699 q 712 618 651 699 q 772 418 772 538 l 772 0 l 544 0 l 544 413 q 519 485 544 460 q 450 510 493 510 q 382 494 421 510 q 313 461 343 479 l 313 0 l 85 0 l 85 672 l 200 672 l 253 610 q 367 670 297 642 q 511 699 438 699 z "},"ń":{"ha":846,"x_min":85,"x_max":772,"o":"m 383 1076 l 611 1076 l 461 817 l 286 817 l 383 1076 m 511 699 q 712 618 651 699 q 772 418 772 538 l 772 0 l 544 0 l 544 413 q 519 485 544 460 q 450 510 493 510 q 382 494 421 510 q 313 461 343 479 l 313 0 l 85 0 l 85 672 l 200 672 l 253 610 q 367 670 297 642 q 511 699 438 699 z "},"ň":{"ha":846,"x_min":85,"x_max":772,"o":"m 144 1076 l 365 1076 l 446 989 l 525 1076 l 739 1076 l 507 817 l 376 817 l 144 1076 m 511 699 q 712 618 651 699 q 772 418 772 538 l 772 0 l 544 0 l 544 413 q 519 485 544 460 q 450 510 493 510 q 382 494 421 510 q 313 461 343 479 l 313 0 l 85 0 l 85 672 l 200 672 l 253 610 q 367 670 297 642 q 511 699 438 699 z "},"ò":{"ha":838,"x_min":47,"x_max":790,"o":"m 222 1076 l 451 1076 l 547 817 l 372 817 l 222 1076 m 418 696 q 688 601 586 696 q 790 333 790 507 q 682 76 790 167 q 411 -15 574 -15 q 149 75 250 -15 q 47 340 47 165 q 153 601 47 507 q 418 696 258 696 m 414 172 q 517 212 479 172 q 554 333 554 251 q 520 458 554 410 q 422 507 486 507 q 319 464 356 507 q 283 340 283 421 q 317 217 283 261 q 414 172 350 172 z "},"ó":{"ha":838,"x_min":47,"x_max":790,"o":"m 382 1076 l 610 1076 l 461 817 l 286 817 l 382 1076 m 418 696 q 688 601 586 696 q 790 333 790 507 q 682 76 790 167 q 411 -15 574 -15 q 149 75 250 -15 q 47 340 47 165 q 153 601 47 507 q 418 696 258 696 m 414 172 q 517 212 479 172 q 554 333 554 251 q 520 458 554 410 q 422 507 486 507 q 319 464 356 507 q 283 340 283 421 q 317 217 283 261 q 414 172 350 172 z "},"ô":{"ha":838,"x_min":47,"x_max":790,"o":"m 340 817 l 121 817 l 353 1076 l 483 1076 l 715 817 l 500 817 l 421 904 l 340 817 m 418 696 q 688 601 586 696 q 790 333 790 507 q 682 76 790 167 q 411 -15 574 -15 q 149 75 250 -15 q 47 340 47 165 q 153 601 47 507 q 418 696 258 696 m 414 172 q 517 212 479 172 q 554 333 554 251 q 520 458 554 410 q 422 507 486 507 q 319 464 356 507 q 283 340 283 421 q 317 217 283 261 q 414 172 350 172 z "},"õ":{"ha":838,"x_min":47,"x_max":790,"o":"m 324 833 l 167 833 q 220 992 167 947 q 335 1036 274 1036 q 413 1013 381 1036 q 479 989 446 989 q 502 1003 492 989 q 513 1031 513 1017 l 663 1031 q 612 871 663 915 q 499 826 561 826 q 422 851 453 826 q 357 875 390 875 q 333 860 343 875 q 324 833 324 846 m 418 696 q 688 601 586 696 q 790 333 790 507 q 682 76 790 167 q 411 -15 574 -15 q 149 75 250 -15 q 47 340 47 165 q 153 601 47 507 q 418 696 258 696 m 414 172 q 517 212 479 172 q 554 333 554 251 q 520 458 554 410 q 422 507 486 507 q 319 464 356 507 q 283 340 283 421 q 317 217 283 261 q 414 172 350 172 z "},"ö":{"ha":838,"x_min":47,"x_max":790,"o":"m 381 944 q 350 868 381 899 q 274 838 319 838 q 199 868 231 838 q 167 944 167 899 q 199 1019 167 988 q 274 1050 231 1050 q 350 1019 319 1050 q 381 944 381 988 m 664 944 q 633 868 664 899 q 557 838 603 838 q 482 868 514 838 q 450 944 450 899 q 482 1019 450 988 q 557 1050 514 1050 q 633 1019 603 1050 q 664 944 664 988 m 418 696 q 688 601 586 696 q 790 333 790 507 q 682 76 790 167 q 411 -15 574 -15 q 149 75 250 -15 q 47 340 47 165 q 153 601 47 507 q 418 696 258 696 m 414 172 q 517 212 479 172 q 554 333 554 251 q 520 458 554 410 q 422 507 486 507 q 319 464 356 507 q 283 340 283 421 q 317 217 283 261 q 414 172 350 172 z "},"ō":{"ha":838,"x_min":47,"x_max":790,"o":"m 219 1031 l 608 1031 l 608 851 l 219 851 l 219 1031 m 418 696 q 688 601 586 696 q 790 333 790 507 q 682 76 790 167 q 411 -15 574 -15 q 149 75 250 -15 q 47 340 47 165 q 153 601 47 507 q 418 696 258 696 m 414 172 q 517 212 479 172 q 554 333 554 251 q 520 458 554 410 q 422 507 486 507 q 319 464 356 507 q 283 340 283 421 q 317 217 283 261 q 414 172 350 172 z "},"ő":{"ha":838,"x_min":47,"x_max":790,"o":"m 544 1076 l 758 1076 l 610 817 l 447 817 l 544 1076 m 256 1076 l 469 1076 l 319 817 l 160 817 l 256 1076 m 418 696 q 688 601 586 696 q 790 333 790 507 q 682 76 790 167 q 411 -15 574 -15 q 149 75 250 -15 q 47 340 47 165 q 153 601 47 507 q 418 696 258 696 m 414 172 q 517 212 479 172 q 554 333 554 251 q 520 458 554 410 q 422 507 486 507 q 319 464 356 507 q 283 340 283 421 q 317 217 283 261 q 414 172 350 172 z "},"ŕ":{"ha":531,"x_min":83,"x_max":519,"o":"m 226 1076 l 454 1076 l 304 817 l 129 817 q 178 947 154 881 q 226 1076 203 1013 m 474 674 l 519 490 q 415 472 471 490 q 313 414 360 453 l 313 0 l 83 0 l 83 672 l 199 672 l 260 593 q 360 649 301 624 q 474 674 418 674 z "},"ř":{"ha":531,"x_min":-31,"x_max":563,"o":"m -31 1076 l 189 1076 l 268 989 l 347 1076 l 563 1076 l 331 817 l 200 817 q 84 947 142 881 q -31 1076 26 1013 m 474 674 l 519 490 q 415 472 471 490 q 313 414 360 453 l 313 0 l 83 0 l 83 672 l 199 672 l 260 593 q 360 649 301 624 q 474 674 418 674 z "},"ś":{"ha":638,"x_min":47,"x_max":597,"o":"m 290 1076 l 519 1076 l 369 817 l 194 817 l 290 1076 m 364 429 q 522 348 447 400 q 597 204 597 296 q 527 42 597 100 q 317 -15 457 -15 q 188 6 274 -15 q 47 69 103 26 l 113 228 q 209 190 156 207 q 299 172 263 172 q 347 183 331 172 q 364 206 364 193 q 347 233 364 221 q 292 258 331 246 q 133 336 208 286 q 57 476 57 386 q 133 638 57 579 q 343 696 210 696 q 459 676 385 696 q 589 614 533 657 l 524 456 q 437 492 481 478 q 354 507 393 507 q 308 497 322 507 q 293 475 293 488 q 308 453 293 463 q 364 429 322 443 z "},"š":{"ha":638,"x_min":24,"x_max":618,"o":"m 24 1076 l 244 1076 l 325 989 l 404 1076 l 618 1076 l 388 817 l 256 817 l 24 1076 m 364 429 q 522 348 447 400 q 597 204 597 296 q 527 42 597 100 q 317 -15 457 -15 q 188 6 274 -15 q 47 69 103 26 l 113 228 q 209 190 156 207 q 299 172 263 172 q 347 183 331 172 q 364 206 364 193 q 347 233 364 221 q 292 258 331 246 q 133 336 208 286 q 57 476 57 386 q 133 638 57 579 q 343 696 210 696 q 459 676 385 696 q 589 614 533 657 l 524 456 q 437 492 481 478 q 354 507 393 507 q 308 497 322 507 q 293 475 293 488 q 308 453 293 463 q 364 429 322 443 z "},"ť":{"ha":817,"x_min":13,"x_max":803,"o":"m 803 890 q 743 731 803 810 q 596 614 683 651 l 550 715 q 599 756 575 733 q 631 806 622 779 q 583 845 604 815 q 563 911 563 875 q 597 992 563 954 q 682 1031 632 1031 q 767 992 732 1031 q 803 890 803 953 m 419 -19 q 202 46 293 -19 q 111 240 111 111 l 111 476 l 13 476 l 13 654 l 111 654 l 111 829 l 339 863 l 339 654 l 488 654 l 522 476 l 339 476 l 339 269 q 363 196 339 224 q 435 168 388 168 q 477 174 453 168 q 524 192 501 181 l 589 35 q 514 -3 565 13 q 419 -19 463 -19 z "},"ù":{"ha":835,"x_min":72,"x_max":750,"o":"m 222 1076 l 450 1076 l 547 817 l 372 817 l 222 1076 m 329 -26 q 131 54 189 -26 q 72 254 72 135 l 72 672 l 301 672 l 301 260 q 325 188 301 213 q 392 163 349 163 q 454 176 418 163 q 521 208 490 190 l 521 672 l 750 672 l 750 0 l 635 0 l 582 60 q 472 1 539 29 q 329 -26 404 -26 z "},"ú":{"ha":835,"x_min":72,"x_max":750,"o":"m 378 1076 l 606 1076 l 456 817 l 281 817 l 378 1076 m 329 -26 q 131 54 189 -26 q 72 254 72 135 l 72 672 l 301 672 l 301 260 q 325 188 301 213 q 392 163 349 163 q 454 176 418 163 q 521 208 490 190 l 521 672 l 750 672 l 750 0 l 635 0 l 582 60 q 472 1 539 29 q 329 -26 404 -26 z "},"û":{"ha":835,"x_min":72,"x_max":750,"o":"m 335 817 l 115 817 l 347 1076 l 478 1076 l 710 817 l 494 817 l 415 904 l 335 817 m 329 -26 q 131 54 189 -26 q 72 254 72 135 l 72 672 l 301 672 l 301 260 q 325 188 301 213 q 392 163 349 163 q 454 176 418 163 q 521 208 490 190 l 521 672 l 750 672 l 750 0 l 635 0 l 582 60 q 472 1 539 29 q 329 -26 404 -26 z "},"ü":{"ha":835,"x_min":72,"x_max":750,"o":"m 660 944 q 629 868 660 899 q 553 838 599 838 q 478 868 510 838 q 446 944 446 899 q 478 1019 446 988 q 553 1050 510 1050 q 629 1019 599 1050 q 660 944 660 988 m 376 944 q 346 868 376 899 q 269 838 315 838 q 194 868 226 838 q 163 944 163 899 q 194 1019 163 988 q 269 1050 226 1050 q 346 1019 315 1050 q 376 944 376 988 m 329 -26 q 131 54 189 -26 q 72 254 72 135 l 72 672 l 301 672 l 301 260 q 325 188 301 213 q 392 163 349 163 q 454 176 418 163 q 521 208 490 190 l 521 672 l 750 672 l 750 0 l 635 0 l 582 60 q 472 1 539 29 q 329 -26 404 -26 z "},"ū":{"ha":835,"x_min":72,"x_max":750,"o":"m 203 1031 l 593 1031 l 593 851 l 203 851 l 203 1031 m 329 -26 q 131 54 189 -26 q 72 254 72 135 l 72 672 l 301 672 l 301 260 q 325 188 301 213 q 392 163 349 163 q 454 176 418 163 q 521 208 490 190 l 521 672 l 750 672 l 750 0 l 635 0 l 582 60 q 472 1 539 29 q 329 -26 404 -26 z "},"ů":{"ha":835,"x_min":72,"x_max":750,"o":"m 567 976 q 517 867 567 910 q 403 825 468 825 q 288 867 336 825 q 239 976 239 910 q 288 1087 239 1042 q 403 1132 336 1132 q 517 1087 468 1132 q 567 976 567 1042 m 449 976 q 436 1008 449 994 q 406 1021 424 1021 q 373 1008 388 1021 q 358 976 358 994 q 373 944 358 958 q 406 931 388 931 q 436 944 424 931 q 449 976 449 958 m 329 -26 q 131 54 189 -26 q 72 254 72 135 l 72 672 l 301 672 l 301 260 q 325 188 301 213 q 392 163 349 163 q 454 176 418 163 q 521 208 490 190 l 521 672 l 750 672 l 750 0 l 635 0 l 582 60 q 472 1 539 29 q 329 -26 404 -26 z "},"ű":{"ha":835,"x_min":72,"x_max":761,"o":"m 258 1076 l 472 1076 l 322 817 l 161 817 l 258 1076 m 547 1076 l 761 1076 l 613 817 l 450 817 l 547 1076 m 329 -26 q 131 54 189 -26 q 72 254 72 135 l 72 672 l 301 672 l 301 260 q 325 188 301 213 q 392 163 349 163 q 454 176 418 163 q 521 208 490 190 l 521 672 l 750 672 l 750 0 l 635 0 l 582 60 q 472 1 539 29 q 329 -26 404 -26 z "},"ų":{"ha":835,"x_min":72,"x_max":879,"o":"m 329 -26 q 131 54 189 -26 q 72 254 72 135 l 72 672 l 301 672 l 301 260 q 325 188 301 213 q 392 163 349 163 q 454 176 418 163 q 521 208 490 190 l 521 672 l 750 672 l 750 0 q 720 -51 735 -18 q 706 -111 706 -83 q 716 -141 706 -128 q 746 -154 726 -154 q 773 -149 758 -154 q 806 -128 788 -143 l 879 -260 q 810 -302 853 -286 q 718 -318 768 -318 q 577 -260 626 -318 q 528 -129 528 -203 q 550 -29 528 -75 q 596 43 572 17 l 582 60 q 472 1 539 29 q 329 -26 404 -26 z "},"ý":{"ha":758,"x_min":11,"x_max":746,"o":"m 322 1076 l 551 1076 l 401 817 l 226 817 l 322 1076 m 246 -12 l 260 24 l 11 649 l 238 674 q 308 478 272 576 q 379 283 344 379 q 447 478 414 379 q 515 674 481 576 l 746 674 l 447 -82 q 330 -224 414 -164 q 150 -306 246 -283 l 72 -125 q 176 -76 121 -104 q 246 -12 232 -47 z "},"ÿ":{"ha":758,"x_min":11,"x_max":746,"o":"m 629 943 q 599 868 629 899 q 522 838 568 838 q 447 868 479 838 q 415 943 415 899 q 447 1019 415 988 q 522 1050 479 1050 q 599 1019 568 1050 q 629 943 629 988 m 346 943 q 315 868 346 899 q 238 838 283 838 q 163 868 194 838 q 131 943 131 899 q 163 1019 131 988 q 238 1050 194 1050 q 315 1019 283 1050 q 346 943 346 988 m 246 -12 l 260 24 l 11 649 l 238 674 q 308 478 272 576 q 379 283 344 379 q 447 478 414 379 q 515 674 481 576 l 746 674 l 447 -82 q 330 -224 414 -164 q 150 -306 246 -283 l 72 -125 q 176 -76 121 -104 q 246 -12 232 -47 z "},"ź":{"ha":654,"x_min":25,"x_max":622,"o":"m 303 1076 l 532 1076 l 382 817 l 207 817 l 303 1076 m 600 550 q 460 365 531 458 q 319 181 390 272 l 601 181 l 622 0 l 53 0 q 40 59 47 29 q 25 118 32 89 l 307 496 l 78 496 l 51 678 l 589 678 q 590 672 589 675 q 590 667 590 669 q 596 608 593 638 q 600 550 599 579 z "},"ż":{"ha":654,"x_min":25,"x_max":622,"o":"m 460 943 q 426 858 460 892 q 343 825 393 825 q 258 858 293 825 q 224 943 224 892 q 258 1028 224 993 q 343 1063 293 1063 q 426 1028 393 1063 q 460 943 460 993 m 600 550 q 460 365 531 458 q 319 181 390 272 l 601 181 l 622 0 l 53 0 q 40 59 47 29 q 25 118 32 89 l 307 496 l 78 496 l 51 678 l 589 678 q 590 672 589 675 q 590 667 590 669 q 596 608 593 638 q 600 550 599 579 z "},"ž":{"ha":654,"x_min":25,"x_max":628,"o":"m 32 1076 l 253 1076 l 333 989 l 413 1076 l 628 1076 l 396 817 l 264 817 l 32 1076 m 600 550 q 460 365 531 458 q 319 181 390 272 l 601 181 l 622 0 l 53 0 q 40 59 47 29 q 25 118 32 89 l 307 496 l 78 496 l 51 678 l 589 678 q 590 672 589 675 q 590 667 590 669 q 596 608 593 638 q 600 550 599 579 z "},"ş":{"ha":638,"x_min":47,"x_max":597,"o":"m 364 429 q 522 348 447 400 q 597 204 597 296 q 544 59 597 115 q 388 -11 492 3 l 374 -50 q 444 -108 421 -67 q 468 -186 468 -150 q 410 -304 468 -264 q 279 -344 351 -344 q 201 -331 244 -344 q 128 -293 158 -317 l 178 -179 q 217 -194 192 -186 q 260 -203 242 -203 q 290 -197 276 -203 q 304 -178 304 -192 q 272 -143 304 -158 q 185 -122 240 -128 l 231 -4 q 133 24 183 6 q 47 69 82 42 l 113 228 q 209 190 156 207 q 299 172 263 172 q 347 183 331 172 q 364 206 364 193 q 347 233 364 221 q 292 258 331 246 q 133 336 208 286 q 57 476 57 386 q 133 638 57 579 q 343 696 210 696 q 459 676 385 696 q 589 614 533 657 l 524 456 q 437 492 481 478 q 354 507 393 507 q 308 497 322 507 q 293 475 293 488 q 308 453 293 463 q 364 429 322 443 z "},"ķ":{"ha":768,"x_min":88,"x_max":765,"o":"m 315 981 l 315 463 q 447 577 381 519 q 579 693 514 635 q 647 613 613 653 q 713 535 681 574 l 526 386 l 765 0 l 515 0 l 367 260 q 341 239 354 250 q 315 218 328 228 l 315 0 l 88 0 l 88 965 l 315 981 m 517 -169 q 459 -322 517 -249 q 318 -429 401 -394 l 271 -326 q 313 -296 290 -317 q 343 -253 336 -275 q 299 -213 319 -243 q 278 -147 278 -183 q 312 -67 278 -104 q 396 -29 346 -29 q 481 -67 446 -29 q 517 -169 517 -106 z "},"ļ":{"ha":403,"x_min":85,"x_max":329,"o":"m 315 981 l 315 0 l 88 0 l 88 965 l 315 981 m 329 -169 q 272 -322 329 -249 q 131 -429 214 -394 l 85 -326 q 126 -296 103 -317 q 157 -253 150 -275 q 111 -213 132 -243 q 90 -147 90 -183 q 124 -67 90 -104 q 210 -29 158 -29 q 294 -67 260 -29 q 329 -169 329 -106 z "},"ņ":{"ha":846,"x_min":85,"x_max":772,"o":"m 511 699 q 712 618 651 699 q 772 418 772 538 l 772 0 l 544 0 l 544 413 q 519 485 544 460 q 450 510 493 510 q 382 494 421 510 q 313 461 343 479 l 313 0 l 85 0 l 85 672 l 200 672 l 253 610 q 367 670 297 642 q 511 699 438 699 m 538 -169 q 480 -323 538 -250 q 339 -429 422 -396 l 293 -328 q 335 -297 313 -318 q 365 -254 358 -276 q 320 -215 340 -244 q 300 -149 300 -185 q 334 -67 300 -106 q 419 -29 368 -29 q 503 -68 468 -29 q 538 -169 538 -107 z "},"ŗ":{"ha":531,"x_min":78,"x_max":519,"o":"m 474 674 l 519 490 q 415 472 471 490 q 313 414 360 453 l 313 0 l 83 0 l 83 672 l 199 672 l 260 593 q 360 649 301 624 q 474 674 418 674 m 324 -169 q 266 -322 324 -249 q 125 -429 208 -394 l 78 -326 q 121 -296 97 -317 q 151 -253 144 -275 q 105 -213 125 -243 q 85 -147 85 -183 q 119 -67 85 -104 q 204 -29 153 -29 q 288 -67 253 -29 q 324 -169 324 -106 z "},"ţ":{"ha":603,"x_min":11,"x_max":589,"o":"m 589 33 q 528 2 568 15 q 450 -15 489 -11 l 439 -49 q 510 -107 486 -65 q 533 -185 533 -149 q 476 -303 533 -262 q 346 -344 418 -344 q 267 -330 310 -344 q 193 -293 224 -315 l 243 -178 q 282 -193 257 -185 q 325 -201 307 -201 q 356 -196 343 -201 q 369 -176 369 -190 q 338 -142 369 -157 q 250 -121 306 -128 q 274 -61 263 -90 q 297 -3 285 -32 q 161 87 211 22 q 111 256 111 151 l 111 476 l 11 476 l 11 654 l 111 654 l 111 829 l 339 863 l 339 654 l 488 654 q 504 565 496 610 q 522 476 513 519 l 339 476 l 339 268 q 363 196 339 224 q 433 168 388 168 q 476 174 451 168 q 522 192 500 179 l 589 33 z "},"ș":{"ha":638,"x_min":47,"x_max":597,"o":"m 364 429 q 522 348 447 400 q 597 204 597 296 q 527 42 597 100 q 317 -15 457 -15 q 188 6 274 -15 q 47 69 103 26 l 113 228 q 209 190 156 207 q 299 172 263 172 q 347 183 331 172 q 364 206 364 193 q 347 233 364 221 q 292 258 331 246 q 133 336 208 286 q 57 476 57 386 q 133 638 57 579 q 343 696 210 696 q 459 676 385 696 q 589 614 533 657 l 524 456 q 437 492 481 478 q 354 507 393 507 q 308 497 322 507 q 293 475 293 488 q 308 453 293 463 q 364 429 322 443 m 446 -169 q 388 -323 446 -250 q 247 -429 331 -396 l 200 -328 q 242 -297 219 -318 q 272 -254 265 -276 q 227 -215 247 -244 q 207 -149 207 -185 q 241 -67 207 -106 q 325 -29 275 -29 q 410 -68 375 -29 q 446 -169 446 -107 z "},"ț":{"ha":603,"x_min":13,"x_max":589,"o":"m 419 -19 q 202 46 293 -19 q 111 240 111 111 l 111 476 l 13 476 l 13 654 l 111 654 l 111 829 l 339 863 l 339 654 l 488 654 l 522 476 l 339 476 l 339 269 q 363 196 339 224 q 435 168 388 168 q 477 174 453 168 q 524 192 501 181 l 589 35 q 514 -3 565 13 q 419 -19 463 -19 m 526 -169 q 469 -323 526 -250 q 328 -429 411 -396 l 281 -328 q 323 -297 300 -318 q 354 -254 346 -276 q 308 -215 329 -244 q 288 -149 288 -185 q 322 -67 288 -106 q 407 -29 356 -29 q 491 -68 456 -29 q 526 -169 526 -107 z "},"­":{"ha":181,"x_min":0,"x_max":0,"o":""},"µ":{"ha":822,"x_min":88,"x_max":763,"o":"m 343 -25 q 328 -24 335 -25 q 315 -22 321 -24 l 315 -290 l 88 -304 l 88 672 l 315 672 l 315 260 q 339 187 315 213 q 406 161 363 161 q 468 175 432 161 q 535 207 504 189 l 535 672 l 763 672 l 763 0 l 647 0 q 622 29 633 14 q 596 60 610 44 q 485 2 553 29 q 343 -25 418 -25 z "},"ˉ":{"ha":422,"x_min":17,"x_max":407,"o":"m 17 1031 l 407 1031 l 407 851 l 17 851 l 17 1031 z "},"ℓ":{"ha":675,"x_min":21,"x_max":632,"o":"m 21 414 q 76 438 44 424 q 143 471 108 453 l 143 747 q 219 913 143 851 q 394 975 296 975 q 565 918 497 975 q 632 761 632 861 q 555 558 632 657 q 371 381 478 458 l 371 244 q 392 188 371 201 q 454 174 413 174 q 497 179 471 174 q 550 201 524 185 l 618 49 q 535 3 588 22 q 438 -15 483 -15 q 226 40 310 -15 q 143 221 143 94 l 143 249 q 108 234 125 242 q 74 221 90 226 l 21 414 m 365 739 l 365 608 q 408 677 392 640 q 425 753 425 714 q 419 782 425 772 q 394 792 414 792 q 373 777 381 792 q 365 739 365 763 z "},"Ω":{"ha":1033,"x_min":61,"x_max":972,"o":"m 515 772 q 357 691 415 772 q 299 472 299 610 q 328 295 299 383 q 425 181 358 207 l 425 0 l 78 0 l 61 181 l 158 181 q 88 318 113 240 q 63 472 63 396 q 184 827 63 690 q 515 964 306 964 q 848 827 726 964 q 969 472 969 690 q 945 318 969 396 q 874 181 921 240 l 972 181 l 954 0 l 607 0 q 608 158 608 135 q 608 181 608 181 q 704 297 674 210 q 735 472 735 383 q 675 691 735 610 q 515 772 615 772 z "},"∆":{"ha":949,"x_min":13,"x_max":936,"o":"m 551 944 l 936 25 l 738 0 l 13 0 l 399 944 l 551 944 m 471 611 l 297 181 l 647 181 l 471 611 z "},"∕":{"ha":665,"x_min":7,"x_max":658,"o":"m 658 981 l 243 0 l 7 0 l 421 981 l 658 981 z "},"∙":{"ha":414,"x_min":42,"x_max":372,"o":"m 42 460 q 90 576 42 528 q 206 624 138 624 q 323 576 274 624 q 372 460 372 528 q 323 344 372 392 q 206 296 274 296 q 90 344 138 296 q 42 460 42 392 z "},"₺":{"ha":882,"x_min":56,"x_max":857,"o":"m 396 981 l 396 856 l 564 914 q 585 839 574 876 q 607 764 596 801 l 396 690 l 396 640 l 564 700 q 585 624 574 663 q 607 550 596 586 l 396 475 l 396 194 q 556 268 490 196 q 622 479 622 340 q 740 478 681 479 q 857 478 799 478 q 733 130 857 260 q 396 0 610 0 l 168 0 l 168 396 l 72 363 l 56 521 l 168 560 l 168 610 l 72 576 l 56 735 q 112 755 83 744 q 168 775 140 765 l 168 963 l 396 981 z "},"₽":{"ha":911,"x_min":29,"x_max":863,"o":"m 706 113 l 375 113 l 375 0 l 147 0 l 147 113 l 43 113 l 29 274 l 147 274 l 147 326 l 29 326 l 29 507 l 147 507 l 147 944 l 479 944 q 749 873 636 944 q 863 632 863 801 q 741 397 863 467 q 468 326 619 326 l 375 326 l 375 274 l 692 274 l 706 113 m 472 761 l 375 761 l 375 507 l 475 507 q 584 536 542 507 q 626 629 626 565 q 585 731 626 701 q 472 761 544 761 z "},"¢":{"ha":676,"x_min":47,"x_max":638,"o":"m 425 507 q 324 460 365 507 q 283 336 283 413 q 324 216 283 260 q 425 172 365 172 q 497 181 464 172 q 572 211 529 190 l 638 53 q 572 14 607 28 q 501 -7 536 0 l 501 -179 l 303 -164 l 303 -4 q 115 110 183 22 q 47 336 47 199 q 115 564 47 474 q 301 683 183 654 l 301 867 l 500 867 l 500 685 q 571 664 535 679 q 638 626 607 649 l 572 468 q 497 498 529 489 q 425 507 465 507 z "},"£":{"ha":713,"x_min":51,"x_max":697,"o":"m 51 560 l 161 560 l 161 688 q 245 878 161 808 q 454 949 329 949 q 555 934 500 949 q 638 894 610 919 l 571 738 q 524 755 549 749 q 482 761 500 761 q 413 733 436 761 q 390 661 390 706 l 390 560 l 568 560 l 603 382 l 390 382 l 390 267 q 386 219 390 242 q 375 178 382 197 l 672 178 l 697 0 l 65 0 l 65 178 l 78 178 q 140 207 119 179 q 161 278 161 235 l 161 382 l 51 382 l 51 560 z "},"¤":{"ha":1050,"x_min":28,"x_max":1021,"o":"m 381 343 q 424 240 382 282 q 525 199 465 199 q 630 241 588 199 q 672 344 672 283 q 628 447 672 406 q 525 489 585 489 q 422 447 463 489 q 381 343 382 404 m 526 -17 q 431 -5 479 -15 q 344 25 383 6 q 266 -57 322 3 q 192 -135 210 -117 l 39 25 l 192 176 q 163 253 174 211 q 153 342 153 296 q 164 432 153 389 q 193 510 175 475 l 28 664 l 196 818 l 344 663 q 431 694 383 682 q 525 706 478 706 q 619 694 572 706 q 706 664 667 683 q 784 745 728 686 q 858 822 840 804 l 1010 664 l 858 513 q 888 435 876 478 q 899 346 899 393 q 888 256 899 299 q 857 175 876 213 l 1021 24 l 853 -131 l 706 25 q 620 -5 667 6 q 526 -17 574 -15 z "},"¥":{"ha":899,"x_min":11,"x_max":886,"o":"m 764 76 l 558 76 l 558 0 l 331 0 l 331 76 l 143 76 l 128 228 l 331 228 l 331 286 l 143 286 l 128 438 l 292 438 q 151 678 221 557 q 11 919 82 800 l 247 944 q 346 765 297 854 q 443 585 394 675 q 547 765 494 675 q 650 944 599 854 l 886 944 l 599 438 l 750 438 l 764 286 l 558 286 l 558 228 l 750 228 l 764 76 z "},"€":{"ha":928,"x_min":38,"x_max":890,"o":"m 726 281 l 443 281 q 515 199 469 229 q 621 169 561 169 q 721 183 676 169 q 804 218 765 197 q 848 133 826 175 q 890 47 869 90 q 760 -1 836 17 q 617 -18 685 -18 q 341 64 444 -18 q 199 281 238 146 l 54 281 l 38 432 l 175 432 q 174 449 174 440 q 174 468 174 458 q 174 488 174 478 q 175 507 174 497 l 54 507 l 38 660 l 201 660 q 351 879 244 796 q 615 963 457 963 q 751 944 676 963 q 882 890 825 926 l 813 733 q 706 765 742 757 q 618 774 669 774 q 515 744 560 774 q 442 660 469 714 l 713 660 l 726 507 l 403 507 q 402 488 403 497 q 401 469 401 479 q 402 451 401 460 q 403 432 403 442 l 713 432 l 726 281 z "},"$":{"ha":778,"x_min":57,"x_max":733,"o":"m 196 -169 l 196 6 q 122 31 157 17 q 65 60 88 46 q 100 147 83 103 q 133 235 117 190 q 238 192 172 213 q 358 172 304 172 q 462 197 426 172 q 497 256 497 221 q 277 415 497 340 q 57 697 57 490 q 97 831 57 771 q 211 925 136 890 l 211 1114 l 360 1108 l 360 961 q 379 963 369 963 q 399 964 389 964 q 413 963 406 964 q 428 961 419 963 l 428 1114 l 579 1114 l 579 931 q 629 911 606 922 q 674 888 653 900 l 603 726 q 496 762 539 750 q 401 774 453 774 q 322 755 351 774 q 292 697 292 736 q 512 533 292 613 q 733 253 732 453 q 690 115 733 176 q 568 18 647 53 l 568 -172 l 417 -156 l 417 -15 q 391 -17 404 -17 q 364 -18 378 -18 l 346 -18 l 346 -169 l 196 -169 z "},",":{"ha":283,"x_min":14,"x_max":267,"o":"m 267 63 q 208 -97 267 -17 q 61 -214 149 -176 l 14 -111 q 63 -71 39 -93 q 93 -21 86 -49 q 49 19 69 -11 q 28 85 28 49 q 63 166 28 128 q 147 204 97 204 q 231 165 196 204 q 267 63 267 126 z "},".":{"ha":265,"x_min":14,"x_max":250,"o":"m 250 118 q 216 33 250 67 q 133 0 182 0 q 48 33 82 0 q 14 118 14 67 q 48 202 14 168 q 133 236 82 236 q 216 202 182 236 q 250 118 250 168 z "},"!":{"ha":342,"x_min":51,"x_max":289,"o":"m 82 343 l 56 986 l 286 986 l 261 283 l 82 343 m 289 118 q 255 33 289 67 q 171 0 221 0 q 86 33 121 0 q 51 118 51 67 q 86 202 51 168 q 171 236 121 236 q 255 202 221 236 q 289 118 289 168 z "},"¡":{"ha":342,"x_min":51,"x_max":289,"o":"m 51 868 q 86 952 51 918 q 169 986 121 986 q 255 952 221 986 q 289 868 289 918 q 255 783 289 817 q 169 749 221 749 q 86 783 121 749 q 51 868 51 817 m 260 643 l 285 0 l 54 0 l 81 703 l 260 643 z "},":":{"ha":265,"x_min":14,"x_max":250,"o":"m 250 542 q 216 458 250 492 q 133 424 182 424 q 48 458 82 424 q 14 542 14 492 q 48 626 14 592 q 133 660 82 660 q 216 626 182 660 q 250 542 250 592 m 250 118 q 216 33 250 67 q 133 0 182 0 q 48 33 82 0 q 14 118 14 67 q 48 202 14 168 q 133 236 82 236 q 216 202 182 236 q 250 118 250 168 z "},";":{"ha":275,"x_min":4,"x_max":258,"o":"m 258 542 q 224 458 258 492 q 140 424 190 424 q 55 458 89 424 q 21 542 21 492 q 55 626 21 592 q 140 660 89 660 q 224 626 190 660 q 258 542 258 592 m 257 96 q 197 -63 257 17 q 50 -181 138 -143 l 4 -78 q 53 -37 29 -60 q 83 13 76 -15 q 39 52 60 22 q 18 118 18 82 q 52 199 18 161 q 136 236 86 236 q 222 197 186 236 q 257 96 257 158 z "},"?":{"ha":643,"x_min":31,"x_max":608,"o":"m 608 713 q 549 560 608 631 q 368 442 489 490 l 349 271 l 175 325 l 164 550 q 319 626 258 581 q 379 715 379 671 q 354 768 379 749 q 293 788 329 788 q 197 772 254 788 q 60 708 139 756 l 31 900 q 165 957 99 940 q 297 974 231 974 q 524 901 440 974 q 608 713 608 829 m 368 118 q 333 33 368 67 q 250 0 299 0 q 165 33 200 0 q 131 118 131 67 q 165 202 131 168 q 250 236 200 236 q 333 202 299 236 q 368 118 368 168 z "},"¿":{"ha":663,"x_min":47,"x_max":625,"o":"m 288 804 q 322 888 288 854 q 406 922 356 922 q 490 888 456 922 q 525 804 525 854 q 490 719 525 754 q 406 685 456 685 q 322 719 356 685 q 288 804 288 754 m 47 210 q 107 362 47 292 q 288 481 167 432 l 306 650 l 481 597 l 492 374 q 336 297 397 343 q 275 207 275 251 q 300 154 275 174 q 363 135 325 135 q 459 151 401 135 q 596 214 517 167 l 625 22 q 491 -35 557 -18 q 357 -51 425 -51 q 131 21 214 -51 q 47 210 47 93 z "},"*":{"ha":586,"x_min":21,"x_max":565,"o":"m 293 700 l 201 568 l 57 664 l 156 793 q 88 807 143 796 q 21 819 33 818 l 67 981 l 201 944 q 203 1011 201 956 q 204 1079 204 1067 l 385 1079 l 385 944 l 519 981 l 565 819 l 432 794 l 531 664 l 386 568 l 293 700 z "},"\"":{"ha":558,"x_min":13,"x_max":544,"o":"m 544 890 q 485 731 544 810 q 338 614 425 651 l 292 715 q 340 756 317 733 q 371 806 364 779 q 326 845 346 815 q 306 911 306 875 q 340 992 306 954 q 425 1031 374 1031 q 509 992 474 1031 q 544 890 544 953 m 264 890 q 205 731 264 810 q 58 614 146 651 l 13 715 q 61 756 38 733 q 92 806 85 779 q 46 845 67 815 q 25 911 25 875 q 60 992 25 954 q 144 1031 94 1031 q 229 992 194 1031 q 264 890 264 953 z "},"'":{"ha":278,"x_min":13,"x_max":264,"o":"m 264 890 q 205 731 264 810 q 58 614 146 651 l 13 715 q 61 756 38 733 q 92 806 85 779 q 46 845 67 815 q 25 911 25 875 q 60 992 25 954 q 144 1031 94 1031 q 229 992 194 1031 q 264 890 264 953 z "},"‘":{"ha":278,"x_min":14,"x_max":267,"o":"m 14 754 q 73 914 14 835 q 219 1031 132 993 l 267 929 q 218 888 242 911 q 188 839 194 865 q 232 799 211 829 q 253 733 253 769 q 219 652 253 690 q 133 614 185 614 q 49 653 83 614 q 14 754 14 692 z "},"’":{"ha":278,"x_min":13,"x_max":264,"o":"m 264 890 q 205 731 264 810 q 58 614 146 651 l 13 715 q 61 756 38 733 q 92 806 85 779 q 46 845 67 815 q 25 911 25 875 q 60 992 25 954 q 144 1031 94 1031 q 229 992 194 1031 q 264 890 264 953 z "},"‚":{"ha":278,"x_min":13,"x_max":264,"o":"m 264 63 q 205 -97 264 -17 q 58 -214 146 -176 l 13 -111 q 61 -71 38 -93 q 92 -21 85 -49 q 46 19 67 -11 q 25 85 25 49 q 60 166 25 128 q 144 204 94 204 q 229 165 194 204 q 264 63 264 126 z "},"“":{"ha":558,"x_min":14,"x_max":547,"o":"m 14 754 q 73 914 14 835 q 219 1031 132 993 l 267 929 q 218 888 242 911 q 188 839 194 865 q 232 799 211 829 q 253 733 253 769 q 219 652 253 690 q 133 614 185 614 q 49 653 83 614 q 14 754 14 692 m 293 754 q 353 914 293 835 q 500 1031 413 993 l 547 929 q 497 888 521 911 q 467 839 474 865 q 512 799 490 829 q 533 733 533 769 q 499 652 533 690 q 414 614 464 614 q 328 653 364 614 q 293 754 293 692 z "},"”":{"ha":558,"x_min":13,"x_max":544,"o":"m 544 890 q 485 731 544 810 q 338 614 425 651 l 292 715 q 340 756 317 733 q 371 806 364 779 q 326 845 346 815 q 306 911 306 875 q 340 992 306 954 q 425 1031 374 1031 q 509 992 474 1031 q 544 890 544 953 m 264 890 q 205 731 264 810 q 58 614 146 651 l 13 715 q 61 756 38 733 q 92 806 85 779 q 46 845 67 815 q 25 911 25 875 q 60 992 25 954 q 144 1031 94 1031 q 229 992 194 1031 q 264 890 264 953 z "},"„":{"ha":558,"x_min":13,"x_max":544,"o":"m 544 63 q 485 -97 544 -17 q 338 -214 425 -176 l 292 -111 q 340 -71 317 -93 q 371 -21 364 -49 q 326 19 346 -11 q 306 85 306 49 q 340 166 306 128 q 425 204 374 204 q 509 165 474 204 q 544 63 544 126 m 264 63 q 205 -97 264 -17 q 58 -214 146 -176 l 13 -111 q 61 -71 38 -93 q 92 -21 85 -49 q 46 19 67 -11 q 25 85 25 49 q 60 166 25 128 q 144 204 94 204 q 229 165 194 204 q 264 63 264 126 z "},"·":{"ha":265,"x_min":14,"x_max":250,"o":"m 250 365 q 216 281 250 314 q 133 247 182 247 q 48 281 82 247 q 14 365 14 314 q 48 449 14 415 q 133 483 82 483 q 216 449 182 483 q 250 365 250 415 z "},"(":{"ha":456,"x_min":57,"x_max":431,"o":"m 57 446 q 103 703 57 581 q 233 947 149 826 l 431 896 q 326 683 371 814 q 281 447 281 551 q 325 206 281 340 q 429 -1 369 71 l 233 -54 q 104 181 151 54 q 57 446 57 308 z "},")":{"ha":456,"x_min":26,"x_max":400,"o":"m 400 447 q 353 190 400 313 q 222 -54 307 67 l 26 -3 q 131 210 86 79 q 175 446 175 342 q 131 688 175 553 q 28 894 88 822 l 224 947 q 352 712 304 839 q 400 447 400 585 z "},"[":{"ha":565,"x_min":96,"x_max":553,"o":"m 324 786 l 324 57 l 528 57 q 540 -31 533 14 q 553 -121 546 -76 l 96 -121 l 96 967 l 553 967 l 528 786 l 324 786 z "},"]":{"ha":565,"x_min":11,"x_max":468,"o":"m 239 57 l 239 786 l 35 786 q 23 876 29 832 q 11 967 17 921 l 468 967 l 468 -121 l 11 -121 l 35 57 l 239 57 z "},"{":{"ha":431,"x_min":42,"x_max":421,"o":"m 343 308 q 319 222 343 263 q 294 143 294 181 q 307 115 294 129 q 347 101 319 101 l 403 101 l 421 -56 l 328 -56 q 167 -10 217 -56 q 117 118 117 35 q 138 218 117 161 q 160 303 160 275 q 143 342 160 326 q 104 358 126 358 l 42 358 l 42 497 l 104 497 q 143 513 126 497 q 160 553 160 528 q 149 610 160 581 q 133 665 139 639 q 122 703 128 683 q 117 740 117 724 q 170 871 117 826 q 340 915 224 915 l 421 915 l 403 756 l 347 756 q 307 742 319 756 q 294 715 294 729 q 318 631 294 674 q 342 542 342 589 q 328 472 342 497 q 294 429 315 446 q 329 380 315 410 q 343 308 343 350 z "},"}":{"ha":431,"x_min":10,"x_max":386,"o":"m 86 549 q 110 635 86 594 q 133 715 133 676 q 122 742 133 729 q 82 756 110 756 l 26 756 l 10 915 l 101 915 q 262 869 210 915 q 314 740 314 822 q 291 640 314 694 q 268 553 268 586 q 285 513 268 528 q 324 497 301 497 l 386 497 l 386 360 l 324 360 q 285 344 301 360 q 268 303 268 329 q 279 247 268 275 q 296 192 290 218 q 308 153 301 174 q 314 118 314 133 q 258 -13 314 29 q 88 -56 203 -56 l 10 -56 l 26 101 l 82 101 q 122 115 110 101 q 133 143 133 129 q 113 215 133 178 q 89 293 92 253 q 88 315 88 304 q 88 336 88 326 q 103 392 90 371 q 135 428 117 414 q 99 477 113 447 q 86 549 86 507 z "},"/":{"ha":665,"x_min":7,"x_max":658,"o":"m 658 981 l 243 0 l 7 0 l 421 981 l 658 981 z "},"\\":{"ha":665,"x_min":7,"x_max":658,"o":"m 422 -6 l 7 986 l 243 986 l 658 -6 l 422 -6 z "},"|":{"ha":476,"x_min":124,"x_max":351,"o":"m 351 971 l 351 -18 l 124 0 l 124 990 q 133 990 128 990 q 142 989 138 989 q 247 979 194 983 q 351 971 299 975 z "},"¦":{"ha":476,"x_min":124,"x_max":351,"o":"m 351 971 l 351 553 q 247 561 299 557 q 142 571 194 565 q 133 572 138 571 q 124 572 128 572 l 124 990 q 133 990 128 990 q 142 989 138 989 q 247 979 194 983 q 351 971 299 975 m 351 399 l 351 -18 l 124 0 l 124 417 l 351 399 z "},"«":{"ha":554,"x_min":28,"x_max":535,"o":"m 494 106 l 274 310 l 274 374 l 494 579 l 535 439 l 433 342 l 535 244 l 494 106 m 247 106 l 28 310 l 28 374 l 247 579 l 289 439 l 188 342 l 289 244 l 247 106 z "},"»":{"ha":554,"x_min":19,"x_max":526,"o":"m 61 579 l 279 375 l 279 311 l 61 106 l 19 244 l 119 342 l 19 440 l 61 579 m 306 579 l 526 375 l 526 311 l 306 106 l 265 244 l 367 342 l 265 440 l 306 579 z "},"π":{"ha":1075,"x_min":54,"x_max":1022,"o":"m 657 0 l 657 494 l 418 494 l 418 0 l 190 0 l 190 494 l 54 494 l 54 674 l 1022 674 l 1022 494 l 886 494 l 886 0 l 657 0 z "},"†":{"ha":665,"x_min":38,"x_max":629,"o":"m 451 1083 l 451 868 l 604 868 l 629 681 l 436 681 l 436 0 l 221 0 l 221 681 l 64 681 l 38 868 l 221 868 l 221 1083 l 451 1083 z "},"‡":{"ha":694,"x_min":42,"x_max":651,"o":"m 222 -8 l 229 214 l 68 214 l 42 403 l 229 403 l 229 681 l 68 681 l 42 868 l 225 868 l 225 1083 l 467 1083 l 467 868 l 626 868 l 651 681 l 467 681 l 467 403 l 626 403 l 651 214 l 463 214 l 469 1 l 222 -8 z "},"•":{"ha":414,"x_min":42,"x_max":372,"o":"m 42 460 q 90 576 42 528 q 206 624 138 624 q 323 576 274 624 q 372 460 372 528 q 323 344 372 392 q 206 296 274 296 q 90 344 138 296 q 42 460 42 392 z "},"…":{"ha":768,"x_min":14,"x_max":753,"o":"m 229 107 q 198 31 229 61 q 122 0 167 0 q 45 31 76 0 q 14 107 14 61 q 45 184 14 153 q 122 215 76 215 q 198 184 167 215 q 229 107 229 153 m 753 107 q 722 29 753 60 q 646 -1 692 -1 q 570 29 601 -1 q 539 107 539 60 q 570 183 539 151 q 646 214 601 214 q 722 183 692 214 q 753 107 753 151 m 492 107 q 460 29 492 60 q 385 -1 429 -1 q 308 29 339 -1 q 276 107 276 60 q 308 183 276 151 q 385 214 339 214 q 460 183 429 214 q 492 107 492 151 z "},"‹":{"ha":338,"x_min":28,"x_max":317,"o":"m 275 92 l 28 306 l 28 388 l 275 601 l 317 432 l 218 347 l 317 260 l 275 92 z "},"›":{"ha":338,"x_min":22,"x_max":310,"o":"m 63 601 l 310 389 l 310 306 l 63 92 l 22 261 l 119 347 l 22 433 l 63 601 z "},"-":{"ha":447,"x_min":26,"x_max":422,"o":"m 422 290 l 42 290 l 26 469 l 408 469 l 422 290 z "},"_":{"ha":596,"x_min":26,"x_max":569,"o":"m 569 0 l 42 0 l 26 179 l 556 179 l 569 0 z "},"–":{"ha":596,"x_min":26,"x_max":569,"o":"m 569 290 l 42 290 l 26 469 l 556 469 l 569 290 z "},"—":{"ha":753,"x_min":26,"x_max":726,"o":"m 726 290 l 42 290 l 26 469 l 714 469 l 726 290 z "},"#":{"ha":842,"x_min":28,"x_max":813,"o":"m 767 718 q 751 649 760 683 q 735 582 743 615 l 799 582 l 813 415 l 696 415 l 667 290 l 799 290 l 813 124 l 628 124 q 610 51 618 88 q 594 -21 603 14 l 407 -14 q 422 55 414 21 q 438 124 431 89 l 294 124 q 277 51 285 88 q 260 -21 269 14 l 74 -14 q 89 55 81 21 q 104 124 97 89 l 43 124 l 28 290 l 144 290 q 158 353 150 321 q 172 415 165 385 l 43 415 l 28 582 l 213 582 l 244 718 l 435 718 l 401 582 l 546 582 q 561 651 553 617 q 578 718 569 686 l 767 718 m 363 415 q 348 353 356 385 q 335 290 340 321 l 476 290 l 506 415 l 363 415 z "},"%":{"ha":1339,"x_min":33,"x_max":1306,"o":"m 992 981 l 578 0 l 344 0 l 758 981 l 992 981 m 33 728 q 102 908 33 842 q 276 975 171 975 q 454 908 386 975 q 522 725 522 840 q 451 547 522 613 q 272 481 379 481 q 100 547 167 481 q 33 728 33 613 m 278 817 q 231 795 250 817 q 211 728 211 774 q 227 658 211 682 q 275 635 243 635 q 326 658 307 635 q 344 725 344 681 q 328 792 344 768 q 278 817 311 817 m 818 247 q 887 428 818 363 q 1061 494 956 494 q 1238 428 1171 494 q 1306 246 1306 361 q 1235 67 1306 133 q 1057 0 1164 0 q 885 67 951 0 q 818 247 818 133 m 1063 338 q 1015 316 1033 338 q 996 249 996 294 q 1012 178 996 201 q 1060 156 1028 156 q 1110 178 1092 156 q 1129 246 1129 201 q 1113 313 1129 289 q 1063 338 1096 338 z "},"+":{"ha":757,"x_min":26,"x_max":731,"o":"m 731 292 l 488 292 l 488 1 l 275 11 l 275 292 l 40 292 l 26 469 l 275 469 l 275 736 l 488 736 l 488 469 l 717 469 l 731 292 z "},"÷":{"ha":678,"x_min":26,"x_max":653,"o":"m 458 626 q 424 542 458 576 q 339 507 389 507 q 253 542 288 507 q 218 626 218 576 q 253 713 218 678 q 339 747 288 747 q 424 713 389 747 q 458 626 458 678 m 653 294 l 40 294 l 26 465 l 638 465 l 653 294 m 458 131 q 424 46 458 81 q 339 11 389 11 q 253 46 288 11 q 218 131 218 81 q 253 217 218 182 q 339 253 288 253 q 424 217 389 253 q 458 131 458 182 z "},"×":{"ha":799,"x_min":28,"x_max":769,"o":"m 28 67 q 147 213 88 139 q 267 358 207 286 l 39 644 q 142 660 90 653 q 246 675 194 668 l 390 492 l 536 672 l 769 672 l 503 347 q 623 191 554 278 q 746 40 692 104 l 518 40 l 381 215 q 340 165 365 197 q 235 33 314 133 q 131 49 183 42 q 28 67 79 57 z "},"±":{"ha":694,"x_min":29,"x_max":665,"o":"m 665 408 l 444 408 l 444 203 l 256 213 l 256 408 l 44 408 l 31 563 l 256 563 l 256 774 l 444 774 l 444 563 l 653 563 l 665 408 m 664 0 l 43 0 l 29 156 l 653 156 l 664 0 z "},"<":{"ha":513,"x_min":35,"x_max":481,"o":"m 439 7 l 35 296 l 35 399 l 439 685 l 481 490 l 276 347 l 481 204 l 439 7 z "},"=":{"ha":714,"x_min":28,"x_max":686,"o":"m 686 415 l 43 415 l 28 583 l 672 583 l 686 415 m 686 124 l 43 124 l 28 292 l 672 292 l 686 124 z "},">":{"ha":513,"x_min":33,"x_max":478,"o":"m 74 685 l 478 396 l 478 294 l 74 7 l 33 201 l 236 344 l 33 489 l 74 685 z "},"°":{"ha":389,"x_min":13,"x_max":376,"o":"m 376 826 q 322 703 376 753 q 196 654 267 654 q 67 703 121 654 q 13 826 13 753 q 67 951 13 900 q 196 1001 121 1001 q 322 951 267 1001 q 376 826 376 900 m 196 869 q 167 856 179 869 q 154 826 154 843 q 167 796 154 810 q 196 782 179 782 q 226 795 214 782 q 239 824 239 808 q 226 856 239 842 q 196 869 214 869 z "},"¹":{"ha":536,"x_min":56,"x_max":492,"o":"m 74 608 l 206 608 l 206 842 l 133 807 l 56 953 l 267 1060 l 388 1060 l 388 608 l 476 608 q 485 538 481 574 q 492 468 489 503 l 88 468 l 74 608 z "},"²":{"ha":564,"x_min":46,"x_max":507,"o":"m 486 890 q 455 767 486 824 q 350 649 424 711 l 304 608 l 490 608 l 507 468 l 51 468 l 51 589 l 233 746 q 297 816 276 785 q 318 878 317 847 q 301 910 318 897 q 256 924 285 924 q 178 901 218 924 q 119 864 139 878 l 46 986 q 135 1042 79 1013 q 264 1071 190 1071 q 438 1013 389 1071 q 486 890 486 954 z "},"³":{"ha":592,"x_min":22,"x_max":535,"o":"m 522 886 q 497 806 522 847 q 442 751 471 765 q 506 690 476 733 q 535 594 535 646 q 461 446 535 504 q 267 388 388 388 q 144 408 210 388 q 22 463 78 428 l 114 585 q 190 546 157 558 q 261 533 224 533 q 324 551 300 533 q 349 597 349 569 q 325 651 349 632 q 263 669 301 669 l 176 669 l 161 811 l 240 811 q 315 831 292 811 q 338 875 338 850 q 319 908 338 893 q 258 924 301 924 q 192 909 224 924 q 126 871 160 894 l 44 994 q 158 1053 99 1035 q 281 1071 218 1071 q 458 1018 393 1071 q 522 886 522 965 z "},"¼":{"ha":1349,"x_min":56,"x_max":1310,"o":"m 74 608 l 206 608 l 206 842 l 133 807 l 56 953 l 267 1060 l 388 1060 l 388 608 l 476 608 q 485 538 481 574 q 492 468 489 503 l 88 468 l 74 608 m 921 679 q 725 338 824 510 q 528 0 626 165 l 310 0 q 505 341 406 169 q 700 679 604 513 l 921 679 m 1297 -107 l 1194 -107 l 1194 -229 l 1010 -229 l 1010 -107 l 718 -107 l 697 32 l 1060 450 l 1194 450 l 1194 39 l 1310 39 l 1297 -107 m 907 39 l 1010 39 l 1010 161 l 907 39 z "},"½":{"ha":1347,"x_min":56,"x_max":1317,"o":"m 74 608 l 206 608 l 206 842 l 133 807 l 56 953 l 267 1060 l 388 1060 l 388 608 l 476 608 q 485 538 481 574 q 492 468 489 503 l 88 468 l 74 608 m 940 679 q 743 338 842 510 q 547 0 644 165 l 328 0 q 523 341 424 169 q 718 679 622 513 l 940 679 m 1296 269 q 1254 131 1296 192 q 1114 -11 1213 69 l 1300 -11 l 1317 -151 l 861 -151 l 861 -29 q 952 47 907 8 q 1043 125 997 86 q 1108 195 1088 164 q 1128 257 1128 226 q 1111 290 1128 276 q 1065 304 1094 304 q 988 281 1028 304 q 929 244 947 258 q 892 306 911 275 q 856 367 874 336 q 944 422 889 393 q 1074 450 1000 450 q 1247 392 1199 450 q 1296 269 1296 333 z "},"¾":{"ha":1369,"x_min":22,"x_max":1331,"o":"m 943 679 l 550 0 l 331 0 l 722 679 l 943 679 m 522 886 q 497 806 522 847 q 442 751 471 765 q 506 690 476 733 q 535 594 535 646 q 461 446 535 504 q 267 388 388 388 q 144 408 210 388 q 22 463 78 428 l 114 585 q 190 546 157 558 q 261 533 224 533 q 324 551 300 533 q 349 597 349 569 q 325 651 349 632 q 263 669 301 669 l 176 669 l 161 811 l 240 811 q 315 831 292 811 q 338 875 338 850 q 319 908 338 893 q 258 924 301 924 q 192 909 224 924 q 126 871 160 894 l 44 994 q 158 1053 99 1035 q 281 1071 218 1071 q 458 1018 393 1071 q 522 886 522 965 m 1319 -107 l 1217 -107 l 1217 -231 l 1031 -231 l 1031 -107 l 740 -107 l 719 33 l 1082 451 l 1217 451 l 1217 40 l 1331 40 l 1319 -107 m 928 40 l 1031 40 l 1031 161 l 928 40 z "},"℮":{"ha":751,"x_min":38,"x_max":708,"o":"m 392 696 q 631 591 553 696 q 708 344 708 486 l 708 268 l 285 268 q 339 195 300 219 q 435 171 378 171 q 524 180 481 171 q 610 210 567 189 l 674 53 q 540 -1 619 13 q 418 -15 460 -15 q 143 72 249 -15 q 38 336 38 160 q 138 599 38 503 q 392 696 239 696 m 386 510 q 317 483 344 510 q 281 410 290 457 l 490 410 q 460 479 485 449 q 386 510 436 510 z "},"∂":{"ha":829,"x_min":42,"x_max":768,"o":"m 367 581 q 422 572 393 581 q 481 547 451 563 q 332 666 424 619 q 169 728 240 713 l 275 885 q 626 694 483 842 q 768 375 768 547 q 654 85 768 182 q 374 -12 540 -12 q 133 82 224 -12 q 42 297 42 176 q 134 497 42 414 q 367 581 226 581 m 381 174 q 483 214 442 174 q 536 331 524 254 q 476 388 514 361 q 392 415 438 415 q 301 378 332 415 q 269 292 269 342 q 299 211 269 249 q 381 174 328 174 z "},"∏":{"ha":1036,"x_min":124,"x_max":911,"o":"m 683 0 l 683 765 l 351 765 l 351 0 l 124 0 l 124 944 l 911 944 l 911 0 l 683 0 z "},"∑":{"ha":711,"x_min":64,"x_max":688,"o":"m 688 0 l 64 0 l 64 167 l 282 478 l 68 776 l 68 944 l 613 944 l 638 764 l 322 764 q 409 640 365 703 q 496 515 453 578 l 496 442 q 408 310 453 376 q 319 178 363 244 l 663 178 l 688 0 z "},"−":{"ha":649,"x_min":26,"x_max":624,"o":"m 624 290 l 40 290 l 26 469 l 608 469 l 624 290 z "},"√":{"ha":981,"x_min":7,"x_max":974,"o":"m 974 981 l 560 0 l 263 0 l 7 474 l 260 474 l 411 193 l 742 981 l 974 981 z "},"∞":{"ha":1233,"x_min":50,"x_max":1181,"o":"m 842 471 q 765 426 799 471 q 713 329 731 382 l 701 299 q 764 242 728 264 q 842 219 800 219 q 930 260 896 219 q 964 356 964 301 q 930 436 964 401 q 842 471 896 471 m 390 218 q 476 276 438 218 q 529 392 515 333 q 468 447 504 425 q 390 469 432 469 q 302 428 336 469 q 268 333 268 388 q 302 253 268 288 q 390 218 336 218 m 624 563 q 717 640 654 607 q 847 674 781 674 q 1090 585 1000 674 q 1181 353 1181 497 q 1087 112 1181 207 q 850 17 993 17 q 712 49 774 17 q 608 126 650 81 q 515 49 578 83 q 385 15 451 15 q 145 104 240 15 q 50 338 50 193 q 144 580 50 486 q 382 674 239 674 q 520 641 458 674 q 624 563 582 608 z "},"∫":{"ha":726,"x_min":7,"x_max":719,"o":"m 174 -249 q 81 -233 131 -249 q 7 -194 31 -217 l 72 -37 q 118 -54 94 -49 q 160 -60 142 -60 q 227 -33 206 -60 q 249 40 249 -6 l 249 826 q 337 1022 249 956 q 553 1088 425 1088 q 646 1072 596 1088 q 719 1033 696 1056 l 654 876 q 608 894 632 888 q 567 900 585 900 q 499 872 521 900 q 478 800 478 844 l 478 14 q 390 -182 478 -115 q 174 -249 301 -249 z "},"≈":{"ha":742,"x_min":28,"x_max":713,"o":"m 522 404 q 397 430 464 404 q 265 456 329 456 q 217 435 243 456 q 190 389 190 415 l 28 418 q 88 576 28 528 q 240 625 147 625 q 369 599 293 625 q 494 574 446 574 q 533 594 517 574 q 550 640 549 614 l 713 611 q 663 453 713 503 q 522 404 614 404 m 522 119 q 397 145 464 119 q 265 171 329 171 q 217 151 243 171 q 190 106 190 132 l 28 133 q 88 293 28 246 q 240 340 147 340 q 369 315 293 340 q 494 290 446 290 q 533 310 517 290 q 550 356 549 329 l 713 328 q 663 170 713 221 q 522 119 613 119 z "},"≠":{"ha":742,"x_min":28,"x_max":713,"o":"m 640 718 q 610 651 625 685 q 581 585 594 618 l 700 585 l 713 408 l 503 408 l 450 290 l 700 290 l 713 114 l 371 114 l 311 -21 l 103 -14 q 131 49 117 17 q 160 114 146 82 l 43 114 l 28 290 l 238 290 l 290 408 l 43 408 l 28 585 l 368 585 l 429 718 l 640 718 z "},"≤":{"ha":522,"x_min":29,"x_max":494,"o":"m 449 199 l 35 424 l 35 536 l 449 761 l 489 583 l 285 481 l 489 376 l 449 199 m 494 0 l 42 0 l 29 156 l 483 156 l 494 0 z "},"≥":{"ha":522,"x_min":25,"x_max":492,"o":"m 486 422 l 72 197 q 52 286 63 242 q 32 375 42 331 q 134 426 83 400 q 236 478 185 451 q 134 528 185 503 q 32 581 83 554 q 52 670 42 625 q 72 760 63 715 q 280 647 176 704 q 486 533 383 590 l 486 422 m 492 0 l 39 0 q 32 77 35 39 q 25 154 29 115 l 479 154 l 492 0 z "},"‰":{"ha":1893,"x_min":33,"x_max":1860,"o":"m 993 981 l 578 0 l 344 0 l 758 981 l 993 981 m 33 728 q 102 908 33 842 q 276 975 171 975 q 454 908 386 975 q 522 725 522 840 q 451 546 522 613 q 272 479 379 479 q 100 546 167 479 q 33 728 33 613 m 278 817 q 231 795 250 817 q 211 728 211 774 q 227 658 211 682 q 275 635 243 635 q 326 658 307 635 q 344 725 344 681 q 328 792 344 768 q 278 817 311 817 m 1372 247 q 1441 428 1372 363 q 1615 494 1510 494 q 1792 428 1725 494 q 1860 246 1860 361 q 1789 67 1860 133 q 1611 0 1718 0 q 1438 67 1504 0 q 1372 247 1372 133 m 818 247 q 887 428 818 363 q 1061 494 956 494 q 1238 428 1171 494 q 1306 246 1306 361 q 1235 67 1306 133 q 1057 0 1164 0 q 885 67 951 0 q 818 247 818 133 m 1617 338 q 1568 316 1588 338 q 1549 249 1549 294 q 1565 178 1549 201 q 1614 156 1582 156 q 1664 178 1646 156 q 1682 246 1682 201 q 1666 313 1682 289 q 1617 338 1650 338 m 1063 338 q 1015 316 1033 338 q 996 249 996 294 q 1012 178 996 201 q 1060 156 1028 156 q 1110 178 1092 156 q 1129 246 1129 201 q 1113 313 1129 289 q 1063 338 1096 338 z "},"⁄":{"ha":665,"x_min":7,"x_max":658,"o":"m 658 981 l 243 0 l 7 0 l 421 981 l 658 981 z "},"◊":{"ha":808,"x_min":28,"x_max":781,"o":"m 361 0 l 28 383 l 28 449 l 360 833 l 450 833 l 781 449 l 781 383 l 449 0 l 361 0 m 238 414 l 404 217 l 571 414 l 404 611 l 238 414 z "},"©":{"ha":1233,"x_min":75,"x_max":1160,"o":"m 617 -60 q 224 94 372 -60 q 75 467 75 247 q 224 842 75 689 q 617 996 372 996 q 1012 842 864 996 q 1160 467 1160 689 q 1012 94 1160 247 q 617 -60 864 -60 m 617 89 q 892 198 790 89 q 994 468 994 307 q 898 739 994 629 q 617 849 801 849 q 341 739 444 849 q 238 468 238 629 q 341 198 238 307 q 617 89 444 89 m 651 614 q 565 575 600 614 q 529 467 529 536 q 565 361 529 399 q 651 324 600 324 q 715 332 686 324 q 783 361 744 340 l 840 215 q 733 165 792 176 q 636 154 674 154 q 403 236 492 154 q 315 467 315 318 q 406 701 315 615 q 636 786 496 786 q 732 774 674 786 q 840 725 790 763 l 783 579 q 716 606 744 597 q 651 614 688 614 z "},"®":{"ha":1035,"x_min":15,"x_max":964,"o":"m 489 197 q 143 333 271 197 q 15 665 15 469 q 143 1001 15 864 q 489 1138 271 1138 q 836 1001 708 1138 q 964 665 964 864 q 836 333 964 469 q 489 197 708 197 m 489 325 q 735 424 646 326 q 825 667 825 521 q 735 910 825 814 q 489 1007 646 1007 q 242 910 332 1007 q 153 667 153 814 q 242 424 153 521 q 489 325 332 326 m 472 811 l 428 811 l 428 696 l 474 696 q 532 710 508 696 q 556 754 556 724 q 533 800 556 789 q 472 811 511 811 m 556 418 q 522 503 539 461 q 486 588 504 546 l 428 588 l 428 418 l 289 418 l 289 922 l 496 922 q 642 883 578 922 q 707 756 707 843 q 683 672 707 707 q 622 618 658 638 q 667 518 644 568 q 713 418 690 468 l 556 418 z "},"™":{"ha":1131,"x_min":42,"x_max":1082,"o":"m 42 944 l 504 944 l 521 814 l 353 814 l 353 410 l 194 410 l 194 814 l 42 814 l 42 944 m 800 568 l 719 657 l 719 410 l 561 410 l 561 944 l 667 944 l 829 750 q 908 852 832 765 q 981 943 985 939 q 985 944 982 943 q 990 944 988 944 l 1082 944 l 1082 410 l 922 410 l 922 646 q 892 611 908 628 q 861 576 875 594 l 800 568 z "},"&":{"ha":964,"x_min":56,"x_max":936,"o":"m 438 165 q 493 175 467 165 q 543 203 519 185 q 447 289 496 246 q 349 375 397 332 l 324 399 q 301 353 310 376 q 293 304 293 329 q 333 201 293 236 q 438 165 374 165 m 465 776 q 390 749 414 776 q 365 693 365 722 q 388 628 365 660 q 463 551 411 596 l 656 382 q 685 473 674 425 q 700 568 696 521 l 901 486 q 877 355 896 419 q 829 233 858 290 l 936 142 l 801 -24 q 749 22 775 -1 q 697 67 724 44 q 578 -1 644 24 q 433 -26 511 -26 q 167 55 278 -26 q 56 297 56 136 q 90 433 56 367 q 181 549 125 500 q 148 614 160 579 q 136 690 136 649 q 221 884 136 801 q 443 967 306 967 q 588 945 519 967 q 717 886 657 924 l 650 724 q 559 763 604 749 q 465 776 514 776 z "},"@":{"ha":1144,"x_min":51,"x_max":1097,"o":"m 824 535 l 792 274 q 796 258 792 264 q 804 251 800 251 q 872 297 835 251 q 910 421 910 342 q 838 608 910 528 q 621 688 765 688 q 360 587 468 688 q 251 317 251 486 q 352 95 251 172 q 582 18 453 18 q 692 26 621 18 q 814 56 763 33 q 842 -13 828 21 q 869 -82 856 -47 q 712 -136 786 -125 q 569 -147 638 -147 q 210 -25 368 -147 q 51 324 51 97 q 201 698 51 535 q 617 861 351 861 q 960 734 822 861 q 1097 428 1097 607 q 1001 167 1097 257 q 792 76 904 76 q 738 84 765 76 q 690 108 711 92 q 637 88 665 96 q 578 81 608 81 q 385 146 447 81 q 322 314 322 211 q 412 531 322 444 q 625 617 501 617 q 638 616 631 617 q 650 615 644 615 l 769 604 l 824 535 m 575 258 q 601 272 592 258 q 614 304 611 286 l 635 457 q 544 419 579 457 q 510 322 510 382 q 525 279 510 300 q 575 258 540 258 z "},"^":{"ha":668,"x_min":24,"x_max":644,"o":"m 249 197 l 24 197 l 250 572 l 419 572 l 644 197 l 424 197 l 336 354 l 249 197 z "},"~":{"ha":700,"x_min":19,"x_max":679,"o":"m 189 240 l 19 240 q 74 439 19 365 q 225 513 128 513 q 352 490 289 513 q 458 467 415 467 q 494 485 479 467 q 510 529 508 504 l 679 529 q 635 331 679 404 q 496 257 590 257 q 372 281 429 257 q 258 304 314 304 q 214 285 238 304 q 189 240 190 265 z "},"§":{"ha":956,"x_min":49,"x_max":907,"o":"m 438 424 q 532 373 485 401 q 618 311 579 344 q 658 339 644 321 q 672 376 672 357 q 624 440 672 408 q 515 500 575 471 q 423 550 469 522 q 336 611 376 578 q 297 588 311 604 q 283 550 283 571 q 329 484 283 511 q 438 424 375 457 m 232 821 q 324 1008 233 933 q 575 1083 414 1083 q 719 1063 644 1083 q 849 1008 793 1042 l 779 846 q 672 883 714 871 q 578 894 629 894 q 497 873 528 894 q 467 818 467 851 q 505 758 467 783 q 599 706 543 733 l 624 693 q 815 566 724 642 q 907 374 907 490 q 858 229 907 293 q 719 135 808 165 q 723 121 721 128 q 725 107 725 114 q 626 -87 724 -10 q 356 -165 529 -165 q 196 -142 288 -165 q 57 -86 104 -118 l 125 88 q 230 45 164 65 q 350 25 296 25 q 453 50 418 25 q 489 110 489 75 q 440 173 489 142 q 331 233 390 204 q 142 356 235 282 q 49 554 49 431 q 98 697 49 633 q 235 788 147 760 q 233 804 233 793 q 232 821 232 815 z "},"ª":{"ha":515,"x_min":38,"x_max":450,"o":"m 221 628 q 255 634 239 628 q 285 653 271 640 l 285 671 l 226 671 q 200 664 210 671 q 190 647 190 657 q 199 633 190 639 q 221 628 207 628 m 250 975 q 396 923 342 975 q 450 786 450 871 l 450 490 l 374 490 l 340 528 q 283 494 318 507 q 211 481 249 481 q 81 524 124 481 q 38 639 38 568 q 88 751 38 714 q 219 789 139 789 l 276 789 q 257 812 271 803 q 222 821 243 821 q 160 812 196 821 q 99 792 125 803 l 56 931 q 146 962 90 949 q 250 975 201 975 z "},"¬":{"ha":731,"x_min":17,"x_max":711,"o":"m 711 494 l 711 153 l 506 163 l 506 400 l 32 400 q 24 490 28 446 q 17 579 19 535 l 690 579 l 711 494 z "},"¶":{"ha":1425,"x_min":74,"x_max":1408,"o":"m 1010 0 l 1010 764 l 750 764 l 750 0 l 522 0 l 522 286 l 489 286 q 200 367 326 286 q 74 619 74 447 q 190 869 74 794 q 471 944 307 944 l 1408 944 l 1408 764 l 1238 764 l 1238 0 l 1010 0 z "},"º":{"ha":565,"x_min":38,"x_max":528,"o":"m 38 728 q 103 908 38 842 q 282 975 169 975 q 463 906 399 975 q 528 725 528 838 q 458 546 528 613 q 275 479 389 479 q 100 547 163 479 q 38 728 38 614 m 285 819 q 234 798 253 819 q 215 728 215 776 q 230 657 215 681 q 278 633 244 633 q 332 656 315 633 q 349 724 349 678 q 335 794 349 768 q 285 819 321 819 z "},"ऀ":{"ha":0,"x_min":0,"x_max":721,"o":"m 721 1319 q 640 1270 681 1294 q 560 1221 599 1246 q 476 1313 529 1279 q 361 1347 424 1347 q 244 1312 299 1347 q 161 1221 189 1276 q 81 1270 122 1246 q 0 1319 40 1294 q 154 1478 51 1428 q 361 1528 257 1528 q 567 1478 465 1528 q 721 1319 669 1428 m 246 1163 q 279 1244 246 1210 q 360 1278 313 1278 q 441 1244 407 1278 q 475 1163 475 1210 q 441 1082 475 1115 q 360 1049 407 1049 q 279 1082 313 1049 q 246 1163 246 1115 z "},"ँ":{"ha":0,"x_min":122,"x_max":843,"o":"m 367 1403 q 401 1484 367 1450 q 482 1518 435 1518 q 563 1484 529 1518 q 597 1403 597 1450 q 563 1322 597 1356 q 482 1288 529 1288 q 401 1322 435 1288 q 367 1403 367 1356 m 482 1038 q 276 1088 378 1038 q 122 1246 174 1139 l 283 1346 q 365 1253 310 1289 q 482 1218 419 1218 q 597 1252 544 1218 q 681 1346 650 1286 l 843 1246 q 689 1088 792 1138 q 482 1038 586 1038 z "},"ं":{"ha":0,"x_min":11,"x_max":251,"o":"m 11 1190 q 46 1276 11 1240 q 131 1311 81 1311 q 216 1276 181 1311 q 251 1190 251 1240 q 216 1106 251 1142 q 131 1071 181 1071 q 46 1106 81 1071 q 11 1190 11 1142 z "},"ः":{"ha":321,"x_min":40,"x_max":281,"o":"m 40 628 q 75 712 40 676 q 160 747 110 747 q 245 712 210 747 q 281 628 281 676 q 245 543 281 578 q 160 508 210 508 q 75 543 110 508 q 40 628 40 578 m 40 171 q 75 256 40 221 q 160 292 110 292 q 245 256 210 292 q 281 171 281 221 q 245 87 281 122 q 160 51 210 51 q 75 87 110 51 q 40 171 40 122 z "},"ऄ":{"ha":1361,"x_min":79,"x_max":1376,"o":"m 769 1288 q 789 1233 769 1247 q 840 1218 808 1218 l 939 1218 q 1133 1155 1056 1217 q 1211 1008 1211 1093 l 1211 944 l 1354 944 l 1376 761 l 1221 761 l 1221 -22 l 988 0 l 988 400 l 717 400 q 755 335 742 374 q 768 256 768 296 q 676 58 768 139 q 393 -22 585 -22 q 228 -1 310 -22 q 79 53 146 19 l 119 242 q 246 187 181 207 q 375 167 311 167 q 490 197 446 167 q 535 278 535 226 q 492 371 535 339 q 363 403 450 403 l 214 403 l 189 574 l 365 574 q 478 606 440 574 q 515 686 515 639 q 483 755 515 726 q 388 783 451 783 q 274 766 332 783 q 139 708 217 749 l 99 896 q 248 950 167 929 q 406 971 329 971 q 665 894 582 971 q 749 701 749 818 q 733 630 749 667 q 696 574 718 593 l 988 574 l 988 761 l 853 761 l 829 944 l 1001 944 l 1001 950 q 978 1011 1001 989 q 919 1033 954 1033 l 839 1033 q 642 1091 717 1035 q 568 1238 568 1147 l 568 1314 l 769 1288 z "},"अ":{"ha":1361,"x_min":79,"x_max":1376,"o":"m 988 0 l 988 400 l 717 400 q 755 335 742 374 q 768 256 768 296 q 676 58 768 139 q 393 -22 585 -22 q 228 -1 310 -22 q 79 53 146 19 l 119 242 q 246 187 181 207 q 375 167 311 167 q 490 197 446 167 q 535 278 535 226 q 492 371 535 339 q 363 403 450 403 l 214 403 l 189 574 l 365 574 q 478 606 440 574 q 515 686 515 639 q 483 755 515 726 q 388 783 451 783 q 274 766 332 783 q 139 708 217 749 l 99 896 q 248 950 167 929 q 406 971 329 971 q 665 894 582 971 q 749 701 749 818 q 733 630 749 667 q 696 574 718 593 l 988 574 l 988 761 l 853 761 l 829 944 l 1354 944 l 1376 761 l 1221 761 l 1221 -22 l 988 0 z "},"आ":{"ha":1858,"x_min":78,"x_max":1874,"o":"m 1483 0 l 1483 760 l 1219 760 l 1219 -22 l 988 0 l 988 399 l 715 399 q 753 335 740 374 q 767 256 767 296 q 676 59 767 139 q 393 -21 585 -21 q 227 -1 310 -21 q 78 53 144 18 l 119 240 q 246 185 181 206 q 375 165 311 165 q 490 195 446 165 q 533 278 533 225 q 491 370 533 339 q 361 401 449 401 l 214 401 l 189 572 l 364 572 q 475 606 436 572 q 514 686 514 640 q 483 754 514 726 q 388 782 451 782 q 273 765 331 782 q 139 708 215 749 l 97 894 q 247 950 165 929 q 404 971 329 971 q 665 894 582 971 q 749 701 749 818 q 733 630 749 667 q 696 572 718 593 l 988 572 l 988 760 l 851 760 l 829 944 l 1850 944 l 1874 760 l 1718 760 l 1718 -22 l 1483 0 z "},"इ":{"ha":788,"x_min":-15,"x_max":803,"o":"m 394 167 q 469 183 442 167 q 497 225 497 200 q 485 258 497 244 q 446 271 472 271 l 329 271 q 158 331 236 271 q 79 494 79 390 q 151 658 79 603 q 328 714 222 714 l 447 714 l 447 761 l 4 761 l -15 944 l 782 944 l 803 761 l 656 761 l 656 526 l 343 526 q 310 517 322 526 q 299 494 299 508 q 311 469 299 481 q 344 457 324 457 l 436 457 q 651 406 565 457 q 736 228 736 356 q 658 62 736 135 q 436 -19 579 -11 q 488 -90 454 -47 q 525 -139 521 -133 l 372 -249 l 197 -12 q 112 53 154 10 q 69 158 69 96 q 101 234 69 206 q 178 263 132 263 q 269 235 228 263 q 335 171 311 208 q 365 168 349 169 q 394 167 381 167 z "},"ई":{"ha":788,"x_min":-15,"x_max":803,"o":"m 394 167 q 469 183 442 167 q 497 225 497 200 q 485 258 497 244 q 446 271 472 271 l 329 271 q 158 331 236 271 q 79 494 79 390 q 151 658 79 603 q 328 714 222 714 l 447 714 l 447 761 l 4 761 l -15 944 l 399 944 q 369 1022 381 976 q 357 1100 357 1068 q 418 1259 357 1188 q 592 1331 479 1331 q 706 1308 654 1331 q 785 1254 758 1285 l 694 1101 q 656 1129 672 1121 q 619 1138 639 1138 q 578 1118 593 1138 q 563 1075 563 1099 q 578 1006 563 1042 q 613 944 594 969 l 782 944 l 803 761 l 656 761 l 656 526 l 343 526 q 310 517 322 526 q 299 494 299 508 q 311 469 299 481 q 344 457 324 457 l 436 457 q 651 406 565 457 q 736 228 736 356 q 658 62 736 135 q 436 -19 579 -11 q 488 -90 454 -47 q 525 -139 521 -133 l 372 -249 l 197 -12 q 112 53 154 10 q 69 158 69 96 q 101 234 69 206 q 178 263 132 263 q 269 235 228 263 q 335 171 311 208 q 365 168 349 169 q 394 167 381 167 z "},"उ":{"ha":874,"x_min":-15,"x_max":889,"o":"m 889 761 l 750 761 q 755 732 753 747 q 757 701 757 717 q 727 572 757 632 q 643 478 697 511 q 739 398 701 456 q 776 264 776 340 q 685 63 776 147 q 401 -22 593 -22 q 236 -1 318 -22 q 88 53 154 19 l 129 242 q 255 187 190 207 q 383 167 319 167 q 498 197 454 167 q 542 278 542 226 q 500 371 542 339 q 371 403 458 403 l 222 403 l 199 574 l 374 574 q 486 606 449 574 q 524 686 524 639 q 513 728 524 708 q 482 761 503 749 l 7 761 l -15 944 l 865 944 l 889 761 z "},"ऊ":{"ha":1276,"x_min":-15,"x_max":1292,"o":"m 900 378 q 822 360 851 378 q 769 319 792 342 q 774 292 772 306 q 776 264 776 278 q 685 63 776 147 q 401 -22 593 -22 q 236 -1 318 -22 q 88 53 154 19 l 129 242 q 254 187 189 207 q 383 167 319 167 q 498 197 454 167 q 542 278 542 226 q 499 371 542 339 q 369 403 457 403 l 222 403 l 197 574 l 374 574 q 486 606 449 574 q 524 686 524 639 q 513 728 524 708 q 482 761 503 749 l 7 761 l -15 944 l 1268 944 l 1292 761 l 750 761 q 755 732 753 747 q 757 701 757 717 q 727 572 757 632 q 643 478 697 511 q 660 471 649 476 q 678 461 672 465 q 772 531 711 499 q 911 563 832 563 q 1147 485 1060 563 q 1235 279 1235 408 q 1135 51 1235 122 q 911 -24 1036 -21 l 875 160 q 983 190 946 160 q 1019 271 1019 219 q 987 349 1019 321 q 900 378 954 378 z "},"ऋ":{"ha":1293,"x_min":-15,"x_max":1308,"o":"m 501 0 l 501 217 l 229 47 l 106 218 q 266 315 185 265 q 426 413 347 365 q 351 458 386 444 q 286 471 317 471 q 227 456 274 471 q 126 415 181 440 l 40 607 q 169 652 92 632 q 274 672 247 672 q 393 660 344 672 q 501 614 442 649 l 501 760 l 7 760 q -4 852 1 807 q -15 944 -10 897 l 1285 944 l 1308 760 l 735 760 l 735 508 q 811 524 769 513 q 871 544 853 535 q 860 579 864 561 q 856 619 856 597 q 888 699 856 672 q 964 726 921 726 q 1093 688 1039 726 q 1147 586 1147 650 q 1142 547 1147 571 q 1126 513 1136 522 q 1210 397 1182 463 q 1238 282 1238 331 q 1164 103 1238 164 q 974 43 1090 43 q 893 50 933 43 q 814 72 853 57 l 865 250 l 879 246 q 927 233 913 236 q 961 229 942 229 q 1003 242 988 229 q 1019 278 1019 256 q 1011 326 1019 296 q 981 392 1003 357 q 865 345 942 364 q 735 322 789 326 l 735 -22 l 501 0 z "},"ऌ":{"ha":1232,"x_min":-15,"x_max":1247,"o":"m 992 -78 q 1034 -74 1006 -78 q 1089 -62 1063 -71 l 1126 -239 q 1056 -256 1096 -250 q 976 -261 1017 -261 q 805 -202 885 -261 q 725 -31 725 -143 q 763 98 725 44 q 858 178 801 151 l 858 410 q 828 467 850 444 q 778 490 806 490 q 719 455 742 490 q 696 364 696 419 l 696 175 l 493 196 l 493 364 q 470 453 493 419 q 396 486 447 486 q 332 462 357 486 q 307 407 307 438 q 331 274 307 346 q 443 26 356 203 l 236 -35 q 118 218 157 118 q 79 422 79 318 q 167 606 79 531 q 386 681 254 681 q 507 654 453 681 q 590 593 561 628 q 668 654 621 628 q 782 681 715 681 q 820 676 800 681 q 858 665 840 672 l 858 761 l 7 761 l -15 944 l 1224 944 l 1247 761 l 1092 761 l 1092 15 l 974 15 q 933 3 949 15 q 917 -28 917 -8 q 937 -64 917 -50 q 992 -78 957 -78 z "},"ऍ":{"ha":1068,"x_min":-15,"x_max":1083,"o":"m 535 1039 q 330 1089 431 1039 q 178 1247 229 1139 l 340 1346 q 419 1255 367 1290 q 535 1219 472 1219 q 649 1253 597 1219 q 731 1346 700 1288 l 892 1247 q 740 1089 840 1139 q 535 1039 639 1039 m 699 408 l 699 761 l 376 761 l 376 250 q 385 191 376 221 q 428 139 393 161 l 772 -76 l 661 -250 l 278 -21 q 172 78 203 24 q 142 226 142 132 l 142 761 l 7 761 l -15 944 l 1061 944 l 1083 761 l 932 761 l 932 378 q 858 209 932 274 q 642 99 783 144 l 544 272 q 662 328 625 300 q 699 408 699 357 z "},"ऎ":{"ha":1068,"x_min":-15,"x_max":1083,"o":"m 335 1288 q 354 1233 335 1247 q 407 1218 374 1218 l 646 1218 q 842 1156 764 1218 q 919 1008 919 1093 l 919 944 l 1061 944 l 1083 761 l 932 761 l 932 378 q 858 209 932 274 q 642 99 783 144 l 544 272 q 662 328 625 300 q 699 408 699 357 l 699 761 l 376 761 l 376 250 q 385 191 376 221 q 428 139 393 161 l 772 -76 l 661 -250 l 278 -21 q 172 78 203 24 q 142 226 142 132 l 142 761 l 7 761 l -15 944 l 708 944 l 708 950 q 685 1011 708 989 q 628 1033 661 1033 l 404 1033 q 208 1090 282 1033 q 133 1238 133 1147 l 133 1314 l 335 1288 z "},"ए":{"ha":1068,"x_min":-15,"x_max":1083,"o":"m 699 408 l 699 761 l 376 761 l 376 250 q 385 191 376 221 q 428 139 393 161 l 772 -76 l 661 -250 l 278 -21 q 172 78 203 24 q 142 226 142 132 l 142 761 l 7 761 l -15 944 l 1061 944 l 1083 761 l 932 761 l 932 378 q 858 209 932 274 q 642 99 783 144 l 544 272 q 662 328 625 300 q 699 408 699 357 z "},"ऐ":{"ha":1068,"x_min":-15,"x_max":1083,"o":"m 699 408 l 699 761 l 376 761 l 376 250 q 385 191 376 221 q 428 139 393 161 l 772 -76 l 661 -250 l 278 -21 q 172 78 203 24 q 142 226 142 132 l 142 761 l 7 761 l -15 944 l 628 944 l 315 1228 l 493 1340 l 890 944 l 1061 944 l 1083 761 l 932 761 l 932 378 q 858 209 932 274 q 642 99 783 144 l 544 272 q 662 328 625 300 q 699 408 699 357 z "},"ऑ":{"ha":1858,"x_min":78,"x_max":1874,"o":"m 1560 1344 l 1721 1246 q 1569 1088 1669 1138 q 1364 1038 1468 1038 q 1160 1088 1260 1038 q 1008 1246 1060 1138 q 1088 1295 1047 1271 q 1169 1344 1129 1319 q 1249 1253 1196 1289 q 1364 1218 1303 1218 q 1478 1253 1426 1218 q 1560 1344 1529 1288 m 1483 0 l 1483 760 l 1219 760 l 1219 -22 l 988 0 l 988 399 l 715 399 q 753 335 740 374 q 767 256 767 296 q 676 59 767 139 q 393 -21 585 -21 q 227 -1 310 -21 q 78 53 144 18 l 119 240 q 246 185 181 206 q 375 165 311 165 q 490 195 446 165 q 533 278 533 225 q 491 370 533 339 q 361 401 449 401 l 214 401 l 189 572 l 364 572 q 475 606 436 572 q 514 686 514 640 q 483 754 514 726 q 388 782 451 782 q 273 765 331 782 q 139 708 215 749 l 97 894 q 247 950 165 929 q 404 971 329 971 q 665 894 582 971 q 749 701 749 818 q 733 630 749 667 q 696 572 718 593 l 988 572 l 988 760 l 851 760 l 829 944 l 1850 944 l 1874 760 l 1718 760 l 1718 -22 l 1483 0 z "},"ऒ":{"ha":1858,"x_min":79,"x_max":1874,"o":"m 988 0 l 988 400 l 717 400 q 755 335 742 374 q 768 256 768 296 q 676 58 768 139 q 393 -22 585 -22 q 228 -1 310 -22 q 79 53 146 19 l 119 242 q 246 187 181 207 q 375 167 311 167 q 490 197 446 167 q 535 278 535 226 q 492 371 535 339 q 363 403 450 403 l 214 403 l 189 574 l 365 574 q 478 606 440 574 q 515 686 515 639 q 483 755 515 726 q 388 783 451 783 q 274 766 332 783 q 139 708 217 749 l 99 896 q 248 950 167 929 q 406 971 329 971 q 665 894 582 971 q 749 701 749 818 q 733 630 749 667 q 696 574 718 593 l 988 574 l 988 761 l 853 761 l 829 944 l 1497 944 l 1497 950 q 1474 1011 1497 989 q 1415 1033 1450 1033 l 1203 1033 q 1006 1090 1081 1033 q 932 1238 932 1147 l 932 1314 l 1135 1288 q 1154 1233 1135 1247 q 1206 1218 1174 1218 l 1435 1218 q 1630 1156 1553 1218 q 1707 1008 1707 1093 l 1707 944 l 1850 944 l 1874 761 l 1718 761 l 1718 -22 l 1485 0 l 1485 761 l 1221 761 l 1221 -22 l 988 0 z "},"ओ":{"ha":1858,"x_min":79,"x_max":1874,"o":"m 988 0 l 988 400 l 717 400 q 755 335 742 374 q 768 256 768 296 q 676 58 768 139 q 393 -22 585 -22 q 228 -1 310 -22 q 79 53 146 19 l 119 242 q 246 187 181 207 q 375 167 311 167 q 490 197 446 167 q 535 278 535 226 q 492 371 535 339 q 363 403 450 403 l 214 403 l 189 574 l 365 574 q 478 606 440 574 q 515 686 515 639 q 483 755 515 726 q 388 783 451 783 q 274 766 332 783 q 139 708 217 749 l 99 896 q 248 950 167 929 q 406 971 329 971 q 665 894 582 971 q 749 701 749 818 q 733 630 749 667 q 696 574 718 593 l 988 574 l 988 761 l 853 761 l 829 944 l 1414 944 l 1101 1228 l 1281 1340 l 1676 944 l 1850 944 l 1874 761 l 1718 761 l 1718 -22 l 1485 0 l 1485 761 l 1221 761 l 1221 -22 l 988 0 z "},"औ":{"ha":1858,"x_min":79,"x_max":1874,"o":"m 988 0 l 988 400 l 717 400 q 755 335 742 374 q 768 256 768 296 q 676 58 768 139 q 393 -22 585 -22 q 228 -1 310 -22 q 79 53 146 19 l 119 242 q 246 187 181 207 q 375 167 311 167 q 490 197 446 167 q 535 278 535 226 q 492 371 535 339 q 363 403 450 403 l 214 403 l 189 574 l 365 574 q 478 606 440 574 q 515 686 515 639 q 483 755 515 726 q 388 783 451 783 q 274 766 332 783 q 139 708 217 749 l 99 896 q 248 950 167 929 q 406 971 329 971 q 665 894 582 971 q 749 701 749 818 q 733 630 749 667 q 696 574 718 593 l 988 574 l 988 761 l 853 761 l 829 944 l 1465 944 q 1400 988 1439 968 q 1293 1008 1361 1008 l 1144 1008 l 1100 1203 l 1285 1203 q 1346 1201 1317 1203 q 1403 1190 1375 1200 q 1373 1276 1396 1213 q 1344 1358 1350 1340 l 1553 1417 l 1663 944 l 1850 944 l 1874 761 l 1718 761 l 1718 -22 l 1485 0 l 1485 761 l 1221 761 l 1221 -22 l 988 0 z "},"क":{"ha":1289,"x_min":-15,"x_max":1303,"o":"m 53 378 q 142 596 53 508 q 379 683 232 683 q 469 670 421 683 q 532 643 518 657 l 532 760 l 7 760 q -4 852 1 807 q -15 944 -10 897 l 1281 944 l 1303 760 l 765 760 l 765 640 q 826 668 779 653 q 915 683 872 683 q 1153 597 1063 683 q 1243 378 1243 510 q 1140 141 1243 217 q 911 63 1038 65 l 858 258 q 969 292 929 258 q 1010 379 1010 325 q 978 464 1010 429 q 890 499 947 499 q 808 474 839 499 q 765 429 778 449 l 765 -22 l 532 0 l 532 113 q 469 86 518 99 q 379 74 421 74 q 142 160 232 74 q 53 378 53 247 m 413 258 q 489 282 460 258 q 532 326 518 306 l 532 429 q 489 474 518 450 q 413 497 460 497 q 320 463 356 497 q 285 378 285 429 q 320 292 285 326 q 413 258 356 258 z "},"ख":{"ha":1450,"x_min":-15,"x_max":1464,"o":"m 703 165 q 754 170 729 165 q 801 185 779 175 q 690 281 732 217 q 649 425 649 346 q 733 627 649 546 q 950 708 817 708 q 1024 701 986 708 q 1075 685 1061 693 l 1075 760 l 558 760 q 574 695 568 729 q 579 635 579 661 q 533 458 579 529 q 415 353 486 388 q 522 227 449 289 q 703 165 596 165 m 979 528 q 903 499 932 528 q 875 426 875 471 q 903 353 875 382 q 979 325 932 325 q 1057 361 1039 325 q 1075 426 1075 397 q 1057 492 1075 457 q 979 528 1039 528 m 1075 0 l 1075 89 q 908 1 1004 33 q 694 -32 811 -32 q 353 76 481 -32 q 181 310 226 183 l 160 310 q 76 328 106 310 q 42 379 47 347 q 102 523 42 457 q 233 589 163 589 q 274 569 256 589 q 304 524 293 549 q 341 574 326 539 q 356 640 356 610 q 344 708 356 675 q 311 760 333 742 l 7 760 q -4 852 1 807 q -15 944 -10 897 l 1442 944 l 1464 760 l 1308 760 l 1308 -22 l 1075 0 z "},"ग":{"ha":1056,"x_min":-15,"x_max":1071,"o":"m 682 0 l 682 760 l 425 760 l 425 282 q 398 188 425 222 q 311 154 371 154 q 153 222 226 154 q 81 383 81 290 q 112 459 81 433 q 192 485 143 485 l 192 760 l 7 760 q -4 852 1 807 q -15 944 -10 897 l 1047 944 l 1071 760 l 915 760 l 915 -22 l 682 0 z "},"घ":{"ha":1050,"x_min":-15,"x_max":1064,"o":"m 675 0 l 675 150 q 568 97 638 119 q 435 74 499 74 q 192 142 292 74 q 93 357 93 211 q 119 463 93 407 q 182 547 146 519 q 128 624 147 579 q 108 714 108 668 q 110 734 108 719 q 113 760 111 749 l 7 760 q -4 852 1 807 q -15 944 -10 897 l 1040 944 l 1064 760 l 908 760 l 908 -22 l 675 0 m 438 272 q 594 328 519 272 q 675 492 669 385 l 675 760 l 349 760 q 338 738 342 754 q 333 708 333 721 q 359 653 333 676 q 436 631 385 631 l 515 631 l 549 450 l 463 450 q 361 427 394 450 q 328 360 328 404 q 359 297 328 321 q 438 272 390 272 z "},"ङ":{"ha":963,"x_min":-15,"x_max":978,"o":"m 726 483 q 761 569 726 533 q 846 604 796 604 q 931 569 896 604 q 967 483 967 533 q 931 400 967 435 q 846 365 896 365 q 761 400 796 365 q 726 483 726 435 m 388 167 q 466 183 439 167 q 493 225 493 200 q 480 258 493 244 q 440 271 467 271 l 328 271 q 156 331 235 271 q 76 494 76 390 q 149 658 76 603 q 325 714 221 714 l 447 714 l 447 761 l 7 761 l -15 944 l 954 944 l 978 761 l 651 761 l 651 526 l 340 526 q 308 517 319 526 q 296 494 296 508 q 309 469 296 481 q 342 457 322 457 l 432 457 q 646 406 561 457 q 731 228 731 356 q 645 54 731 131 q 399 -22 560 -22 q 229 -3 317 -22 q 75 50 142 17 l 115 239 q 249 185 176 204 q 388 167 322 167 z "},"च":{"ha":1036,"x_min":-15,"x_max":1051,"o":"m 663 0 l 663 103 q 581 83 625 90 q 501 75 536 75 q 257 149 361 75 q 153 367 153 224 q 158 418 153 393 q 172 465 163 443 l 50 465 l 28 649 l 553 649 l 578 465 l 508 465 q 408 438 442 464 q 375 367 375 411 q 413 293 375 319 q 501 267 450 267 q 597 292 544 267 q 663 356 650 317 l 663 761 l 7 761 l -15 944 l 1028 944 l 1051 761 l 894 761 l 894 -22 l 663 0 z "},"छ":{"ha":1161,"x_min":-15,"x_max":1178,"o":"m 122 688 q 124 724 122 706 q 132 761 126 743 l 7 761 l -15 944 l 1154 944 l 1178 761 l 976 761 l 976 692 q 1058 604 1032 661 q 1083 485 1083 547 q 924 142 1083 306 q 506 -21 765 -21 q 212 62 321 -21 q 103 282 103 144 q 136 403 103 346 q 226 486 169 460 q 149 578 175 519 q 122 688 122 636 m 649 521 q 683 630 649 582 q 772 700 717 678 l 772 761 l 404 761 q 371 726 381 749 q 361 686 361 704 q 393 610 361 643 q 500 578 425 578 l 536 578 l 558 397 l 508 397 q 381 369 419 397 q 343 289 343 340 q 393 212 343 240 q 515 183 443 183 q 692 228 611 183 q 810 332 772 272 q 694 391 740 339 q 649 521 649 443 z "},"ज":{"ha":1161,"x_min":-15,"x_max":1176,"o":"m 788 0 l 788 461 l 656 461 q 665 416 661 440 q 669 367 669 392 q 567 131 669 210 q 325 51 465 51 q 158 77 239 51 q 18 142 76 103 l 54 351 q 183 271 118 299 q 315 242 247 243 q 415 276 376 242 q 453 358 453 311 q 426 431 453 401 q 342 461 399 461 l 242 461 l 217 643 l 788 643 l 788 761 l 7 761 l -15 944 l 1153 944 l 1176 761 l 1021 761 l 1021 -22 l 788 0 z "},"झ":{"ha":1263,"x_min":-15,"x_max":1278,"o":"m 888 760 l 656 760 l 656 525 l 342 525 q 310 516 321 525 q 299 493 299 507 q 311 469 299 481 q 344 457 324 457 l 435 457 q 576 439 513 457 q 678 382 639 421 l 888 382 l 888 760 m 888 0 l 888 215 l 733 215 q 651 58 726 128 q 436 -19 576 -11 l 444 -35 q 488 -91 468 -65 q 524 -139 508 -117 q 448 -193 486 -165 q 372 -247 410 -221 l 197 -11 q 111 53 153 10 q 69 158 69 96 q 100 233 69 204 q 178 261 131 261 q 269 235 226 261 q 333 169 311 208 q 364 167 349 168 q 394 165 379 165 q 469 183 442 165 q 497 225 497 200 q 484 257 497 243 q 444 271 471 271 l 329 271 q 156 330 235 271 q 78 493 78 389 q 150 658 78 603 q 326 714 222 714 l 446 714 l 446 760 l 7 760 q -4 852 1 807 q -15 944 -10 897 l 1254 944 l 1278 760 l 1121 760 l 1121 -22 l 888 0 z "},"ञ":{"ha":1169,"x_min":-15,"x_max":1185,"o":"m 325 258 q 417 292 381 258 q 453 383 453 326 q 419 472 453 436 q 326 507 386 507 q 260 502 300 507 q 169 482 221 497 l 119 661 q 238 691 188 685 q 332 697 289 697 q 542 640 450 697 q 663 471 635 583 l 794 471 l 794 760 l 7 760 q -4 852 1 807 q -15 944 -10 897 l 1161 944 l 1185 760 l 1028 760 l 1028 -22 l 794 0 l 794 285 l 660 285 q 541 121 633 175 q 332 67 449 67 q 169 93 251 67 q 28 160 88 119 l 71 369 q 198 285 129 313 q 325 258 267 258 z "},"ट":{"ha":946,"x_min":-15,"x_max":961,"o":"m 542 164 q 685 183 613 164 q 821 242 757 201 q 840 147 831 194 q 860 51 850 99 q 715 -2 806 18 q 528 -22 624 -22 q 213 59 346 -22 q 81 324 81 140 q 216 578 81 493 q 539 664 351 664 l 539 760 l 7 760 q -4 852 1 807 q -15 944 -10 897 l 938 944 l 961 760 l 772 760 l 772 482 l 665 482 q 421 458 526 482 q 315 322 315 433 q 387 197 315 231 q 542 164 458 164 z "},"ठ":{"ha":1013,"x_min":-15,"x_max":1029,"o":"m 82 324 q 170 550 82 468 q 394 654 258 632 l 394 761 l 7 761 l -15 944 l 1006 944 l 1029 761 l 628 761 l 628 654 q 846 557 754 633 q 938 325 938 481 q 811 65 938 154 q 507 -24 685 -24 q 213 56 344 -24 q 82 324 82 136 m 700 321 q 644 440 700 400 q 508 479 589 479 q 370 435 425 479 q 315 319 315 390 q 372 199 315 236 q 507 161 428 161 q 648 204 596 161 q 700 321 700 247 z "},"ड":{"ha":775,"x_min":-15,"x_max":790,"o":"m 388 167 q 466 183 439 167 q 493 225 493 200 q 480 258 493 244 q 440 271 467 271 l 328 271 q 156 331 235 271 q 76 494 76 390 q 149 658 76 603 q 325 714 221 714 l 447 714 l 447 761 l 7 761 l -15 944 l 767 944 l 790 761 l 651 761 l 651 526 l 340 526 q 308 517 319 526 q 296 494 296 508 q 309 469 296 481 q 342 457 322 457 l 432 457 q 646 406 561 457 q 731 228 731 356 q 645 54 731 131 q 399 -22 560 -22 q 229 -3 317 -22 q 75 50 142 17 l 115 239 q 249 185 176 204 q 388 167 322 167 z "},"ढ":{"ha":938,"x_min":-15,"x_max":953,"o":"m 75 344 q 212 609 75 522 q 535 696 349 696 l 535 760 l 7 760 q -4 852 1 807 q -15 944 -10 897 l 929 944 l 953 760 l 768 760 l 768 678 q 769 594 768 636 q 769 513 769 553 l 653 513 q 407 485 510 513 q 304 335 304 458 q 349 213 304 267 q 486 156 393 158 q 475 190 478 169 q 472 229 472 211 q 525 356 472 304 q 665 408 578 408 q 800 354 746 408 q 854 218 854 300 q 764 44 854 114 q 515 -25 674 -25 q 216 53 357 -25 q 75 344 75 131 z "},"ण":{"ha":1413,"x_min":-15,"x_max":1428,"o":"m 1038 0 l 1038 760 l 806 760 l 806 453 q 698 213 806 293 q 457 133 590 133 q 216 213 324 133 q 108 453 108 293 l 108 760 l 7 760 q -4 852 1 807 q -15 944 -10 897 l 1404 944 l 1428 760 l 1271 760 l 1271 -22 l 1038 0 m 457 325 q 552 369 522 325 q 582 500 582 414 l 582 760 l 332 760 l 332 500 q 362 369 332 414 q 457 325 392 325 z "},"त":{"ha":1003,"x_min":-15,"x_max":1018,"o":"m 629 0 l 629 450 l 397 450 q 331 432 357 450 q 306 379 306 414 q 355 237 306 328 q 483 22 404 146 l 275 -31 q 144 182 213 64 q 76 397 76 300 q 149 576 76 518 q 339 633 221 633 l 629 633 l 629 761 l 7 761 l -15 944 l 996 944 l 1018 761 l 863 761 l 863 -22 l 629 0 z "},"थ":{"ha":1068,"x_min":65,"x_max":1083,"o":"m 693 0 l 693 231 q 608 203 658 211 q 507 196 558 196 q 272 283 376 196 q 167 490 167 369 l 210 539 q 266 574 235 549 q 301 649 297 600 q 275 633 293 639 q 236 626 257 626 q 117 667 169 626 q 65 783 65 708 q 124 917 65 865 q 274 969 183 969 q 455 887 388 969 q 522 690 522 804 q 492 553 522 617 q 408 451 461 489 q 458 409 426 429 q 540 389 489 389 q 640 416 596 389 q 693 485 685 443 l 693 761 l 588 761 l 565 944 l 1060 944 l 1083 761 l 928 761 l 928 -22 l 693 0 z "},"द":{"ha":894,"x_min":-15,"x_max":908,"o":"m 847 -1 l 651 -74 l 567 82 q 515 76 540 78 q 471 74 489 74 q 185 157 294 74 q 76 404 76 240 q 190 633 76 551 q 464 714 304 714 l 464 760 l 7 760 q -4 852 1 807 q -15 944 -10 897 l 885 944 l 908 760 l 706 760 l 706 535 l 486 535 q 340 502 397 535 q 282 401 282 469 q 341 297 282 333 q 488 260 400 260 q 523 347 490 311 q 608 383 556 383 q 733 345 675 383 q 790 247 790 307 q 780 203 790 225 q 751 158 769 181 q 790 94 768 129 q 847 -1 811 58 z "},"ध":{"ha":1076,"x_min":67,"x_max":1090,"o":"m 701 0 l 701 151 q 588 92 664 119 q 436 64 511 64 q 169 138 272 64 q 67 357 67 213 q 95 465 67 408 q 164 547 124 522 q 106 624 128 576 q 83 717 83 671 q 153 889 83 815 q 342 963 224 963 q 460 939 410 963 q 538 889 510 915 l 428 740 q 396 753 410 750 q 364 757 382 757 q 325 742 342 757 q 308 707 308 726 q 334 653 308 675 q 411 631 360 631 l 483 631 q 503 541 493 586 q 524 450 514 496 l 411 450 q 329 424 357 450 q 301 360 301 397 q 337 293 301 321 q 439 265 372 265 q 606 328 519 265 q 701 494 692 390 l 701 760 l 597 760 l 575 944 l 1067 944 l 1090 760 l 935 760 l 935 -22 l 701 0 z "},"न":{"ha":947,"x_min":-15,"x_max":981,"o":"m 592 0 l 592 368 l 358 368 q 337 281 358 325 q 260 238 315 238 q 100 306 172 238 q 28 457 28 374 q 58 524 28 497 q 140 551 88 551 l 592 551 l 592 761 l 7 761 l -15 944 l 957 944 l 981 761 l 825 761 l 825 -22 l 592 0 z "},"ऩ":{"ha":965,"x_min":-15,"x_max":981,"o":"m 592 0 l 592 368 l 358 368 q 337 281 358 325 q 260 238 315 238 q 100 306 172 238 q 28 457 28 374 q 58 524 28 497 q 140 551 88 551 l 592 551 l 592 761 l 7 761 l -15 944 l 957 944 l 981 761 l 825 761 l 825 -22 l 592 0 m 124 1 q 158 85 124 50 q 243 121 193 121 q 327 85 292 121 q 363 1 363 50 q 327 -83 363 -47 q 243 -118 292 -118 q 158 -83 193 -118 q 124 1 124 -47 z "},"प":{"ha":1001,"x_min":-15,"x_max":1015,"o":"m 626 0 l 626 215 q 554 189 601 200 q 465 178 507 178 q 221 259 331 178 q 111 500 111 340 l 111 760 l 7 760 q -4 852 1 807 q -15 944 -10 897 l 992 944 l 1015 760 l 860 760 l 860 -22 l 626 0 m 479 369 q 575 399 538 369 q 626 467 613 428 l 626 760 l 335 760 l 335 526 q 373 408 335 446 q 479 369 411 369 z "},"फ":{"ha":1383,"x_min":-15,"x_max":1399,"o":"m 479 369 q 577 399 538 369 q 626 467 617 428 l 626 760 l 335 760 l 335 526 q 373 408 335 446 q 479 369 411 369 m 626 0 l 626 215 q 554 189 601 200 q 465 178 507 178 q 221 259 331 178 q 111 500 111 340 l 111 760 l 7 760 q -4 852 1 807 q -15 944 -10 897 l 1375 944 l 1399 760 l 860 760 l 860 638 q 923 664 876 650 q 1011 678 969 678 q 1249 591 1158 678 q 1339 372 1339 504 q 1235 135 1339 211 q 1006 57 1132 60 l 954 253 q 1065 287 1025 253 q 1106 374 1106 321 q 1074 458 1106 424 q 986 493 1043 493 q 904 468 935 493 q 860 424 874 443 l 860 -22 l 626 0 z "},"ब":{"ha":915,"x_min":-15,"x_max":928,"o":"m 539 0 l 539 107 q 470 83 518 93 q 382 72 422 72 q 144 160 235 72 q 53 378 53 247 q 144 597 53 510 q 382 685 235 685 q 470 674 422 685 q 539 650 518 663 l 539 760 l 7 760 q -4 852 1 807 q -15 944 -10 897 l 904 944 l 928 760 l 772 760 l 772 -22 l 539 0 m 532 314 l 539 324 l 539 432 q 494 476 525 453 q 415 500 464 500 q 394 498 404 500 q 374 493 383 496 q 453 404 413 450 q 532 314 493 358 m 458 263 q 380 352 419 307 q 301 440 340 397 q 290 412 294 428 q 285 379 285 396 q 324 290 285 324 q 418 257 363 257 q 438 259 428 257 q 458 263 449 261 z "},"भ":{"ha":1156,"x_min":64,"x_max":1171,"o":"m 781 0 l 781 263 l 501 263 q 479 173 501 210 q 401 136 457 136 q 240 201 308 136 q 171 350 171 265 q 201 419 171 393 q 286 446 232 446 l 286 579 l 267 579 q 120 633 176 579 q 64 778 64 688 q 125 916 64 863 q 272 969 186 969 q 444 902 381 969 q 507 714 507 835 l 507 446 l 781 446 l 781 760 l 646 760 l 624 944 l 1147 944 l 1171 760 l 1015 760 l 1015 -22 l 781 0 z "},"म":{"ha":1035,"x_min":-15,"x_max":1050,"o":"m 661 0 l 661 263 l 379 263 q 359 174 379 215 q 283 132 339 132 q 121 199 192 132 q 50 350 50 267 q 81 419 50 392 q 165 446 111 446 l 165 760 l 7 760 q -4 852 1 807 q -15 944 -10 897 l 1026 944 l 1050 760 l 894 760 l 894 -22 l 661 0 m 661 760 l 386 760 l 386 446 l 661 446 l 661 760 z "},"य":{"ha":964,"x_min":-15,"x_max":979,"o":"m 590 0 l 590 229 q 506 203 556 211 q 406 196 457 196 q 170 283 275 196 q 65 490 65 369 l 107 536 q 156 580 133 546 q 178 661 178 614 q 162 719 178 688 q 125 761 146 750 l 7 761 l -15 944 l 957 944 l 979 761 l 824 761 l 824 -22 l 590 0 m 439 389 q 536 414 492 389 q 590 479 581 439 l 590 761 l 381 761 q 394 706 389 739 q 400 651 400 674 q 378 542 400 592 q 306 454 357 493 q 354 410 324 432 q 439 389 385 389 z "},"र":{"ha":685,"x_min":-15,"x_max":700,"o":"m 700 761 l 561 761 q 577 696 572 731 q 582 635 582 661 q 531 462 582 543 q 383 338 479 381 l 583 13 l 379 -40 l 178 310 q 160 310 172 310 q 142 311 147 311 q 78 329 104 311 q 44 381 51 347 q 103 524 44 458 q 233 590 163 590 q 275 569 256 590 q 306 524 294 549 q 345 577 332 542 q 358 642 358 613 q 347 710 358 676 q 315 761 336 743 l 7 761 l -15 944 l 676 944 l 700 761 z "},"ऱ":{"ha":685,"x_min":-15,"x_max":700,"o":"m 700 761 l 561 761 q 577 696 572 731 q 582 635 582 661 q 531 462 582 543 q 383 338 479 381 l 583 13 l 379 -40 l 178 310 q 160 310 172 310 q 142 311 147 311 q 78 329 104 311 q 44 381 51 347 q 103 524 44 458 q 233 590 163 590 q 275 569 256 590 q 306 524 294 549 q 345 577 332 542 q 358 642 358 613 q 347 710 358 676 q 315 761 336 743 l 7 761 l -15 944 l 676 944 l 700 761 m 3 1 q 38 85 3 50 q 122 121 72 121 q 208 85 172 121 q 243 1 243 50 q 208 -83 243 -47 q 122 -118 172 -118 q 38 -83 72 -118 q 3 1 3 -47 z "},"ल":{"ha":1232,"x_min":-15,"x_max":1247,"o":"m 858 0 l 858 410 q 828 467 850 444 q 778 490 806 490 q 719 455 742 490 q 696 364 696 419 l 696 175 l 493 196 l 493 364 q 470 453 493 419 q 396 486 447 486 q 332 462 357 486 q 307 407 307 438 q 331 274 307 346 q 443 26 356 203 l 236 -35 q 118 218 157 118 q 79 422 79 318 q 167 606 79 531 q 386 681 254 681 q 507 654 453 681 q 590 593 561 628 q 668 654 621 628 q 782 681 715 681 q 820 676 800 681 q 858 665 840 672 l 858 761 l 7 761 l -15 944 l 1224 944 l 1247 761 l 1092 761 l 1092 -22 l 858 0 z "},"ळ":{"ha":1279,"x_min":-15,"x_max":1293,"o":"m 881 486 q 800 440 836 486 q 746 340 764 394 l 735 308 q 799 249 761 271 q 881 226 838 226 q 972 269 936 226 q 1007 367 1007 311 q 972 450 1007 414 q 881 486 936 486 m 414 225 q 505 284 464 225 q 560 401 546 343 q 495 461 533 439 q 414 483 457 483 q 323 441 358 483 q 288 343 288 399 q 323 260 288 296 q 414 225 358 225 m 656 579 q 706 629 675 606 q 774 668 736 653 l 774 760 l 7 760 q -4 852 1 807 q -15 944 -10 897 l 1269 944 l 1293 760 l 996 760 l 996 679 q 1166 567 1104 650 q 1228 363 1228 483 q 1131 116 1228 214 q 889 18 1035 18 q 746 51 810 18 q 639 131 682 83 q 542 51 607 86 q 408 17 478 17 q 163 108 260 17 q 67 347 67 199 q 163 596 67 500 q 406 692 260 692 q 549 659 485 692 q 656 579 613 626 z "},"ऴ":{"ha":1279,"x_min":-15,"x_max":1293,"o":"m 881 486 q 800 440 836 486 q 746 340 764 394 l 735 308 q 799 249 761 271 q 881 226 838 226 q 972 269 936 226 q 1007 367 1007 311 q 972 450 1007 414 q 881 486 936 486 m 414 225 q 505 284 464 225 q 560 401 546 343 q 495 461 533 439 q 414 483 457 483 q 323 441 358 483 q 288 343 288 399 q 323 260 288 296 q 414 225 358 225 m 656 579 q 706 629 675 606 q 774 668 736 653 l 774 760 l 7 760 q -4 852 1 807 q -15 944 -10 897 l 1269 944 l 1293 760 l 996 760 l 996 679 q 1166 567 1104 650 q 1228 363 1228 483 q 1131 116 1228 214 q 889 18 1035 18 q 746 51 810 18 q 639 131 682 83 q 542 51 607 86 q 408 17 478 17 q 163 108 260 17 q 67 347 67 199 q 163 596 67 500 q 406 692 260 692 q 549 659 485 692 q 656 579 613 626 m 525 -137 q 560 -52 525 -87 q 644 -17 594 -17 q 730 -52 694 -17 q 765 -137 765 -87 q 730 -222 765 -186 q 644 -257 694 -257 q 560 -222 594 -257 q 525 -137 525 -186 z "},"व":{"ha":906,"x_min":-15,"x_max":921,"o":"m 53 379 q 143 597 53 510 q 379 683 233 683 q 470 671 422 683 q 532 644 518 658 l 532 761 l 7 761 l -15 944 l 897 944 l 921 761 l 765 761 l 765 -22 l 532 0 l 532 114 q 470 87 518 100 q 379 74 422 74 q 143 161 233 74 q 53 379 53 249 m 414 260 q 490 283 461 260 q 532 326 519 307 l 532 431 q 490 475 519 451 q 414 499 461 499 q 321 464 357 499 q 285 378 285 429 q 321 294 285 328 q 414 260 357 260 z "},"श":{"ha":1185,"x_min":65,"x_max":1200,"o":"m 810 0 l 810 761 l 675 761 l 653 944 l 1176 944 l 1200 761 l 1043 761 l 1043 -22 l 810 0 m 400 608 q 397 640 400 625 q 390 663 393 656 q 330 628 368 640 q 254 617 292 617 q 123 662 181 617 q 65 786 65 707 q 129 919 65 869 q 286 969 193 969 q 531 861 439 969 q 624 618 624 753 q 570 436 624 526 q 417 306 517 346 l 604 13 l 399 -40 l 213 278 q 194 278 207 278 q 175 279 181 279 q 111 297 138 279 q 79 349 85 315 q 138 492 79 425 q 267 558 196 558 q 309 536 289 558 q 339 489 329 514 q 385 542 369 506 q 400 608 400 579 z "},"ष":{"ha":1001,"x_min":-15,"x_max":1017,"o":"m 628 0 l 628 217 q 554 190 601 201 q 465 179 507 179 q 222 260 331 179 q 113 500 113 340 l 113 761 l 7 761 l -15 944 l 993 944 l 1017 761 l 861 761 l 861 -22 l 628 0 m 628 761 l 419 761 l 628 482 l 628 761 m 479 369 q 532 377 507 369 q 575 399 557 385 q 455 560 554 425 q 336 721 356 696 l 336 526 q 374 408 336 447 q 479 369 411 369 z "},"स":{"ha":1189,"x_min":-15,"x_max":1204,"o":"m 814 760 l 561 760 q 576 695 572 729 q 581 635 581 661 q 576 575 581 604 q 560 519 571 546 l 814 519 l 814 760 m 178 308 q 90 322 126 308 q 44 379 53 335 q 103 523 44 457 q 233 589 163 589 q 274 568 256 589 q 304 522 293 547 q 344 576 331 540 q 358 642 358 611 q 347 710 358 676 q 314 760 336 743 l 7 760 q -4 852 1 807 q -15 944 -10 897 l 1181 944 l 1204 760 l 1047 760 l 1047 -22 l 814 0 l 814 351 l 411 351 q 397 344 404 349 q 382 338 390 340 q 483 175 433 257 q 583 13 532 93 q 481 -12 532 0 q 378 -39 429 -25 l 178 308 z "},"ह":{"ha":794,"x_min":-15,"x_max":810,"o":"m 722 315 q 699 219 722 263 q 632 153 675 176 l 481 247 q 503 267 494 257 q 511 296 511 278 q 486 332 511 313 q 413 351 461 351 q 341 328 369 351 q 313 272 313 306 q 392 186 313 208 q 547 158 472 164 l 501 -25 q 211 52 328 -19 q 94 272 94 124 q 108 351 94 313 q 146 421 121 389 q 115 474 125 443 q 104 543 104 504 q 176 692 104 642 q 343 742 247 742 l 426 742 l 426 761 l 7 761 l -15 944 l 786 944 l 810 761 l 665 761 l 665 569 l 376 569 q 344 563 354 569 q 335 544 335 556 q 336 535 335 540 q 340 529 338 531 q 375 535 357 532 q 411 538 393 538 q 631 474 540 538 q 722 315 722 411 z "},"ॸ":{"ha":939,"x_min":-15,"x_max":954,"o":"m 386 760 l 386 493 l 500 493 q 749 414 644 493 q 853 186 853 335 l 853 -21 q 725 -10 831 -21 q 619 0 619 0 l 619 186 q 590 276 619 243 q 503 308 560 308 l 385 308 q 356 216 382 249 q 281 183 331 183 q 119 248 188 183 q 50 397 50 313 q 81 465 50 438 q 165 492 111 492 l 165 760 l 7 760 q -4 852 1 807 q -15 944 -10 897 l 931 944 l 954 760 l 386 760 z "},"ऺ":{"ha":0,"x_min":-225,"x_max":6,"o":"m 6 944 l -225 944 l -225 1256 l 6 1233 l 6 944 z "},"ऻ":{"ha":517,"x_min":-15,"x_max":532,"o":"m 142 0 l 142 760 l 7 760 q -4 852 1 807 q -15 944 -10 897 l 143 944 l 143 1256 l 374 1233 l 374 944 l 507 944 l 532 760 l 375 760 l 375 -22 l 142 0 z "},"़":{"ha":0,"x_min":11,"x_max":251,"o":"m 11 -193 q 46 -108 11 -143 q 131 -72 81 -72 q 216 -108 181 -72 q 251 -193 251 -143 q 216 -277 251 -242 q 131 -312 181 -312 q 46 -277 81 -312 q 11 -193 11 -242 z "},"ऽ":{"ha":797,"x_min":46,"x_max":721,"o":"m 389 172 q 465 194 436 172 q 494 253 494 215 q 444 381 494 308 q 304 554 393 454 l 100 786 l 100 944 l 683 944 l 708 761 l 411 761 l 478 674 q 630 471 539 594 q 721 247 721 347 q 640 57 721 139 q 383 -25 558 -25 q 226 2 324 -25 q 46 89 129 29 l 151 271 q 278 199 218 225 q 389 172 339 172 z "},"ा":{"ha":517,"x_min":-15,"x_max":532,"o":"m 142 0 l 142 761 l 7 761 l -15 944 l 508 944 l 532 761 l 376 761 l 376 -22 l 142 0 z "},"ि":{"ha":517,"x_min":-15,"x_max":1122,"o":"m 432 1136 q 341 1104 371 1136 q 311 1046 311 1072 q 320 992 311 1018 q 344 944 329 965 l 508 944 l 532 761 l 376 761 l 376 -22 l 142 0 l 142 761 l 7 761 l -15 944 l 103 944 q 83 998 93 964 q 72 1075 72 1032 q 161 1274 72 1196 q 407 1351 250 1351 q 783 1280 574 1351 q 1122 1138 992 1208 l 1021 969 q 708 1090 868 1044 q 432 1136 547 1136 z "},"ी":{"ha":517,"x_min":-358,"x_max":532,"o":"m 142 0 l 142 761 l 7 761 l -15 944 l 115 944 q 29 1058 93 996 q -99 1121 -35 1121 q -117 1113 -110 1121 q -125 1094 -125 1104 q -112 1058 -125 1081 q -78 1018 -99 1036 l -308 972 q -345 1037 -332 1001 q -358 1117 -358 1072 q -288 1264 -358 1203 q -112 1325 -218 1325 q 169 1207 40 1325 q 358 944 297 1089 l 508 944 l 532 761 l 376 761 l 376 -22 l 142 0 z "},"ु":{"ha":0,"x_min":-618,"x_max":28,"o":"m -219 -303 q -178 -287 -192 -303 q -165 -251 -165 -272 q -180 -217 -165 -232 q -219 -201 -194 -201 l -321 -201 l -321 -25 l -214 -25 q -43 -87 -114 -25 q 28 -257 28 -149 q -47 -425 28 -364 q -222 -486 -121 -486 q -432 -416 -329 -486 q -618 -211 -535 -346 l -476 -115 q -341 -254 -407 -206 q -219 -303 -275 -303 z "},"ू":{"ha":0,"x_min":-496,"x_max":150,"o":"m -249 -208 q -289 -224 -275 -208 q -303 -260 -303 -240 q -288 -295 -303 -279 q -249 -311 -274 -311 l -147 -311 l -147 -486 l -254 -486 q -425 -425 -354 -486 q -496 -256 -496 -364 q -422 -86 -496 -147 q -246 -25 -347 -25 q -36 -95 -139 -25 q 150 -300 67 -165 l 8 -396 q -127 -257 -61 -306 q -249 -208 -193 -208 z "},"ृ":{"ha":0,"x_min":-490,"x_max":-87,"o":"m -222 -303 q -180 -299 -208 -303 q -125 -287 -151 -296 l -87 -464 q -158 -481 -118 -475 q -237 -486 -197 -486 q -410 -427 -329 -486 q -490 -257 -490 -368 q -415 -87 -490 -149 q -254 -25 -340 -25 l -122 -25 l -122 -210 l -240 -210 q -281 -222 -264 -210 q -297 -254 -297 -235 q -277 -290 -297 -276 q -222 -303 -257 -303 z "},"ॄ":{"ha":0,"x_min":-396,"x_max":-126,"o":"m -396 -181 q -340 -61 -396 -97 q -222 -25 -283 -25 l -126 -25 l -126 -164 l -190 -164 q -212 -169 -201 -164 q -222 -185 -222 -175 q -210 -201 -222 -197 q -190 -204 -199 -204 l -126 -204 l -156 -306 q -212 -310 -194 -306 q -229 -324 -229 -315 q -218 -339 -229 -333 q -190 -344 -207 -344 l -135 -344 l -165 -483 l -222 -483 q -340 -447 -283 -483 q -396 -331 -396 -410 q -387 -290 -396 -311 q -369 -254 -379 -269 q -389 -219 -382 -239 q -396 -181 -396 -199 z "},"ॅ":{"ha":0,"x_min":-1,"x_max":713,"o":"m 356 1039 q 151 1089 251 1039 q -1 1247 50 1139 l 161 1346 q 240 1255 188 1290 q 356 1219 293 1219 q 469 1253 418 1219 q 551 1346 521 1288 l 713 1247 q 560 1089 661 1139 q 356 1039 460 1039 z "},"ॆ":{"ha":0,"x_min":-833,"x_max":-124,"o":"m -631 1288 q -611 1233 -631 1247 q -560 1218 -592 1218 l -396 1218 q -201 1156 -279 1218 q -124 1008 -124 1093 l -124 888 l -333 888 l -333 950 q -358 1011 -333 989 q -415 1033 -382 1033 l -561 1033 q -759 1091 -685 1035 q -833 1238 -833 1147 l -833 1314 l -631 1288 z "},"े":{"ha":0,"x_min":-704,"x_max":-72,"o":"m -72 886 l -310 869 l -704 1228 l -526 1340 l -72 886 z "},"ै":{"ha":0,"x_min":-717,"x_max":-154,"o":"m -154 940 l -346 938 q -412 986 -372 964 q -525 1008 -451 1008 l -672 1008 l -717 1203 l -533 1203 q -472 1201 -501 1203 q -414 1190 -442 1200 q -444 1276 -421 1213 q -472 1358 -467 1340 l -265 1417 l -154 940 z "},"ॉ":{"ha":517,"x_min":-99,"x_max":615,"o":"m 258 1039 q 53 1089 154 1039 q -99 1247 -47 1139 l 64 1346 q 143 1255 90 1290 q 258 1219 196 1219 q 372 1253 321 1219 q 454 1346 424 1288 l 615 1247 q 463 1089 564 1139 q 258 1039 363 1039 m 142 0 l 142 761 l 7 761 l -15 944 l 508 944 l 532 761 l 376 761 l 376 -22 l 142 0 z "},"ॊ":{"ha":517,"x_min":-375,"x_max":532,"o":"m -174 1288 q -154 1233 -174 1247 q -103 1218 -135 1218 l 94 1218 q 290 1156 213 1218 q 367 1008 367 1093 l 367 944 l 508 944 l 532 761 l 376 761 l 376 -22 l 142 0 l 142 761 l 7 761 l -15 944 l 157 944 l 157 950 q 133 1011 157 989 q 75 1033 110 1033 l -104 1033 q -301 1090 -226 1033 q -375 1238 -375 1147 l -375 1314 l -174 1288 z "},"ो":{"ha":517,"x_min":-236,"x_max":532,"o":"m 142 0 l 142 760 l 7 760 q -4 852 1 807 q -15 944 -10 897 l 75 944 l -236 1228 l -58 1340 l 336 944 l 507 944 l 532 760 l 375 760 l 375 -22 l 142 0 z "},"ौ":{"ha":517,"x_min":-218,"x_max":532,"o":"m 142 0 l 142 760 l 7 760 q -4 852 1 807 q -15 944 -10 897 l 146 944 q 81 988 119 968 q -25 1007 43 1007 l -174 1007 l -218 1203 l -35 1203 q 27 1201 -3 1203 q 83 1189 57 1199 q 53 1275 71 1228 q 25 1358 36 1322 l 232 1417 l 342 944 l 507 944 l 532 760 l 375 760 l 375 -22 l 142 0 z "},"ॏ":{"ha":517,"x_min":-276,"x_max":532,"o":"m 358 944 l 507 944 l 532 760 l 375 760 l 375 -22 l 142 0 l 142 760 l 7 760 q -4 852 1 807 q -15 944 -10 897 l 156 944 q 144 965 154 956 q 121 974 135 974 l -15 974 q -204 1033 -132 974 q -276 1192 -276 1093 l -276 1250 q -192 1236 -233 1244 q -107 1222 -150 1228 q -85 1151 -107 1176 q -22 1126 -64 1126 l 72 1126 q -10 1198 21 1151 q -42 1311 -42 1244 l -42 1371 l 125 1342 q 147 1260 125 1294 q 201 1214 168 1226 q 315 1131 272 1186 q 358 997 358 1076 l 358 944 z "},"्":{"ha":0,"x_min":-471,"x_max":-4,"o":"m -142 -524 l -471 -236 l -314 -94 l -4 -403 l -142 -524 z "},"ॖ":{"ha":0,"x_min":-6,"x_max":701,"o":"m 532 -76 l 701 -181 q 547 -325 646 -283 q 347 -367 449 -367 q 148 -325 246 -367 q -6 -181 50 -283 l 164 -76 q 252 -162 196 -137 q 347 -186 308 -186 q 443 -163 388 -186 q 532 -76 499 -140 z "},"ॗ":{"ha":0,"x_min":15,"x_max":894,"o":"m 632 -74 l 781 -160 q 617 -311 711 -278 q 458 -344 522 -344 q 299 -310 393 -344 q 138 -160 204 -276 l 289 -74 q 360 -165 311 -137 q 458 -192 410 -192 q 550 -169 501 -192 q 632 -74 599 -147 m 749 -243 l 894 -332 q 698 -490 819 -444 q 458 -535 576 -535 q 217 -490 344 -535 q 15 -335 89 -444 l 161 -244 q 288 -336 208 -301 q 458 -371 367 -371 q 622 -340 547 -371 q 749 -243 696 -308 z "},"ॎ":{"ha":515,"x_min":142,"x_max":532,"o":"m 142 0 l 142 944 l 508 944 l 532 761 l 375 761 l 375 -22 l 142 0 z "},"ॵ":{"ha":1858,"x_min":79,"x_max":1874,"o":"m 988 0 l 988 400 l 717 400 q 755 335 742 374 q 768 256 768 296 q 676 58 768 139 q 393 -22 585 -22 q 228 -1 310 -22 q 79 53 146 19 l 119 242 q 246 187 181 207 q 375 167 311 167 q 490 197 446 167 q 535 278 535 226 q 492 371 535 339 q 363 403 450 403 l 214 403 l 189 574 l 365 574 q 478 606 440 574 q 515 686 515 639 q 483 755 515 726 q 388 783 451 783 q 274 766 332 783 q 139 708 217 749 l 99 896 q 248 950 167 929 q 406 971 329 971 q 665 894 582 971 q 749 701 749 818 q 733 630 749 667 q 696 574 718 593 l 988 574 l 988 761 l 853 761 l 829 944 l 1490 944 q 1478 965 1488 956 q 1454 974 1469 974 l 1317 974 q 1128 1034 1200 974 q 1057 1193 1057 1094 l 1057 1251 l 1225 1222 q 1247 1153 1225 1178 q 1310 1128 1268 1128 l 1407 1128 q 1323 1199 1356 1153 q 1290 1311 1290 1246 l 1290 1371 l 1460 1343 q 1481 1261 1460 1296 q 1536 1214 1501 1226 q 1649 1132 1607 1186 q 1692 997 1692 1078 l 1692 944 l 1850 944 l 1874 761 l 1718 761 l 1718 -22 l 1485 0 l 1485 761 l 1221 761 l 1221 -22 l 988 0 z "},"ॐ":{"ha":1265,"x_min":78,"x_max":1256,"o":"m 781 1250 q 815 1331 781 1297 q 896 1365 849 1365 q 976 1331 943 1365 q 1010 1250 1010 1297 q 976 1169 1010 1203 q 896 1136 943 1136 q 815 1169 849 1136 q 781 1250 781 1203 m 1094 1199 q 1176 1149 1135 1174 q 1256 1100 1217 1125 q 1102 940 1204 992 q 896 889 1000 889 q 690 940 792 889 q 536 1100 588 992 q 616 1149 575 1125 q 697 1199 657 1174 q 778 1106 724 1143 q 896 1069 833 1069 q 1011 1105 958 1069 q 1094 1199 1064 1140 m 749 701 q 719 574 749 638 q 635 478 690 510 q 653 470 644 475 q 668 461 661 465 q 763 530 703 497 q 901 563 822 563 q 1138 486 1050 563 q 1225 281 1225 410 q 1126 49 1225 119 q 901 -24 1028 -21 l 867 160 q 974 190 938 160 q 1011 269 1011 219 q 978 349 1011 319 q 892 378 946 378 q 813 360 843 378 q 761 318 783 342 q 765 292 764 306 q 767 264 767 278 q 676 63 767 147 q 393 -21 585 -21 q 227 -1 310 -21 q 78 53 144 18 l 119 240 q 246 185 181 206 q 375 165 311 165 q 490 195 446 165 q 533 278 533 225 q 491 370 533 339 q 361 401 449 401 l 214 401 l 189 572 l 364 572 q 476 606 439 572 q 514 686 514 639 q 483 754 514 726 q 388 782 451 782 q 273 765 331 782 q 139 708 215 749 l 97 894 q 247 950 165 929 q 404 971 329 971 q 665 894 582 971 q 749 701 749 818 z "},"॑":{"ha":0,"x_min":26,"x_max":238,"o":"m 215 1032 l 47 1032 l 26 1346 l 238 1346 l 215 1032 z "},"॒":{"ha":0,"x_min":25,"x_max":789,"o":"m 789 -282 l 49 -282 l 25 -99 l 765 -99 l 789 -282 z "},"॓":{"ha":0,"x_min":-10,"x_max":349,"o":"m 349 1033 l 193 1033 l -10 1347 l 208 1347 l 349 1033 z "},"॔":{"ha":0,"x_min":14,"x_max":371,"o":"m 168 1033 l 14 1033 l 156 1347 l 371 1347 l 168 1033 z "},"ॕ":{"ha":0,"x_min":0,"x_max":708,"o":"m 536 1529 l 696 1442 q 538 1276 632 1317 q 347 1235 444 1235 q 156 1276 249 1235 q 0 1442 63 1317 l 161 1531 q 249 1435 193 1463 q 347 1407 306 1407 q 442 1431 390 1407 q 536 1529 494 1454 m 708 1038 l 43 1038 q 33 1120 38 1079 q 22 1204 28 1161 l 688 1204 q 698 1120 693 1161 q 708 1038 703 1079 z "},"ॶ":{"ha":1361,"x_min":78,"x_max":1376,"o":"m 988 0 l 988 399 l 715 399 q 753 335 740 374 q 767 256 767 296 q 676 59 767 139 q 393 -21 585 -21 q 227 -1 310 -21 q 78 53 144 18 l 119 240 q 246 185 181 206 q 375 165 311 165 q 490 195 446 165 q 533 278 533 225 q 491 370 533 339 q 361 401 449 401 l 214 401 l 189 572 l 364 572 q 476 606 439 572 q 514 686 514 639 q 483 754 514 726 q 388 782 451 782 q 273 765 331 782 q 139 708 215 749 l 97 894 q 247 950 165 929 q 404 971 329 971 q 665 894 582 971 q 749 701 749 818 q 733 630 749 667 q 696 572 718 593 l 988 572 l 988 760 l 851 760 l 829 944 l 1353 944 l 1376 760 l 1219 760 l 1219 -22 l 988 0 m 950 -76 l 1119 -181 q 965 -325 1064 -283 q 765 -367 867 -367 q 566 -325 664 -367 q 413 -181 468 -283 l 582 -76 q 670 -162 614 -137 q 765 -186 726 -186 q 862 -163 806 -186 q 950 -76 918 -140 z "},"ॷ":{"ha":1361,"x_min":79,"x_max":1376,"o":"m 988 0 l 988 400 l 717 400 q 755 335 742 374 q 768 256 768 296 q 676 58 768 139 q 393 -22 585 -22 q 228 -1 310 -22 q 79 53 146 19 l 119 242 q 246 187 181 207 q 375 167 311 167 q 490 197 446 167 q 535 278 535 226 q 492 371 535 339 q 363 403 450 403 l 214 403 l 189 574 l 365 574 q 478 606 440 574 q 515 686 515 639 q 483 755 515 726 q 388 783 451 783 q 274 766 332 783 q 139 708 217 749 l 99 896 q 248 950 167 929 q 406 971 329 971 q 665 894 582 971 q 749 701 749 818 q 733 630 749 667 q 696 574 718 593 l 988 574 l 988 761 l 853 761 l 829 944 l 1354 944 l 1376 761 l 1221 761 l 1221 -22 l 988 0 m 921 -74 l 1069 -160 q 906 -311 1000 -278 q 747 -344 811 -344 q 588 -310 682 -344 q 426 -160 493 -276 l 578 -74 q 649 -165 600 -137 q 747 -192 699 -192 q 839 -169 790 -192 q 921 -74 888 -147 m 1038 -243 l 1183 -332 q 987 -490 1108 -444 q 747 -535 865 -535 q 506 -490 633 -535 q 304 -335 378 -444 l 450 -244 q 576 -336 497 -301 q 747 -371 656 -371 q 910 -340 836 -371 q 1038 -243 985 -308 z "},"क़":{"ha":1289,"x_min":-15,"x_max":1303,"o":"m 410 258 q 492 283 465 258 q 532 329 518 308 l 532 428 q 492 473 518 447 q 410 499 465 499 q 319 464 354 499 q 285 379 285 429 q 319 293 285 328 q 410 258 354 258 m 532 0 l 532 110 q 468 85 515 97 q 379 74 421 74 q 142 160 232 74 q 53 378 53 247 q 142 597 53 510 q 379 683 232 683 q 468 672 421 683 q 532 646 515 660 l 532 760 l 7 760 q -4 852 1 807 q -15 944 -10 897 l 1281 944 l 1303 760 l 765 760 l 765 643 q 827 669 781 656 q 915 683 874 683 q 1153 597 1063 683 q 1243 378 1243 510 q 1140 141 1243 217 q 911 63 1038 65 l 858 258 q 969 292 929 258 q 1010 379 1010 325 q 978 464 1010 429 q 890 499 947 499 q 808 474 839 499 q 765 429 778 449 l 765 -22 l 532 0 m 117 -119 q 151 -35 117 -71 q 236 0 186 0 q 320 -35 285 0 q 356 -119 356 -71 q 320 -203 356 -168 q 236 -239 285 -239 q 151 -203 186 -239 q 117 -119 117 -168 z "},"ख़":{"ha":1450,"x_min":-15,"x_max":1464,"o":"m 703 165 q 754 170 729 165 q 801 185 779 175 q 690 281 732 217 q 649 425 649 346 q 733 627 649 546 q 950 708 817 708 q 1024 701 986 708 q 1075 685 1061 693 l 1075 760 l 558 760 q 574 695 568 729 q 579 635 579 661 q 533 458 579 529 q 415 353 486 388 q 522 227 449 289 q 703 165 596 165 m 979 528 q 903 499 932 528 q 875 426 875 471 q 903 353 875 382 q 979 325 932 325 q 1057 361 1039 325 q 1075 426 1075 397 q 1057 492 1075 457 q 979 528 1039 528 m 38 -14 q 72 70 38 35 q 157 106 107 106 q 241 70 206 106 q 276 -14 276 35 q 241 -98 276 -62 q 157 -133 206 -133 q 72 -98 107 -133 q 38 -14 38 -62 m 1075 0 l 1075 89 q 908 1 1004 33 q 694 -32 811 -32 q 353 76 481 -32 q 181 310 226 183 l 160 310 q 76 328 106 310 q 42 379 47 347 q 102 523 42 457 q 233 589 163 589 q 274 569 256 589 q 304 524 293 549 q 341 574 326 539 q 356 640 356 610 q 344 708 356 675 q 311 760 333 742 l 7 760 q -4 852 1 807 q -15 944 -10 897 l 1442 944 l 1464 760 l 1308 760 l 1308 -22 l 1075 0 z "},"ग़":{"ha":1056,"x_min":-15,"x_max":1071,"o":"m 682 0 l 682 760 l 425 760 l 425 282 q 398 188 425 222 q 311 154 371 154 q 153 222 226 154 q 81 383 81 290 q 112 459 81 433 q 192 485 143 485 l 192 760 l 7 760 q -4 852 1 807 q -15 944 -10 897 l 1047 944 l 1071 760 l 915 760 l 915 -22 l 682 0 m 154 -35 q 189 48 154 13 q 274 83 224 83 q 358 48 322 83 q 393 -35 393 13 q 358 -119 393 -83 q 274 -154 322 -154 q 189 -119 224 -154 q 154 -35 154 -83 z "},"ज़":{"ha":1161,"x_min":-15,"x_max":1176,"o":"m 788 0 l 788 461 l 656 461 q 665 416 661 440 q 669 367 669 392 q 567 131 669 210 q 325 51 465 51 q 158 77 239 51 q 18 142 76 103 l 54 351 q 183 271 118 299 q 315 242 247 243 q 415 276 376 242 q 453 358 453 311 q 426 431 453 401 q 342 461 399 461 l 242 461 l 217 643 l 788 643 l 788 761 l 7 761 l -15 944 l 1153 944 l 1176 761 l 1021 761 l 1021 -22 l 788 0 m 207 -137 q 242 -53 207 -89 q 326 -18 276 -18 q 412 -53 376 -18 q 447 -137 447 -89 q 412 -222 447 -186 q 326 -257 376 -257 q 242 -222 276 -257 q 207 -137 207 -186 z "},"ड़":{"ha":775,"x_min":-15,"x_max":790,"o":"m 388 167 q 466 183 439 167 q 493 225 493 200 q 480 258 493 244 q 440 271 467 271 l 328 271 q 156 331 235 271 q 76 494 76 390 q 149 658 76 603 q 325 714 221 714 l 447 714 l 447 761 l 7 761 l -15 944 l 767 944 l 790 761 l 651 761 l 651 526 l 340 526 q 308 517 319 526 q 296 494 296 508 q 309 469 296 481 q 342 457 322 457 l 432 457 q 646 406 561 457 q 731 228 731 356 q 645 54 731 131 q 399 -22 560 -22 q 229 -3 317 -22 q 75 50 142 17 l 115 239 q 249 185 176 204 q 388 167 322 167 m 281 -189 q 315 -103 281 -139 q 401 -68 350 -68 q 485 -103 450 -68 q 521 -189 521 -139 q 485 -273 521 -237 q 401 -308 450 -308 q 315 -273 350 -308 q 281 -189 281 -237 z "},"ढ़":{"ha":931,"x_min":-15,"x_max":953,"o":"m 75 344 q 212 609 75 522 q 535 696 349 696 l 535 760 l 7 760 q -4 852 1 807 q -15 944 -10 897 l 929 944 l 953 760 l 768 760 l 768 678 q 769 594 768 636 q 769 513 769 553 l 653 513 q 407 485 510 513 q 304 335 304 458 q 349 213 304 267 q 486 156 393 158 q 475 190 478 169 q 472 229 472 211 q 525 356 472 304 q 665 408 578 408 q 800 354 746 408 q 854 218 854 300 q 764 44 854 114 q 515 -25 674 -25 q 216 53 357 -25 q 75 344 75 131 m 399 -176 q 433 -92 399 -128 q 517 -56 467 -56 q 602 -92 567 -56 q 638 -176 638 -128 q 602 -260 638 -225 q 517 -296 567 -296 q 433 -260 467 -296 q 399 -176 399 -225 z "},"फ़":{"ha":1383,"x_min":-15,"x_max":1399,"o":"m 479 369 q 577 399 538 369 q 626 467 617 428 l 626 760 l 335 760 l 335 526 q 373 408 335 446 q 479 369 411 369 m 626 0 l 626 215 q 554 189 601 200 q 465 178 507 178 q 221 259 331 178 q 111 500 111 340 l 111 760 l 7 760 q -4 852 1 807 q -15 944 -10 897 l 1375 944 l 1399 760 l 860 760 l 860 638 q 923 664 876 650 q 1011 678 969 678 q 1249 591 1158 678 q 1339 372 1339 504 q 1235 135 1339 211 q 1006 57 1132 60 l 954 253 q 1065 287 1025 253 q 1106 374 1106 321 q 1074 458 1106 424 q 986 493 1043 493 q 904 468 935 493 q 860 424 874 443 l 860 -22 l 626 0 m 142 0 q 176 84 142 49 q 260 119 211 119 q 345 84 310 119 q 381 0 381 49 q 345 -83 381 -47 q 260 -118 310 -118 q 176 -83 211 -118 q 142 0 142 -47 z "},"य़":{"ha":964,"x_min":-15,"x_max":979,"o":"m 590 0 l 590 229 q 506 203 556 211 q 406 196 457 196 q 170 283 275 196 q 65 490 65 369 l 107 536 q 156 580 133 546 q 178 661 178 614 q 162 719 178 688 q 125 761 146 750 l 7 761 l -15 944 l 957 944 l 979 761 l 824 761 l 824 -22 l 590 0 m 439 389 q 536 414 492 389 q 590 479 581 439 l 590 761 l 381 761 q 394 706 389 739 q 400 651 400 674 q 378 542 400 592 q 306 454 357 493 q 354 410 324 432 q 439 389 385 389 m 118 0 q 153 85 118 50 q 238 121 188 121 q 323 85 288 121 q 358 0 358 50 q 323 -84 358 -49 q 238 -119 288 -119 q 153 -84 188 -119 q 118 0 118 -49 z "},"ॠ":{"ha":1292,"x_min":-15,"x_max":1306,"o":"m 1238 278 q 1183 160 1238 200 q 1124 81 1129 119 q 1133 58 1124 65 q 1154 51 1142 51 l 1189 51 l 1161 -87 l 1147 -87 q 1096 -94 1113 -87 q 1079 -112 1079 -101 q 1091 -133 1079 -126 q 1117 -139 1103 -139 l 1174 -139 l 1143 -289 l 1082 -289 q 960 -246 1019 -289 q 901 -119 901 -203 q 909 -66 901 -97 q 929 -17 917 -35 q 913 17 919 -1 q 906 61 906 36 q 963 174 906 124 q 1019 271 1019 224 q 1008 328 1019 294 q 975 392 997 361 q 863 347 936 365 q 735 322 790 328 l 735 -22 l 501 0 l 501 217 l 229 47 l 106 218 q 266 315 185 265 q 426 413 347 365 q 351 458 386 444 q 286 471 317 471 q 227 456 274 471 q 126 415 181 440 l 40 607 q 169 652 92 632 q 274 672 247 672 q 393 660 344 672 q 501 614 442 649 l 501 760 l 7 760 q -4 852 1 807 q -15 944 -10 897 l 1282 944 l 1306 760 l 735 760 l 735 508 q 808 524 769 514 q 865 544 847 535 q 853 579 857 561 q 849 619 849 597 q 882 701 849 675 q 961 726 915 726 q 1089 688 1036 726 q 1142 586 1142 650 q 1136 547 1142 571 q 1121 513 1131 522 q 1206 398 1175 465 q 1238 278 1238 331 z "},"ॡ":{"ha":1232,"x_min":-15,"x_max":1247,"o":"m 821 36 q 831 94 821 69 q 858 138 842 119 l 858 410 q 828 467 850 444 q 778 490 806 490 q 719 455 742 490 q 696 364 696 419 l 696 175 l 493 196 l 493 364 q 470 453 493 419 q 396 486 447 486 q 332 462 357 486 q 307 407 307 438 q 331 274 307 346 q 443 26 356 203 l 236 -35 q 118 218 157 118 q 79 422 79 318 q 167 606 79 531 q 386 681 254 681 q 507 654 453 681 q 590 593 561 628 q 668 654 621 628 q 782 681 715 681 q 820 676 800 681 q 858 665 840 672 l 858 761 l 7 761 l -15 944 l 1224 944 l 1247 761 l 1092 761 l 1092 54 l 1028 54 q 1006 49 1017 54 q 996 32 996 44 q 1008 13 996 18 q 1028 8 1019 8 l 1092 8 l 1063 -92 q 1006 -97 1022 -92 q 989 -112 989 -103 q 1000 -131 989 -125 q 1028 -137 1011 -137 l 1083 -137 l 1053 -276 l 993 -276 q 876 -238 932 -276 q 821 -119 821 -200 q 830 -77 821 -100 q 850 -42 839 -54 q 828 -5 836 -26 q 821 36 821 17 z "},"ॢ":{"ha":0,"x_min":22,"x_max":665,"o":"m 417 -228 l 417 -375 l 269 -336 l 269 -228 q 256 -194 269 -206 q 224 -182 242 -182 q 195 -194 207 -182 q 183 -218 183 -206 q 208 -306 183 -258 q 292 -464 232 -354 l 131 -500 q 49 -330 76 -396 q 22 -199 22 -264 q 76 -76 22 -125 q 215 -26 131 -26 q 290 -43 257 -26 q 342 -89 324 -60 q 399 -44 363 -62 q 475 -26 436 -26 q 611 -77 558 -26 q 664 -199 664 -128 q 645 -275 664 -239 q 621 -328 626 -311 q 620 -331 621 -329 q 619 -333 619 -332 q 624 -344 619 -339 q 638 -349 628 -349 l 665 -349 l 626 -493 l 576 -493 q 491 -469 538 -493 q 444 -386 444 -446 q 472 -297 444 -335 q 500 -218 500 -258 q 489 -193 500 -204 q 461 -182 478 -182 q 431 -194 444 -182 q 417 -228 417 -206 z "},"ॣ":{"ha":0,"x_min":13,"x_max":658,"o":"m 407 -228 l 407 -375 l 261 -336 l 261 -228 q 247 -194 261 -206 q 214 -182 232 -182 q 186 -194 197 -182 q 175 -218 175 -206 q 199 -306 175 -258 q 282 -464 222 -354 l 121 -500 q 40 -330 67 -396 q 13 -199 13 -264 q 67 -76 13 -125 q 206 -26 121 -26 q 281 -43 247 -26 q 333 -89 315 -60 q 390 -44 353 -62 q 465 -26 426 -26 q 602 -77 549 -26 q 656 -199 656 -128 q 635 -277 656 -242 q 614 -331 614 -312 q 619 -343 614 -339 q 635 -347 624 -347 l 658 -347 l 626 -467 l 575 -467 q 553 -474 563 -468 q 544 -489 544 -479 q 553 -505 544 -500 q 572 -510 563 -510 l 633 -510 l 597 -624 l 563 -624 q 466 -592 504 -624 q 428 -496 428 -561 q 436 -459 428 -478 q 458 -431 444 -440 q 447 -408 451 -421 q 443 -382 443 -394 q 468 -294 443 -329 q 493 -221 493 -260 q 482 -194 493 -207 q 453 -182 471 -182 q 421 -194 435 -182 q 407 -228 407 -206 z "},"।":{"ha":658,"x_min":213,"x_max":446,"o":"m 446 1049 l 446 -22 l 213 0 l 213 1071 l 446 1049 z "},"॥":{"ha":1215,"x_min":213,"x_max":1003,"o":"m 1003 1049 l 1003 -22 l 778 0 l 778 1071 l 1003 1049 m 436 1049 l 436 -22 l 213 0 l 213 1071 l 436 1049 z "},"०":{"ha":951,"x_min":74,"x_max":882,"o":"m 74 471 q 186 750 74 633 q 476 867 299 867 q 768 751 654 867 q 882 471 882 635 q 769 192 882 308 q 479 76 657 76 q 187 192 300 76 q 74 471 74 308 m 482 263 q 609 323 561 263 q 657 471 657 383 q 606 619 657 558 q 478 681 556 681 q 348 619 397 681 q 299 471 299 558 q 351 323 299 383 q 482 263 404 263 z "},"१":{"ha":589,"x_min":65,"x_max":547,"o":"m 69 474 l 214 588 q 129 655 171 606 q 88 760 88 704 q 151 915 88 860 q 306 971 214 971 q 469 906 410 971 q 528 746 528 842 q 490 603 528 678 q 365 464 453 529 l 286 406 q 417 217 326 349 q 547 29 508 85 l 333 -24 l 65 394 l 69 474 z "},"२":{"ha":751,"x_min":65,"x_max":681,"o":"m 457 644 q 423 731 457 692 q 333 769 389 769 q 235 749 286 769 q 150 701 185 728 l 65 879 q 188 942 108 913 q 336 971 267 971 q 597 864 513 971 q 681 644 681 757 q 622 466 681 557 q 456 336 564 375 l 656 13 l 450 -40 l 250 310 q 232 310 244 310 q 214 311 219 311 q 149 329 175 311 q 117 381 122 347 q 176 524 117 458 q 306 590 235 590 q 347 569 328 590 q 378 522 367 547 q 438 576 418 538 q 457 644 457 615 z "},"३":{"ha":769,"x_min":60,"x_max":701,"o":"m 686 717 q 663 617 686 669 q 593 535 639 564 q 671 458 640 508 q 701 351 701 407 q 630 176 701 253 q 436 86 558 100 l 515 -15 q 439 -69 476 -42 q 363 -122 401 -96 l 188 113 q 101 175 143 133 q 60 279 60 217 q 92 357 60 329 q 168 385 125 385 q 267 353 218 385 q 336 274 315 321 q 422 296 379 274 q 464 351 464 318 q 431 419 464 389 q 331 449 399 449 l 208 449 q 195 536 201 492 q 183 624 189 581 l 339 624 q 416 645 388 624 q 444 706 444 667 q 426 750 444 729 q 357 771 407 771 q 242 748 306 771 q 128 694 178 725 l 94 896 q 237 951 158 932 q 394 971 315 971 q 614 893 542 971 q 686 717 686 815 z "},"४":{"ha":1003,"x_min":43,"x_max":960,"o":"m 211 232 q 253 376 211 300 q 363 521 294 453 q 206 674 299 592 q 43 815 114 756 l 185 992 q 383 815 314 881 q 501 696 451 750 q 621 815 551 750 q 819 992 690 881 l 960 815 q 797 674 889 756 q 640 521 704 592 q 750 376 708 451 q 792 232 792 300 q 708 42 792 111 q 501 -26 625 -26 q 295 42 379 -26 q 211 232 211 111 m 501 181 q 546 198 529 181 q 563 238 563 215 q 545 291 563 263 q 501 349 528 319 q 458 291 475 319 q 440 238 440 263 q 458 198 440 215 q 501 181 475 181 z "},"५":{"ha":811,"x_min":89,"x_max":792,"o":"m 529 165 q 571 180 557 165 q 585 213 585 194 q 576 270 585 239 q 554 324 567 301 q 513 318 532 319 q 476 317 494 317 q 210 394 331 317 q 89 644 89 471 l 89 944 l 324 944 l 324 644 q 361 542 324 574 q 458 507 399 511 q 456 522 457 515 q 454 538 454 529 q 488 622 456 579 q 578 665 521 665 q 695 618 647 665 q 743 506 743 571 q 734 452 743 479 q 711 413 725 425 q 765 312 739 378 q 792 194 792 246 q 740 37 792 99 q 554 -25 688 -25 q 478 -19 532 -25 q 364 10 424 -12 l 415 189 q 488 169 467 172 q 529 165 510 165 z "},"६":{"ha":819,"x_min":71,"x_max":803,"o":"m 86 717 q 158 893 86 815 q 378 971 231 971 q 535 951 457 971 q 676 896 613 932 l 644 694 q 531 748 594 725 q 414 771 467 771 q 345 749 364 771 q 326 706 326 728 q 354 645 326 667 q 433 624 382 624 l 583 624 q 576 536 579 581 q 569 449 574 492 l 442 449 q 341 418 374 449 q 308 346 308 388 q 347 283 308 304 q 431 261 385 261 q 442 261 439 261 q 449 263 446 261 q 481 354 449 318 q 571 390 514 390 q 685 351 628 390 q 742 249 742 311 q 733 199 742 225 q 707 151 724 174 q 741 92 721 124 q 803 -8 761 60 q 706 -45 756 -26 q 610 -82 657 -64 q 566 -3 588 -43 q 524 75 544 36 q 466 64 497 67 q 407 61 435 61 q 165 141 258 61 q 71 346 71 221 q 101 455 71 401 q 179 535 131 508 q 110 617 133 564 q 86 717 86 669 z "},"७":{"ha":1036,"x_min":33,"x_max":978,"o":"m 635 671 q 593 653 613 671 q 574 607 574 636 q 593 561 574 578 q 643 544 613 544 q 685 553 665 544 q 724 576 706 561 q 692 644 715 617 q 635 671 669 671 m 631 343 q 430 415 511 343 q 349 596 349 488 q 426 795 349 715 q 625 875 504 875 q 886 749 794 875 q 978 421 978 624 q 856 106 978 239 q 513 -26 735 -26 q 156 117 278 -26 q 33 518 33 261 l 271 518 q 336 275 271 361 q 513 189 401 189 q 655 239 599 189 q 726 364 711 289 q 677 349 703 354 q 631 343 651 343 z "},"८":{"ha":814,"x_min":61,"x_max":754,"o":"m 415 192 q 508 232 465 192 q 551 397 551 272 l 754 338 l 754 318 q 678 90 754 207 q 410 -26 601 -26 q 154 70 247 -26 q 61 311 61 167 q 208 697 61 506 q 482 992 356 888 l 618 825 q 381 562 467 685 q 294 317 294 439 q 326 228 294 264 q 415 192 357 192 z "},"९":{"ha":665,"x_min":58,"x_max":594,"o":"m 594 711 q 533 558 594 617 q 382 485 471 500 l 403 457 q 511 282 482 338 q 540 167 540 226 q 474 36 540 89 q 293 -37 407 -17 l 256 140 q 305 158 289 150 q 321 186 321 165 q 282 252 321 199 q 179 403 243 306 q 99 538 139 463 q 58 693 58 614 q 130 880 58 797 q 331 963 201 963 q 525 888 456 963 q 594 711 594 814 z "},"॰":{"ha":821,"x_min":56,"x_max":765,"o":"m 765 397 q 666 156 765 256 q 413 56 567 56 q 155 156 254 56 q 56 403 56 257 q 156 644 56 544 q 414 743 256 743 q 665 642 565 743 q 765 397 765 542 m 542 400 q 503 510 542 468 q 413 551 465 551 q 319 509 358 551 q 281 400 281 467 q 319 286 281 329 q 413 243 357 243 q 503 286 465 243 q 542 400 542 329 z "},"ॱ":{"ha":350,"x_min":56,"x_max":294,"o":"m 56 410 q 90 495 56 460 q 175 531 125 531 q 260 495 225 531 q 294 410 294 460 q 260 326 294 361 q 175 290 225 290 q 90 326 125 290 q 56 410 56 361 z "},"ॲ":{"ha":1415,"x_min":79,"x_max":1463,"o":"m 1106 1039 q 901 1089 1001 1039 q 749 1247 800 1139 l 910 1346 q 990 1255 938 1290 q 1106 1219 1043 1219 q 1219 1253 1168 1219 q 1300 1346 1269 1288 l 1463 1247 q 1310 1089 1411 1139 q 1106 1039 1210 1039 m 988 0 l 988 400 l 717 400 q 755 335 742 374 q 768 256 768 296 q 676 58 768 139 q 393 -22 585 -22 q 228 -1 310 -22 q 79 53 146 19 l 119 242 q 246 187 181 207 q 375 167 311 167 q 490 197 446 167 q 535 278 535 226 q 492 371 535 339 q 363 403 450 403 l 214 403 l 189 574 l 365 574 q 478 606 440 574 q 515 686 515 639 q 483 755 515 726 q 388 783 451 783 q 274 766 332 783 q 139 708 217 749 l 99 896 q 248 950 167 929 q 406 971 329 971 q 665 894 582 971 q 749 701 749 818 q 733 630 749 667 q 696 574 718 593 l 988 574 l 988 761 l 853 761 l 829 944 l 1354 944 l 1376 761 l 1221 761 l 1221 -22 l 988 0 z "},"ॳ":{"ha":1361,"x_min":78,"x_max":1376,"o":"m 988 0 l 988 399 l 715 399 q 753 335 740 374 q 767 256 767 296 q 676 59 767 139 q 393 -21 585 -21 q 227 -1 310 -21 q 78 53 144 18 l 119 240 q 246 185 181 206 q 375 165 311 165 q 490 195 446 165 q 533 278 533 225 q 491 370 533 339 q 361 401 449 401 l 214 401 l 189 572 l 364 572 q 476 606 439 572 q 514 686 514 639 q 483 754 514 726 q 388 782 451 782 q 273 765 331 782 q 139 708 215 749 l 97 894 q 247 950 165 929 q 404 971 329 971 q 665 894 582 971 q 749 701 749 818 q 733 630 749 667 q 696 572 718 593 l 988 572 l 988 760 l 851 760 l 829 944 l 988 944 l 988 1256 l 1219 1233 l 1219 944 l 1353 944 l 1376 760 l 1219 760 l 1219 -22 l 988 0 z "},"ॴ":{"ha":1858,"x_min":79,"x_max":1874,"o":"m 988 0 l 988 400 l 717 400 q 755 335 742 374 q 768 256 768 296 q 676 58 768 139 q 393 -22 585 -22 q 228 -1 310 -22 q 79 53 146 19 l 119 242 q 246 187 181 207 q 375 167 311 167 q 490 197 446 167 q 535 278 535 226 q 492 371 535 339 q 363 403 450 403 l 214 403 l 189 574 l 365 574 q 478 606 440 574 q 515 686 515 639 q 483 755 515 726 q 388 783 451 783 q 274 766 332 783 q 139 708 217 749 l 99 896 q 248 950 167 929 q 406 971 329 971 q 665 894 582 971 q 749 701 749 818 q 733 630 749 667 q 696 574 718 593 l 988 574 l 988 761 l 853 761 l 829 944 l 1483 944 l 1483 1256 l 1714 1233 l 1714 944 l 1850 944 l 1874 761 l 1718 761 l 1718 -22 l 1485 0 l 1485 761 l 1221 761 l 1221 -22 l 988 0 z "},"ॹ":{"ha":1161,"x_min":-15,"x_max":1176,"o":"m 788 0 l 788 461 l 656 461 q 665 416 661 440 q 669 367 669 392 q 567 131 669 210 q 325 51 465 51 q 158 77 239 51 q 18 142 76 103 l 54 351 q 183 271 118 299 q 315 242 247 243 q 415 276 376 242 q 453 358 453 311 q 426 431 453 401 q 342 461 399 461 l 242 461 l 217 643 l 788 643 l 788 761 l 7 761 l -15 944 l 1153 944 l 1176 761 l 1021 761 l 1021 -22 l 788 0 m 51 -92 q 85 -10 51 -44 q 167 24 119 24 q 248 -10 214 24 q 282 -92 282 -44 q 248 -173 282 -139 q 167 -207 214 -207 q 85 -173 119 -207 q 51 -92 51 -139 m 376 -92 q 410 -10 376 -44 q 490 24 443 24 q 572 -10 538 24 q 607 -92 607 -44 q 572 -173 607 -139 q 490 -207 538 -207 q 410 -173 443 -207 q 376 -92 376 -139 m 213 -299 q 247 -218 213 -251 q 328 -185 281 -185 q 409 -218 375 -185 q 443 -299 443 -251 q 409 -381 443 -346 q 328 -415 375 -415 q 247 -381 281 -415 q 213 -299 213 -346 z "},"ॺ":{"ha":964,"x_min":-15,"x_max":979,"o":"m 590 0 l 590 228 q 506 203 556 210 q 404 196 456 196 q 169 283 274 196 q 64 489 64 369 q 86 513 75 500 q 107 536 97 525 q 155 579 133 546 q 176 660 176 613 q 161 717 176 686 q 124 760 146 749 l 7 760 q -4 852 1 807 q -15 944 -10 897 l 956 944 l 979 760 l 824 760 l 824 -22 l 590 0 m 590 760 l 429 760 l 590 490 l 590 760 m 532 415 l 390 653 q 373 542 390 590 q 304 454 356 493 q 353 410 322 432 q 438 388 385 388 q 488 396 461 388 q 532 415 514 404 z "},"ॻ":{"ha":1056,"x_min":-15,"x_max":1071,"o":"m 682 0 l 682 760 l 425 760 l 425 282 q 398 188 425 222 q 311 154 371 154 q 153 222 226 154 q 81 383 81 290 q 112 459 81 433 q 192 485 143 485 l 192 760 l 7 760 q -4 852 1 807 q -15 944 -10 897 l 1047 944 l 1071 760 l 915 760 l 915 -22 l 682 0 m 938 -281 l 119 -281 l 97 -99 l 914 -99 l 938 -281 z "},"ॼ":{"ha":1161,"x_min":-15,"x_max":1176,"o":"m 788 0 l 788 461 l 656 461 q 665 416 661 440 q 669 367 669 392 q 567 131 669 210 q 325 51 465 51 q 158 77 239 51 q 18 142 76 103 l 54 351 q 183 271 118 299 q 315 242 247 243 q 415 276 376 242 q 453 358 453 311 q 426 431 453 401 q 342 461 399 461 l 242 461 l 217 643 l 788 643 l 788 761 l 7 761 l -15 944 l 1153 944 l 1176 761 l 1021 761 l 1021 -22 l 788 0 m 988 -282 l 100 -282 l 78 -99 l 964 -99 l 988 -282 z "},"ॽ":{"ha":789,"x_min":76,"x_max":731,"o":"m 731 672 q 663 490 731 581 q 483 347 594 399 q 484 175 483 294 q 485 4 485 56 l 250 74 l 250 467 q 425 556 357 501 q 493 669 493 610 q 463 747 493 717 q 389 776 433 776 q 257 748 326 776 q 107 664 188 719 l 76 875 q 229 947 149 922 q 400 971 310 971 q 646 881 561 971 q 731 672 731 790 z "},"ॾ":{"ha":775,"x_min":-15,"x_max":790,"o":"m 388 167 q 466 183 439 167 q 493 225 493 200 q 480 258 493 244 q 440 271 467 271 l 328 271 q 156 331 235 271 q 76 494 76 390 q 149 658 76 603 q 325 714 221 714 l 447 714 l 447 761 l 7 761 l -15 944 l 767 944 l 790 761 l 651 761 l 651 526 l 340 526 q 308 517 319 526 q 296 494 296 508 q 309 469 296 481 q 342 457 322 457 l 432 457 q 646 406 561 457 q 731 228 731 356 q 645 54 731 131 q 399 -22 560 -22 q 229 -3 317 -22 q 75 50 142 17 l 115 239 q 249 185 176 204 q 388 167 322 167 m 715 -282 l 99 -282 l 76 -99 l 692 -99 l 715 -282 z "},"ॿ":{"ha":913,"x_min":-15,"x_max":928,"o":"m 539 0 l 539 107 q 470 83 518 93 q 382 72 422 72 q 144 160 235 72 q 53 378 53 247 q 144 597 53 510 q 382 685 235 685 q 470 674 422 685 q 539 650 518 663 l 539 760 l 7 760 q -4 852 1 807 q -15 944 -10 897 l 904 944 l 928 760 l 772 760 l 772 -22 l 539 0 m 532 314 l 539 324 l 539 432 q 494 476 525 453 q 415 500 464 500 q 394 498 404 500 q 374 493 383 496 q 453 404 413 450 q 532 314 493 358 m 458 263 q 380 352 419 307 q 301 440 340 397 q 290 412 294 428 q 285 379 285 396 q 324 290 285 324 q 418 257 363 257 q 438 259 428 257 q 458 263 449 261 m 801 -281 l 118 -281 l 96 -99 l 778 -99 l 801 -281 z "}}}
